<?xml version="1.0" encoding="UTF-8"?>
<svg width="100px" height="100px" viewBox="0 0 100 100" version="1.1" xmlns="http://www.w3.org/2000/svg" xmlns:xlink="http://www.w3.org/1999/xlink">
    <!-- Generator: Sketch 55.2 (78181) - https://sketchapp.com -->
    <title>iconfinder_budget_aim_target_profit_3631686</title>
    <desc>Created with Sketch.</desc>
    <g id="page" stroke="none" stroke-width="1" fill="none" fill-rule="evenodd">
        <g id="Homepage_V01_defaul-Copy" transform="translate(-243.000000, -971.000000)">
            <g id="iconfinder_budget_aim_target_profit_3631686" transform="translate(243.000000, 971.000000)">
                <circle id="Oval" fill="#D9DCE1" fill-rule="nonzero" cx="50" cy="50" r="46"></circle>
                <circle id="Oval" fill="#FFFFFF" fill-rule="nonzero" cx="50" cy="50" r="36"></circle>
                <circle id="Oval" fill="#D9DCE1" fill-rule="nonzero" cx="50" cy="50" r="26"></circle>
                <path d="M0,50 L100,50" id="Path" stroke="#0478ED" stroke-width="2"></path>
                <path d="M50,100 L50,0" id="Path" stroke="#0478ED" stroke-width="2"></path>
                <circle id="Oval" fill="#F7B14A" fill-rule="nonzero" cx="50" cy="50" r="16"></circle>
                <path d="M51.4,58.2 L51.4,61 L48.8,61 L48.8,58.2 C47,58 45.4,57.2 43.8,55.8 L45.8,53.4 C47.2,54.6 48.8,55.2 50.2,55.2 C51.4,55.2 52.2,54.6 52.2,53.6 C52.2,52.6 51.4,52 49.4,51.4 C46.6,50.6 44.2,49.6 44.2,46.6 C44.2,44.2 45.8,42.2 48.8,41.8 L48.8,39 L51.4,39 L51.4,42 C53,42.4 54.4,43 55.6,44 L53.6,46.4 C52.2,45.4 51,45 49.8,45 C48.6,45 47.8,45.6 47.8,46.4 C47.8,47.4 48.6,47.8 50.4,48.4 C53.6,49.4 55.8,50.2 55.8,53.4 C56,56 54.2,57.8 51.4,58.2 Z" id="Path" fill="#FFFFFF" fill-rule="nonzero"></path>
            </g>
        </g>
    </g>
</svg>