<?xml version="1.0" encoding="UTF-8"?>
<svg width="100px" height="105px" viewBox="0 0 100 105" version="1.1" xmlns="http://www.w3.org/2000/svg" xmlns:xlink="http://www.w3.org/1999/xlink">
    <!-- Generator: Sketch 55.2 (78181) - https://sketchapp.com -->
    <title>iconfinder_bank_deposit_money_savings_3631690</title>
    <desc>Created with Sketch.</desc>
    <g id="page" stroke="none" stroke-width="1" fill="none" fill-rule="evenodd">
        <g id="Homepage_V01_defaul-Copy" transform="translate(-1086.000000, -1316.000000)">
            <g id="iconfinder_bank_deposit_money_savings_3631690" transform="translate(1086.000000, 1316.000000)">
                <path d="M98.3333333,44.8979592 L1.66666667,44.8979592 C0.625,44.8979592 0.208333333,43.4693878 1.04166667,43.0612245 L47.9166667,15.5102041 C49.1666667,14.6938776 50.8333333,14.6938776 52.2916667,15.5102041 L99.1666667,43.0612245 C99.7916667,43.4693878 99.375,44.8979592 98.3333333,44.8979592 Z" id="Path" fill="#D9DCE1" fill-rule="nonzero"></path>
                <path d="M91.6666667,44.8979592 L8.33333333,44.8979592 L8.33333333,48.9795918 C8.33333333,50.2040816 9.16666667,51.0204082 10.4166667,51.0204082 L89.5833333,51.0204082 C90.8333333,51.0204082 91.6666667,50.2040816 91.6666667,48.9795918 L91.6666667,44.8979592 Z" id="Path" fill="#56AAFF" fill-rule="nonzero"></path>
                <path d="M89.5833333,89.7959184 L10.4166667,89.7959184 C9.16666667,89.7959184 8.33333333,90.6122449 8.33333333,91.8367347 L8.33333333,95.9183673 L91.6666667,95.9183673 L91.6666667,91.8367347 C91.6666667,90.6122449 90.8333333,89.7959184 89.5833333,89.7959184 Z" id="Path" fill="#56AAFF" fill-rule="nonzero"></path>
                <path d="M95.8333333,95.9183673 L4.16666667,95.9183673 C2.91666667,95.9183673 2.08333333,96.7346939 2.08333333,97.9591837 L2.08333333,104.081633 L97.9166667,104.081633 L97.9166667,97.9591837 C97.9166667,96.7346939 97.0833333,95.9183673 95.8333333,95.9183673 Z" id="Path" fill="#D9DCE1" fill-rule="nonzero"></path>
                <path d="M58.3333333,55.1020408 L58.3333333,51.0204082 L56.25,51.0204082 L43.75,51.0204082 L41.6666667,51.0204082 L41.6666667,55.1020408 C41.6666667,56.3265306 42.5,57.1428571 43.75,57.1428571 L43.75,83.6734694 C42.5,83.6734694 41.6666667,84.4897959 41.6666667,85.7142857 L41.6666667,89.7959184 L43.75,89.7959184 L56.25,89.7959184 L58.3333333,89.7959184 L58.3333333,85.7142857 C58.3333333,84.4897959 57.5,83.6734694 56.25,83.6734694 L56.25,57.1428571 C57.5,57.1428571 58.3333333,56.3265306 58.3333333,55.1020408 Z" id="Path" fill="#D9DCE1" fill-rule="nonzero"></path>
                <path d="M31.25,55.1020408 L31.25,51.0204082 L29.1666667,51.0204082 L16.6666667,51.0204082 L14.5833333,51.0204082 L14.5833333,55.1020408 C14.5833333,56.3265306 15.4166667,57.1428571 16.6666667,57.1428571 L16.6666667,83.6734694 C15.4166667,83.6734694 14.5833333,84.4897959 14.5833333,85.7142857 L14.5833333,89.7959184 L16.6666667,89.7959184 L29.1666667,89.7959184 L31.25,89.7959184 L31.25,85.7142857 C31.25,84.4897959 30.4166667,83.6734694 29.1666667,83.6734694 L29.1666667,57.1428571 C30.4166667,57.1428571 31.25,56.3265306 31.25,55.1020408 Z" id="Path" fill="#D9DCE1" fill-rule="nonzero"></path>
                <path d="M85.4166667,55.1020408 L85.4166667,51.0204082 L83.3333333,51.0204082 L70.8333333,51.0204082 L68.75,51.0204082 L68.75,55.1020408 C68.75,56.3265306 69.5833333,57.1428571 70.8333333,57.1428571 L70.8333333,83.6734694 C69.5833333,83.6734694 68.75,84.4897959 68.75,85.7142857 L68.75,89.7959184 L70.8333333,89.7959184 L83.3333333,89.7959184 L85.4166667,89.7959184 L85.4166667,85.7142857 C85.4166667,84.4897959 84.5833333,83.6734694 83.3333333,83.6734694 L83.3333333,57.1428571 C84.5833333,57.1428571 85.4166667,56.3265306 85.4166667,55.1020408 Z" id="Path" fill="#D9DCE1" fill-rule="nonzero"></path>
                <path d="M33.3333333,34.6938776 L66.6666667,34.6938776" id="Path" stroke="#FFFFFF" stroke-width="4" stroke-linecap="round" stroke-linejoin="round"></path>
                <path d="M29.375,18.7755102 C28.75,24.8979592 30.8333333,30.6122449 34.5833333,34.6938776 L65.625,34.6938776 C68.9583333,31.0204082 70.8333333,26.3265306 70.8333333,21.2244898 C70.8333333,9.18367347 60.2083333,-0.408163265 47.7083333,1.02040816 C38.125,1.83673469 30.4166667,9.3877551 29.375,18.7755102 Z" id="Path" fill="#F7B14A" fill-rule="nonzero"></path>
                <path d="M51.875,30.8163265 L51.875,36.3265306 L48.5416667,36.3265306 L48.5416667,30.8163265 C46.25,30.4081633 44.1666667,29.3877551 42.2916667,27.755102 L44.7916667,24.6938776 C46.4583333,26.3265306 48.75,27.1428571 50.4166667,27.1428571 C52.0833333,27.1428571 52.9166667,26.3265306 52.9166667,25.3061224 C52.9166667,24.0816327 51.875,23.4693878 49.375,22.6530612 C45.8333333,21.6326531 42.7083333,20.4081633 42.7083333,16.5306122 C42.7083333,13.4693878 44.7916667,11.0204082 48.5416667,10.6122449 L48.5416667,6.73469388 L51.875,6.73469388 L51.875,10.6122449 C53.75,11.0204082 55.8333333,11.8367347 57.2916667,13.0612245 L54.7916667,16.122449 C53.125,14.8979592 51.25,14.4897959 50,14.4897959 C48.3333333,14.4897959 47.5,15.1020408 47.5,16.3265306 C47.5,17.5510204 48.5416667,17.9591837 50.8333333,18.7755102 C55,20 57.7083333,21.0204082 57.7083333,25.1020408 C57.5,28.1632653 55.4166667,30.4081633 51.875,30.8163265 Z" id="Path" fill="#FFFFFF" fill-rule="nonzero"></path>
            </g>
        </g>
    </g>
</svg>