<?xml version="1.0" encoding="UTF-8"?>
<svg width="104px" height="104px" viewBox="0 0 104 104" version="1.1" xmlns="http://www.w3.org/2000/svg" xmlns:xlink="http://www.w3.org/1999/xlink">
    <!-- Generator: Sketch 55.2 (78181) - https://sketchapp.com -->
    <title>iconfinder_coin_cash_flow_transaction_3631676</title>
    <desc>Created with Sketch.</desc>
    <g id="page" stroke="none" stroke-width="1" fill="none" fill-rule="evenodd">
        <g id="Homepage_V01_defaul-Copy" transform="translate(-247.000000, -1668.000000)">
            <g id="iconfinder_coin_cash_flow_transaction_3631676" transform="translate(249.000000, 1671.000000)">
                <g id="Group" transform="translate(1.000000, 0.000000)">
                    <path d="M0.0869565217,49 C0.0869565217,22.0434783 22.0434783,0.0869565217 49,0.0869565217 C66.6086957,0.0869565217 82.0434783,9.43478261 90.7391304,23.3478261" id="Path" stroke="#FCD462" stroke-width="6"></path>
                    <polygon id="Path" fill="#FCD462" fill-rule="nonzero" points="80.3043478 25.0869565 96.173913 36.173913 98.1304348 16.826087"></polygon>
                </g>
                <g id="Group" transform="translate(0.000000, 49.000000)">
                    <path d="M98.9130435,0 C98.9130435,26.9565217 76.9565217,48.9130435 50,48.9130435 C31.9565217,48.9130435 16.3043478,39.1304348 7.82608696,24.5652174" id="Path" stroke="#56AAFF" stroke-width="6"></path>
                    <polygon id="Path" fill="#56AAFF" fill-rule="nonzero" points="18.0434783 23.2608696 2.39130435 11.5217391 0.217391304 31.0869565"></polygon>
                </g>
                <g id="Group" transform="translate(19.565217, 18.565217)" fill-rule="nonzero">
                    <circle id="Oval" fill="#F7B14A" cx="30.4347826" cy="30.4347826" r="30.4347826"></circle>
                    <path d="M32.826087,45 L32.826087,49.7826087 L28.2608696,49.7826087 L28.2608696,45 C25.2173913,44.5652174 22.173913,43.0434783 19.7826087,40.6521739 L23.2608696,36.5217391 C25.6521739,38.6956522 28.4782609,39.7826087 30.8695652,39.7826087 C33.0434783,39.7826087 34.3478261,38.6956522 34.3478261,37.173913 C34.3478261,35.4347826 33.0434783,34.5652174 29.5652174,33.4782609 C24.7826087,31.9565217 20.4347826,30.4347826 20.4347826,25 C20.4347826,20.6521739 23.2608696,17.3913043 28.2608696,16.7391304 L28.2608696,11.7391304 L32.826087,11.7391304 L32.826087,16.9565217 C35.4347826,17.6086957 38.2608696,18.6956522 40,20.2173913 L36.5217391,24.3478261 C34.1304348,22.6086957 31.7391304,21.9565217 30,21.9565217 C27.826087,21.9565217 26.5217391,22.826087 26.5217391,24.3478261 C26.5217391,25.8695652 28.0434783,26.7391304 31.0869565,27.826087 C36.7391304,29.5652174 40.6521739,31.0869565 40.6521739,36.7391304 C40.8695652,41.3043478 37.826087,44.3478261 32.826087,45 Z" id="Path" fill="#FFFFFF"></path>
                </g>
            </g>
        </g>
    </g>
</svg>