<svg width="80" height="80" viewBox="0 0 80 80" fill="none" xmlns="http://www.w3.org/2000/svg">
<g clip-path="url(#clip0)">
<path d="M0 16.0001C0 7.16357 7.16344 0.00012207 16 0.00012207H64C72.8366 0.00012207 80 7.16357 80 16.0001V64.0001C80 72.8367 72.8366 80.0001 64 80.0001H16C7.16344 80.0001 0 72.8367 0 64.0001V16.0001Z" fill="url(#paint0_linear)"/>
<path d="M78.7534 9.79743C77.3691 6.50866 74.9171 3.77968 71.8315 2.04443L69.5251 2.91006L49.5001 10.0921L47.2501 10.8901L42.9751 12.4291L39.2626 13.7401L36.0001 14.8801L39.2063 24.0001L39.3751 23.9431L41.3438 23.2591L54.0563 18.6991L58.3313 17.1601L60.6938 16.3051L63.4501 15.3361L78.7534 9.79743Z" fill="white"/>
<path d="M44.5582 57.524L44.5577 57.5242C44.2558 57.6505 43.9539 57.7769 43.6519 57.8527C39.3493 59.331 35.2732 59.1036 31.1404 57.1135C30.1214 56.6018 29.1023 56.0332 28.1965 55.3509C27.4039 54.7254 26.6113 54.1 25.932 53.3039C25.2526 52.5648 24.6299 51.7119 24.0638 50.859C23.4976 49.8924 22.9881 48.812 22.5918 47.7317C21.4029 44.4338 21.2897 41.2497 22.1955 38.0656C22.4786 37.0421 22.8749 36.0755 23.3278 35.1089C24.5733 32.4933 26.2717 30.4464 28.423 28.8543C29.7251 27.9446 31.1404 27.2054 32.6123 26.6368C33.0652 26.4662 33.5748 26.2956 34.0277 26.1819L35.2165 25.8408L31.9896 16.8001L30.9139 17.1413C30.6592 17.2265 30.4186 17.2976 30.178 17.3687C29.9374 17.4398 29.6968 17.5108 29.442 17.5961C25.9886 18.847 23.0447 20.5528 20.5537 22.8272C20.3839 22.9978 20.214 23.1684 19.9876 23.3389C17.7797 25.4996 15.9681 28.0583 14.6094 30.9013C11.6655 37.1558 11.2126 43.581 13.2506 50.0629C13.3072 50.2051 13.3497 50.3472 13.3922 50.4894C13.4346 50.6315 13.4771 50.7737 13.5337 50.9158C14.8924 54.8391 16.9871 58.137 19.7612 60.8663C21.8558 62.9132 24.2902 64.5621 26.8944 65.813C27.7436 66.2111 28.5928 66.5522 29.442 66.8934C30.0081 67.1208 30.5177 67.2914 31.0838 67.462C35.1033 68.5992 39.4059 68.7129 43.4821 67.7463C44.5577 67.5188 45.6334 67.1777 46.709 66.7797C47.0281 66.6728 47.3471 66.5438 47.6522 66.4203C47.8344 66.3465 48.0116 66.2748 48.181 66.2111L49.2 65.7562L46.709 58.6487L46.0297 56.7724L45.0106 57.341C44.8598 57.3978 44.709 57.4609 44.5582 57.524Z" fill="white"/>
<path d="M37.7366 37.1143C36.1635 37.6801 35.096 39.2645 35.2083 40.962C35.2083 41.3015 35.3207 41.6976 35.4331 42.0371L36.1073 43.8478C36.8377 45.8282 38.9727 46.9033 40.9392 46.1677L43.5799 45.2058L50.2659 42.8292C52.2324 42.0937 53.2999 39.9435 52.5695 37.963L51.8953 36.1523C51.1649 34.1719 49.0298 33.0968 47.0634 33.8324L39.5908 36.4918L37.9614 37.0577L37.7366 37.1143Z" fill="white"/>
</g>
<defs>
<linearGradient id="paint0_linear" x1="74.8" y1="74.8001" x2="10.8" y2="10.8001" gradientUnits="userSpaceOnUse">
<stop offset="0.159375" stop-color="#003CDA"/>
<stop offset="1" stop-color="#33DFCC"/>
</linearGradient>
<clipPath id="clip0">
<rect width="80" height="80" fill="white"/>
</clipPath>
</defs>
</svg>
