<svg height="512pt" viewBox="0 -11 512 512" width="512pt" xmlns="http://www.w3.org/2000/svg"><path d="m501 245c0 135.308594-109.691406 245-245 245s-245-109.691406-245-245 109.691406-245 245-245 245 109.691406 245 245zm0 0" fill="#84deea"/><path d="m353.445312 40.21875 35 60.621094c4.140626 7.175781 1.683594 16.347656-5.492187 20.492187l-95.261719 55c-7.175781 4.140625-16.347656 1.683594-20.492187-5.492187l-35-60.621094c-4.140625-7.171875-1.683594-16.347656 5.492187-20.488281l95.261719-55c7.175781-4.144531 16.347656-1.6875 20.492187 5.488281zm143.554688 183.902344h-110c-8.285156 0-15 6.71875-15 15v70c0 8.285156 6.714844 15 15 15h110c8.285156 0 15-6.714844 15-15v-70c0-8.28125-6.714844-15-15-15zm0 0" fill="#f48c03"/><path d="m382.953125 121.332031-95.261719 55c-7.175781 4.140625-16.347656 1.683594-20.492187-5.492187l-20-34.640625c-4.140625-7.175781-1.683594-16.347657 5.492187-20.492188l95.261719-55c7.175781-4.140625 16.347656-1.683593 20.492187 5.492188l20 34.640625c4.140626 7.175781 1.683594 16.347656-5.492187 20.492187zm114.046875 132.789063h-110c-8.285156 0-15 6.71875-15 15v40c0 8.285156 6.714844 15 15 15h110c8.285156 0 15-6.714844 15-15v-40c0-8.28125-6.714844-15-15-15zm0 0" fill="#fa0"/><path d="m40 269c-5.523438 0-10-4.476562-10-10v-30c0-5.523438 4.476562-10 10-10s10 4.476562 10 10v30c0 5.523438-4.476562 10-10 10zm106.464844 17.679688 21.210937-21.214844c3.90625-3.90625 3.90625-10.238282 0-14.140625-3.902343-3.90625-10.234375-3.90625-14.140625 0l-21.214844 21.210937c-3.902343 3.90625-3.902343 10.238282 0 14.144532 3.90625 3.902343 10.238282 3.902343 14.144532 0zm33.535156 82.320312h30c5.523438 0 10-4.476562 10-10s-4.476562-10-10-10h-30c-5.523438 0-10 4.476562-10 10s4.476562 10 10 10zm-27.070312 67.070312 21.210937 21.214844c3.90625 3.902344 10.238281 3.902344 14.144531 0 3.902344-3.90625 3.902344-10.238281 0-14.144531l-21.214844-21.210937c-3.90625-3.90625-10.234374-3.90625-14.140624 0s-3.90625 10.234374 0 14.140624zm0 0" fill="#c0fbff"/><path d="m210.730469 163.03125c4.140625 7.171875 1.683593 16.347656-5.492188 20.488281-80.320312 46.375-130.570312 125.078125-143.871093 210.277344-8.765626-11.449219-16.554688-23.691406-23.21875-36.605469.203124-.777344.386718-1.554687.59375-2.328125 22.453124-83.808593 76.257812-153.886719 151.496093-197.324219 7.175781-4.140624 16.347657-1.683593 20.492188 5.492188zm0 0" fill="#ff393a"/><path d="m353.3125 149.992188-86.601562 50c-7.175782 4.140624-16.347657 1.683593-20.492188-5.492188l-2.5-4.328125-43.300781 25c-7.171875 4.140625-16.347657 1.683594-20.488281-5.492187l-25-43.300782c-4.144532-7.175781-1.683594-16.347656 5.488281-20.488281l43.300781-25-2.5-4.332031c-4.140625-7.171875-1.683594-16.347656 5.492188-20.488282l86.601562-50c7.175781-4.144531 16.347656-1.683593 20.492188 5.488282l45 77.941406c4.140624 7.175781 1.683593 16.347656-5.492188 20.492188zm0 0" fill="#ff6466"/><path d="m353.3125 149.992188-86.601562 50c-7.175782 4.140624-16.347657 1.683593-20.492188-5.492188l-2.5-4.328125-43.300781 25c-7.171875 4.140625-16.347657 1.683594-20.488281-5.492187l-10-17.320313c-4.144532-7.171875-1.683594-16.347656 5.488281-20.492187l17.320312-10c4.785157-2.757813 10.898438-1.121094 13.660157 3.660156l9.828124 17.027344c2.664063 4.609374 8.46875 6.628906 13.246094 4.269531 5.230469-2.585938 7.117188-9 4.246094-13.972657l-17.5-30.3125c-4.140625-7.175781-1.683594-16.347656 5.492188-20.488281l86.601562-50c7.171875-4.144531 16.347656-1.6875 20.488281 5.488281l30 51.960938c4.144531 7.175781 1.6875 16.347656-5.488281 20.492188zm0 0" fill="#ff895a"/><path d="m184.078125 166.867188c-4.78125 2.761718-10.898437 1.125-13.660156-3.65625l-10-17.324219 17.320312-10 10 17.324219c2.761719 4.78125 1.125 10.898437-3.660156 13.65625zm23.660156 20.984374c-2.761719-4.785156-8.875-6.421874-13.660156-3.660156-4.78125 2.757813-6.421875 8.875-3.660156 13.660156l10 17.320313 17.320312-10zm5.980469-49.640624-10-17.324219-17.320312 10 10 17.324219c2.761718 4.78125 8.878906 6.421874 13.660156 3.65625 4.785156-2.757813 6.421875-8.875 3.660156-13.65625zm20 34.640624c-2.757812-4.785156-8.875-6.421874-13.660156-3.660156-4.78125 2.757813-6.421875 8.875-3.660156 13.660156l10 17.320313 17.324218-10zm14.640625-54.640624-20-34.644532-17.320313 10 20 34.644532c2.761719 4.78125 8.878907 6.421874 13.660157 3.65625 4.785156-2.757813 6.421875-8.875 3.660156-13.65625zm20 34.640624c-2.757813-4.785156-8.875-6.421874-13.660156-3.660156-4.78125 2.757813-6.421875 8.875-3.660157 13.660156l20 34.640626 17.324219-10zm5.980469-49.640624-20-34.644532-17.320313 10 20 34.644532c2.761719 4.78125 8.878907 6.421874 13.660157 3.65625 4.785156-2.757813 6.421874-8.875 3.660156-13.65625zm20 34.640624c-2.761719-4.785156-8.875-6.421874-13.660156-3.660156-4.78125 2.757813-6.421876 8.875-3.660157 13.660156l20 34.640626 17.320313-10zm0 0" fill="#ff2e28"/><path d="m327 274.121094c0 8.285156-6.714844 15-15 15-97.351562 0-183.828125 47.414062-237.585938 120.347656-6.984374-7.707031-13.476562-15.867188-19.449218-24.421875 8.34375-10.734375 17.40625-21.019531 27.171875-30.785156 61.351562-61.351563 142.984375-95.140625 229.863281-95.140625 8.285156 0 15 6.71875 15 15zm0 0" fill="#0069a3"/><path d="m472 229.121094v90c0 8.285156-6.714844 15-15 15h-100c-8.285156 0-15-6.714844-15-15v-5h-50c-8.285156 0-15-6.714844-15-15v-50c0-8.28125 6.714844-15 15-15h50v-5c0-8.28125 6.714844-15 15-15h100c8.285156 0 15 6.71875 15 15zm0 0" fill="#006cbc"/><path d="m472 259.121094v60c0 8.285156-6.714844 15-15 15h-100c-8.285156 0-15-6.714844-15-15v-5h-50c-8.285156 0-15-6.714844-15-15v-20c0-8.28125 6.714844-15 15-15h20c5.523438 0 10 4.476562 10 10v20c0 5.742187 4.839844 10.355468 10.664062 9.980468 5.316407-.34375 9.335938-4.996093 9.335938-10.324218v-34.65625c0-8.285156 6.714844-15 15-15h100c8.285156 0 15 6.71875 15 15zm0 0" fill="#08c"/><path d="m322 234.121094h20v20c0 5.523437-4.476562 10-10 10s-10-4.476563-10-10zm10 50c-5.523438 0-10 4.476562-10 10v20h20v-20c0-5.523438-4.476562-10-10-10zm-40-30c0 5.523437 4.476562 10 10 10s10-4.476563 10-10v-20h-20zm10 30c-5.523438 0-10 4.476562-10 10v20h20v-20c0-5.523438-4.476562-10-10-10zm60-30c0 5.523437 4.476562 10 10 10s10-4.476563 10-10v-40h-20zm30-40v40c0 5.523437 4.476562 10 10 10s10-4.476563 10-10v-40zm10 70c-5.523438 0-10 4.476562-10 10v40h20v-40c0-5.523438-4.476562-10-10-10zm-30 0c-5.523438 0-10 4.476562-10 10v40h20v-40c0-5.523438-4.476562-10-10-10zm0 0" fill="#024c67"/><path d="m160 359c0 44.183594-35.816406 80-80 80s-80-35.816406-80-80 35.816406-80 80-80 80 35.816406 80 80zm0 0" fill="#ffe49f"/><path d="m160 359c0 14.386719-3.816406 27.871094-10.464844 39.535156-11.664062 6.648438-25.148437 10.464844-39.535156 10.464844-44.183594 0-80-35.816406-80-80 0-14.386719 3.816406-27.871094 10.464844-39.535156 11.664062-6.648438 25.148437-10.464844 39.535156-10.464844 44.183594 0 80 35.816406 80 80zm0 0" fill="#fff5f5"/><path d="m115.355469 373.140625c5.859375 5.859375 5.859375 15.355469 0 21.214844-2.929688 2.929687-6.769531 4.394531-10.605469 4.394531-3.839844 0-7.679688-1.464844-10.605469-4.394531l-14.144531-14.140625-14.140625 14.140625c-2.929687 2.929687-6.769531 4.394531-10.605469 4.394531-3.839844 0-7.679687-1.464844-10.609375-4.394531-5.855469-5.859375-5.855469-15.355469 0-21.214844l14.140625-14.140625-14.140625-14.140625c-5.859375-5.859375-5.859375-15.355469 0-21.214844s15.355469-5.859375 21.214844 0l14.140625 14.140625 14.140625-14.140625c5.859375-5.859375 15.355469-5.859375 21.214844 0s5.859375 15.355469 0 21.214844l-14.140625 14.140625zm0 0" fill="#ff895a"/><path d="m48.847656 390.933594c-1.285156 1.285156-2.441406 2.652344-3.480468 4.078125-.242188-.214844-.488282-.421875-.722657-.65625-5.859375-5.859375-5.859375-15.355469 0-21.214844l14.140625-14.140625-14.140625-14.140625c-5.859375-5.859375-5.859375-15.355469 0-21.214844.234375-.234375.480469-.441406.726563-.65625 1.035156 1.429688 2.191406 2.792969 3.480468 4.082031l24.859376 24.859376c3.90625 3.90625 3.90625 10.238281 0 14.140624zm0 0" fill="#ff6466"/></svg>