<svg width="27" height="25" viewBox="0 0 27 25" fill="none" xmlns="http://www.w3.org/2000/svg">
  <path fill-rule="evenodd" clip-rule="evenodd" d="M17.3804 14.9166C16.8219 14.9166 16.3465 15.0772 15.9699 15.4153L15.9677 15.4173C15.5962 15.7605 15.4071 16.2152 15.4071 16.7622C15.4071 17.204 15.5308 17.6071 15.7736 17.9651L15.7753 17.9676C15.9568 18.2275 16.2371 18.4887 16.6061 18.7531C15.9611 18.9955 15.4595 19.3316 15.1178 19.7728C14.691 20.3014 14.4839 20.9786 14.4839 21.7855C14.4839 22.649 14.7263 23.3579 15.2243 23.8878C15.7295 24.4252 16.3967 24.6842 17.2042 24.6842C18.0382 24.6842 18.7138 24.4152 19.203 23.8513L19.2044 23.8497C19.6906 23.2778 19.9241 22.5109 19.9241 21.5751C19.9241 21.103 19.8625 20.6864 19.7329 20.3321L19.7307 20.3263C19.5912 19.9731 19.3745 19.6483 19.0868 19.3508C18.8081 19.0635 18.3674 18.7277 17.7757 18.3444C17.1253 17.9242 16.7291 17.6186 16.5592 17.4232C16.4133 17.2357 16.3401 17.0144 16.3401 16.7473C16.3401 16.4834 16.4266 16.2825 16.6046 16.1248L16.6075 16.122C16.7785 15.9642 17.0325 15.8708 17.3942 15.8708C17.6667 15.8708 17.9349 15.9085 18.1991 15.9836C18.4639 16.0691 18.7912 16.2183 19.1822 16.4349C19.2761 16.487 19.3893 16.4458 19.4391 16.3415L19.6833 15.8302C19.709 15.7766 19.7139 15.7133 19.6971 15.6554C19.6804 15.5974 19.6432 15.5498 19.5946 15.524C19.1523 15.2891 18.7581 15.1268 18.4134 15.0419C18.0823 14.9582 17.7378 14.9166 17.3804 14.9166ZM18.9893 21.5574C18.9893 22.292 18.8259 22.8198 18.5273 23.1765C18.2293 23.5232 17.8006 23.7097 17.2136 23.7097C16.6451 23.7097 16.2121 23.5279 15.8935 23.1847C15.5757 22.842 15.4106 22.3829 15.4106 21.7824C15.4106 21.4536 15.4531 21.1645 15.5347 20.9123L15.5367 20.9054C15.6102 20.6528 15.719 20.4404 15.8617 20.2652L15.865 20.2612C16.0075 20.0774 16.2027 19.9135 16.4564 19.7732L16.4587 19.7719C16.6905 19.6393 17.0404 19.5052 17.517 19.3724C18.0672 19.6849 18.4363 20.009 18.6461 20.3358L18.6482 20.3389C18.8738 20.6774 18.9893 21.0801 18.9893 21.5574Z" fill="#212121"/>
  <path d="M21.8216 15.6393C21.7857 15.5763 21.7241 15.5382 21.6579 15.5382H21.0469C20.9753 15.5382 20.9095 15.5828 20.8754 15.6542C20.8414 15.7258 20.8445 15.8128 20.8836 15.8809L23.1764 19.864L20.64 24.2235C20.6004 24.2916 20.5969 24.3787 20.6309 24.4505C20.6648 24.5224 20.7309 24.5671 20.8026 24.5671H21.3999C21.4653 24.5671 21.5262 24.5299 21.5624 24.468L23.7343 20.749L25.8673 24.4666C25.9033 24.5293 25.9648 24.5671 26.0307 24.5671H26.6419C26.7135 24.5671 26.7794 24.5224 26.8135 24.4508C26.8475 24.3791 26.8441 24.292 26.8047 24.224L24.282 19.8654L26.6143 15.8824C26.6541 15.8143 26.6577 15.727 26.6238 15.655C26.5899 15.5831 26.5238 15.5382 26.4519 15.5382H25.8678C25.8022 15.5382 25.7408 15.5758 25.7048 15.6381L23.7504 19.023L21.8216 15.6393Z" fill="#212121"/>
  <path fill-rule="evenodd" clip-rule="evenodd" d="M3.86344 0.0267334C4.22059 0.0267334 4.56504 0.0683558 4.89642 0.152176C5.24104 0.23706 5.6352 0.399253 6.07758 0.634253C6.12626 0.660106 6.16339 0.707649 6.1802 0.765631C6.197 0.823628 6.19198 0.886911 6.16633 0.940567L5.92188 1.4518C5.87206 1.55597 5.75884 1.59714 5.66504 1.54516C5.27375 1.32841 4.94673 1.17936 4.68194 1.09384C4.41792 1.01864 4.14964 0.981067 3.87699 0.981067C3.51546 0.981067 3.26149 1.0744 3.0905 1.23226L3.08736 1.2351C2.90926 1.39274 2.82315 1.59352 2.82315 1.85747C2.82315 2.12457 2.89627 2.34598 3.04221 2.53343C3.21192 2.72871 3.60844 3.03449 4.25881 3.45477C4.85035 3.83806 5.29087 4.17356 5.56936 4.46096C5.85722 4.75848 6.07404 5.08331 6.21352 5.43663L6.2156 5.44208C6.34564 5.79667 6.40709 6.21324 6.40709 6.68539C6.40709 7.62123 6.17338 8.38807 5.6872 8.95989L5.68585 8.96146C5.19672 9.52546 4.52117 9.79445 3.68694 9.79445C2.87942 9.79445 2.21251 9.5354 1.70732 8.99795C1.20922 8.46803 0.966797 7.75926 0.966797 6.89569C0.966797 6.0889 1.17386 5.41152 1.60054 4.88299C1.94248 4.44184 2.44396 4.10573 3.08911 3.86332C2.71995 3.59885 2.43968 3.33775 2.25806 3.07796L2.25622 3.07527C2.0137 2.71725 1.88995 2.3142 1.88995 1.87247C1.88995 1.3254 2.07889 0.870787 2.45074 0.527458L2.45282 0.525568C2.82946 0.187406 3.30491 0.0267334 3.86344 0.0267334ZM3.70462 8.81993C3.13611 8.81993 2.70313 8.63816 2.38454 8.29494C2.06667 7.95221 1.90168 7.49312 1.90168 6.89265C1.90168 6.56383 1.94411 6.27476 2.02564 6.02259L2.02776 6.01568C2.10121 5.76301 2.21004 5.55065 2.35265 5.37534L2.35565 5.37156C2.49859 5.18756 2.69361 5.02358 2.94724 4.88337L2.94961 4.88201C3.18123 4.74954 3.53139 4.61543 4.00797 4.48256C4.55802 4.79514 4.92723 5.11924 5.13717 5.44595L5.13924 5.44905C5.36494 5.78767 5.48035 6.19028 5.48035 6.6676C5.48035 7.40202 5.31681 7.92992 5.01836 8.2867C4.72008 8.63347 4.29157 8.81993 3.70462 8.81993Z" fill="#212121"/>
  <path d="M13.2382 0.977641C13.2718 0.909043 13.271 0.825356 13.2359 0.757658C13.2009 0.689961 13.1369 0.648397 13.0678 0.648397H12.4835C12.4124 0.648397 12.3469 0.692412 12.3126 0.763239L10.2153 5.10034L8.13043 0.763726C8.09624 0.692618 8.03061 0.648397 7.95929 0.648397H7.33438C7.2653 0.648397 7.20136 0.689902 7.16633 0.757525C7.13128 0.825149 7.13036 0.908777 7.1639 0.977376L9.73423 6.23519V9.45585C9.73423 9.57816 9.82154 9.67732 9.92923 9.67732H10.4865C10.5942 9.67732 10.6815 9.57816 10.6815 9.45585V6.1905L13.2382 0.977641Z" fill="#212121"/>
  <path d="M6.85317 20.4269C6.81714 20.4724 6.82037 20.5423 6.86038 20.5832L7.11969 20.8484C7.15971 20.8893 7.22135 20.8856 7.25739 20.8402L20.9157 3.61163C20.9517 3.56618 20.9486 3.49617 20.9086 3.45524L20.6492 3.19006C20.6092 3.14915 20.5476 3.15281 20.5115 3.19827L6.85317 20.4269Z" fill="#212121"/>
</svg>
