<?xml version="1.0" encoding="utf-8"?>
<!-- Generator: Adobe Illustrator 23.0.2, SVG Export Plug-In . SVG Version: 6.00 Build 0)  -->
<svg version="1.1" id="Layer_1" xmlns="http://www.w3.org/2000/svg" xmlns:xlink="http://www.w3.org/1999/xlink" x="0px" y="0px"
	 viewBox="0 0 976 387" style="enable-background:new 0 0 976 387;" xml:space="preserve">
<style type="text/css">
	.st0{fill:#fff;}
	.st1{fill-rule:evenodd;clip-rule:evenodd;fill:#fff;}
</style>
<g>
	<rect x="474.82" y="89.6" class="st0" width="39.94" height="224.37"/>
	<polygon class="st0" points="789.99,89.6 789.99,305.33 750.05,328.4 750.05,89.6 	"/>
	<path class="st0" d="M681.77,73.69v95.45c-12.36-15.91-30.19-30.19-58.46-30.19c-40.9,0-79.54,32.15-79.54,88.95v0.66
		c0,56.8,39.27,88.95,79.54,88.95c27.94,0,45.81-14.28,58.46-32.15v28.61h39.94V50.62L681.77,73.69z M682.4,228.56
		c0,3.14-0.22,6.2-0.63,9.15c-3.91,27.68-25.28,45.73-49.05,45.73c-26.61,0-49.35-21.78-49.35-54.88v-0.66
		c0-34.1,22.4-54.88,49.35-54.88c23.77,0,45.18,17.79,49.05,45.66c0.41,2.95,0.63,6.05,0.63,9.23V228.56z"/>
	<path class="st0" d="M810.37,228.88v-0.65c0-49.03,34.74-89.29,83.77-89.29c54.55,0,82.16,42.86,82.16,92.22
		c0,3.57-0.33,7.14-0.65,11.04H849.66c4.22,27.92,24.03,43.51,49.35,43.51c19.16,0,32.8-7.14,46.43-20.46l23.06,20.46
		c-16.24,19.48-38.64,32.15-70.14,32.15C848.69,317.85,810.37,281.8,810.37,228.88z M937.33,216.21
		c-2.59-25.33-17.53-45.13-43.51-45.13c-24.03,0-40.92,18.51-44.49,45.13H937.33z"/>
	<g>
		<polygon class="st1" points="133.77,0.07 133.77,309.44 0.84,309.44 0,308.97 0,77.29 5.1,74.34 		"/>
		<polygon class="st1" points="176.61,386.27 176.61,76.89 309.54,76.89 310.38,77.37 310.38,309.04 305.28,311.99 		"/>
	</g>
</g>
</svg>
