<?xml version="1.0" encoding="utf-8"?>
<svg version="1.1" id="Layer_1" xmlns="http://www.w3.org/2000/svg" xmlns:xlink="http://www.w3.org/1999/xlink" x="0px" y="0px"
	 viewBox="-20 0 1000 387" xml:space="preserve">
<style type="text/css">
	.st0{fill:#fff;}
	.st1{fill-rule:evenodd;clip-rule:evenodd;fill:none;stroke:#fff;stroke-width:12;stroke-miterlimit:10;}
	.st2{fill:none;stroke:#fff;stroke-width:0;stroke-miterlimit:10;}
</style>
<g>
	<path class="st0" d="M479.97,299.47h-34.42V77.11h34.42V299.47z"/>
	<path class="st0" d="M750.06,217.83c0-51.14,29.53-87.29,76.87-87.29c38.43,0,73.07,23.78,73.07,81.86v14.01H782.85
		c2.61,30.84,18.78,47.99,46.15,47.99c20.3,0,32.46-9.66,38-24.65l30.84,8.47c-6.95,24-30.4,44.62-68.73,44.62
		C780.13,302.84,750.06,269.51,750.06,217.83z M783.61,201.11h83.82c0-24.21-15.42-42.24-40.61-42.24
		C804.02,158.87,788.06,174.29,783.61,201.11z"/>
	<path class="st0" d="M657.98,77.27v-12.3l-33.43,19.28v72.12h-1.72c-5.68-9.87-17.4-25.82-45.1-25.82
		c-39.29,0-68.94,31.5-68.94,85.88c0,54.19,29.1,86.19,68.6,86.19c27.49,0,39.76-15.74,45.44-25.92h2.48v22.77H658V77.24
		L657.98,77.27z M624.55,237.09c-4.72,22.49-17.82,37.31-39.97,37.31c-28.66,0-43.41-24.75-43.41-58.31
		c0-33.19,14.43-57.24,43.41-57.24c22.2,0,35.25,14.33,39.97,36.45c1.35,6.33,2.03,13.34,2.03,20.79
		C626.58,223.59,625.9,230.65,624.55,237.09z"/>
	<polygon class="st0" points="723.61,77.32 723.61,287.55 690.18,306.83 690.18,77.32 	"/>
</g>
<g>
	<g>
		<polygon class="st1" points="134.05,0 134.05,310.02 0.84,310.02 0,309.54 0,77.39 5.11,74.43 		"/>
		<polygon class="st1" points="176.98,387 176.98,76.98 310.18,76.98 311.02,77.46 311.02,309.61 305.91,312.57 		"/>
	</g>
	<line class="st2" x1="134.05" y1="0" x2="177.37" y2="78.3"/>
	<line class="st2" x1="134.05" y1="304.8" x2="176.98" y2="386.21"/>
	<line class="st2" x1="134.05" y1="0" x2="311.02" y2="77.46"/>
	<line class="st2" x1="0.84" y1="310.02" x2="176.98" y2="387"/>
</g>
</svg>
