<?xml version="1.0" encoding="UTF-8"?>
<svg width="90px" height="87px" viewBox="0 0 90 87" version="1.1" xmlns="http://www.w3.org/2000/svg" xmlns:xlink="http://www.w3.org/1999/xlink">
    <!-- Generator: Sketch 55.2 (78181) - https://sketchapp.com -->
    <title>iconfinder_interest_rates_piggy_bank_interests_money_3631771</title>
    <desc>Created with Sketch.</desc>
    <g id="page" stroke="none" stroke-width="1" fill="none" fill-rule="evenodd">
        <g id="Homepage_V01_defaul-Copy" transform="translate(-1163.000000, -2672.000000)">
            <g id="iconfinder_interest_rates_piggy_bank_interests_money_3631771" transform="translate(1163.000000, 2672.000000)">
                <path d="M0.00486507892,51.4404762 L7.53600724,50.922619 C7.53600724,50.922619 8.93714997,49.0238095 10.8637212,45.3988095 C11.0388641,45.0535714 11.2140069,44.7083333 11.5642926,44.3630952 C8.2365786,41.9464286 5.95972167,37.9761905 5.95972167,33.4880952 L21.5474345,33.4880952 C23.4740058,33.4880952 25.2254342,34.6964286 26.1011484,36.25 C32.4062907,31.7619048 41.1634327,29 50.6211461,29 C77.0677151,29 86,40.9107143 86,54.0297619 C86,56.7916667 85.2994286,59.3809524 83.8982859,61.9702381 L84.0734287,61.9702381 C81.9717147,66.8035714 73.3897154,87 73.3897154,87 L62.5308593,87 L61.4800023,76.8154762 C58.502574,77.3333333 53.7737173,77.6785714 50.6211461,77.6785714 C48.3442892,77.6785714 44.140861,77.5059524 42.0391469,77.1607143 L37.8357187,87 L26.6265769,87 L26.6265769,74.9166667 C26.6265769,73.0178571 25.0502913,71.4642857 23.1237201,71.4642857 L18.7451491,71.4642857 C10.3382927,71.4642857 3.33257906,63.8690476 1.58115065,61.625 C-0.170277762,59.3809524 0.00486507892,51.4404762 0.00486507892,51.4404762 Z" id="Path" fill="#56AAFF" fill-rule="nonzero"></path>
                <circle id="Oval" fill="#FEFEFE" fill-rule="nonzero" cx="17.5" cy="50.5" r="1.5"></circle>
                <path d="M42,35.5 C44.9824561,34.7 48.1403509,34.5 51.2982456,34.5 C55.3333333,34.5 58.8421053,34.9 62,35.3" id="Path" stroke="#FFFFFF" stroke-width="2" stroke-linecap="round" stroke-linejoin="round"></path>
                <path d="M52.0845088,17 C46.5206419,17 42,21.6168224 42,27.2990654 C42,31.0280374 43.9125793,34.2242991 46.6945127,36 C48.2593503,35.8224299 49.650317,35.8224299 51.2151546,35.8224299 C53.3016047,35.8224299 55.3880548,36 57.3006341,36 C60.0825676,34.2242991 61.9951468,31.0280374 61.9951468,27.2990654 C62.1690177,21.6168224 57.6483758,17 52.0845088,17 Z" id="Path" fill="#F7B14A" fill-rule="nonzero"></path>
                <path d="M83,31 C85.7419355,31 88,33.483871 88,36.5 C88,39.516129 85.7419355,42 83,42" id="Path" stroke="#56AAFF" stroke-width="3" stroke-linecap="round" stroke-linejoin="round"></path>
                <g id="Group" transform="translate(40.000000, 46.000000)" stroke="#FFFFFF" stroke-width="2">
                    <circle id="Oval" cx="4.13076923" cy="4.30769231" r="3.89230769"></circle>
                    <circle id="Oval" cx="16.8692308" cy="16.8692308" r="3.89230769"></circle>
                    <path d="M18.6384615,2.53846154 L2.36153846,18.8153846" id="Path"></path>
                </g>
                <circle id="Oval" fill="#F7B14A" fill-rule="nonzero" cx="60" cy="7" r="7"></circle>
            </g>
        </g>
    </g>
</svg>