<?xml version="1.0" encoding="UTF-8"?>
<svg width="120px" height="147px" viewBox="0 0 120 147" version="1.1" xmlns="http://www.w3.org/2000/svg" xmlns:xlink="http://www.w3.org/1999/xlink">
    <!-- Generator: Sketch 55.2 (78181) - https://sketchapp.com -->
    <title>iconfinder_credit_card_invoice_payment_tax_3631664 copy</title>
    <desc>Created with Sketch.</desc>
    <g id="page" stroke="none" stroke-width="1" fill="none" fill-rule="evenodd">
        <g id="Homepage_V01_defaul-Copy" transform="translate(-840.000000, -2500.000000)">
            <g id="iconfinder_credit_card_invoice_payment_tax_3631664-copy" transform="translate(840.000000, 2500.000000)">
                <path d="M88.3333333,2 L118.333333,32 L93.3333333,39.6666667 C93.3333333,39.6666667 83,25 83,24.3333333 C83,23.6666667 88.3333333,2 88.3333333,2 Z" id="Path" fill="#D9DCE1" fill-rule="nonzero"></path>
                <path d="M96.6666667,46.6666667 L76.6666667,46.6666667 C73,46.6666667 70,43.6666667 70,40 L70,20 C70,16.3333333 67,13.3333333 63.3333333,13.3333333 L6.66666667,13.3333333 C3,13.3333333 0,16.3333333 0,20 L0,140 C0,143.666667 3,146.666667 6.66666667,146.666667 L96.6666667,146.666667 C100.333333,146.666667 103.333333,143.666667 103.333333,140 L103.333333,53.3333333 C103.333333,49.6666667 100.333333,46.6666667 96.6666667,46.6666667 Z" id="Path" fill="#D9DCE1" fill-rule="nonzero"></path>
                <path d="M113.333333,30 L96.6666667,30 C93,30 90,27 90,23.3333333 L90,6.66666667 C90,3 87,0 83.3333333,0 L23.3333333,0 C19.6666667,0 16.6666667,3 16.6666667,6.66666667 L16.6666667,126.666667 C16.6666667,130.333333 19.6666667,133.333333 23.3333333,133.333333 L113.333333,133.333333 C117,133.333333 120,130.333333 120,126.666667 L120,36.6666667 C120,33 117,30 113.333333,30 Z" id="Path" fill="#56AAFF" fill-rule="nonzero"></path>
                <path d="M36.6666667,100 L93.3333333,100" id="Path" stroke="#FFFFFF" stroke-width="2"></path>
                <path d="M36.6666667,83.3333333 L93.3333333,83.3333333" id="Path" stroke="#FFFFFF" stroke-width="2"></path>
                <path d="M50.3333333,62.3333333 L50.3333333,67.3333333 L45.6666667,67.3333333 L45.6666667,62.3333333 C42.3333333,61.6666667 39.3333333,60.3333333 36.3333333,57.6666667 L40,53.3333333 C42.6666667,55.6666667 45.6666667,57 48,57 C50.3333333,57 51.6666667,56 51.6666667,54 C51.6666667,52 50.3333333,51 46.3333333,50 C41.3333333,48.3333333 36.6666667,46.6666667 36.6666667,41 C36.6666667,36.3333333 39.6666667,32.6666667 45,32.3333333 L45,26.6666667 L49.6666667,26.6666667 L49.6666667,32.3333333 C52.3333333,33 55.3333333,34.3333333 57.3333333,36 L53.6666667,40.6666667 C51,39 48.6666667,38 46.6666667,38 C44.3333333,38 43,39 43,40.6666667 C43,42.3333333 44.6666667,43.3333333 48,44.3333333 C54,46 58,47.6666667 58,53.6666667 C58.6666667,58.3333333 55.3333333,61.6666667 50.3333333,62.3333333 Z" id="Path" fill="#FFFFFF" fill-rule="nonzero"></path>
            </g>
        </g>
    </g>
</svg>