<?xml version="1.0" encoding="utf-8"?>

<svg id="Layer_1" data-name="Layer 1" xmlns="http://www.w3.org/2000/svg" xmlns:xlink="http://www.w3.org/1999/xlink" viewBox="0 0 89.99 89.99"><defs><style>.cls-1{fill:url(#Безымянный_градиент_3);}.cls-2{fill:#fff;}.cls-3{fill:url(#Безымянный_градиент_3-2);}</style><linearGradient id="Безымянный_градиент_3" x1="18.87" y1="1.12" x2="69.87" y2="69.12" gradientUnits="userSpaceOnUse"><stop offset="0.02" stop-color="#9b23ea"/><stop offset="1" stop-color="#40119e"/></linearGradient><linearGradient id="Безымянный_градиент_3-2" x1="19.75" y1="0.46" x2="70.75" y2="68.46" xlink:href="#Безымянный_градиент_3"/></defs><title>token</title><path class="cls-1" d="M79.59,7.21c-1-.46-2.07-.94-3.23-1.43l-.12,0C70.28,3.24,62.9.65,50.06.11,48.46,0,46.78,0,45,0S41.7,0,40.16.1C27.1.64,19.66,3.33,13.63,5.88h0c-1.16.49-2.24,1-3.22,1.44-1.24.58-2.32,1.13-3.23,1.61V63.08l3.23,2.3,3.22,2.29h0l19,13.55,7.5,5.33L45,90l5.07-3.59,7.29-5.17,18.89-13.4.12-.09,3.23-2.3,3.23-2.3V8.81C81.9,8.33,80.82,7.79,79.59,7.21Z"/><path class="cls-2" d="M66.34,57.22l-10,6.91c0-4.84,0-14.7,0-14.7H33.6v14.7l-9.77-6.91V21.28l9.29-1.77a63.9,63.9,0,0,1,7-.93c1.61-.12,3.22-.2,4.83-.2s3.38.08,5.07.21a64,64,0,0,1,7,.93l9.23,1.77V57.22Z"/><path class="cls-3" d="M50.06,28.18C48.37,28,46.69,28,45,28s-3.22.07-4.83.19c-2.1.16-4.2.41-6.29.78l-.27,0V39.21H56.36V29h0C54.26,28.61,52.16,28.35,50.06,28.18Z"/></svg>
