<svg xmlns="http://www.w3.org/2000/svg" width="122" height="122"><defs><linearGradient id="linear-gradient" x1=".843" x2=".206" y1=".135" y2=".886" gradientUnits="objectBoundingBox"><stop offset="0" stop-color="#b6509e"/><stop offset="1" stop-color="#2ebac6"/></linearGradient><linearGradient id="linear-gradient-2" x1=".5" x2=".5" y1="1.142" y2="-.105" gradientUnits="objectBoundingBox"><stop offset="0" stop-color="#f9a606"/><stop offset="1" stop-color="#fbcc5f"/></linearGradient><filter id="Ellipse_1344" width="122" height="122" x="0" y="0" filterUnits="userSpaceOnUse"><feOffset dx="2" dy="2"/><feGaussianBlur result="blur" stdDeviation="2"/><feFlood flood-opacity=".161"/><feComposite in2="blur" operator="in"/><feComposite in="SourceGraphic"/></filter><style>.cls-1{fill:#fff}</style></defs><g id="Group_17925" data-name="Group 17925" transform="translate(-968 -140)"><g transform="translate(968 140)" filter="url(#Ellipse_1344)"><circle id="Ellipse_1344-2" cx="55" cy="55" r="55" class="cls-1" data-name="Ellipse 1344" transform="translate(4 4)"/></g><g id="Group_17823" data-name="Group 17823" transform="translate(974 146)"><path id="Subtraction_108" d="M53 106a53.408 53.408 0 01-10.681-1.077 52.71 52.71 0 01-18.951-7.975A53.153 53.153 0 014.165 73.63a52.729 52.729 0 01-3.088-9.949 53.517 53.517 0 010-21.363 52.714 52.714 0 017.975-18.951A53.158 53.158 0 0132.37 4.165a52.75 52.75 0 019.949-3.088 53.514 53.514 0 0121.363 0 52.7 52.7 0 0118.951 7.975 53.152 53.152 0 0119.2 23.318 52.732 52.732 0 013.088 9.949 53.517 53.517 0 010 21.363 52.708 52.708 0 01-7.975 18.952 53.158 53.158 0 01-23.318 19.2 52.76 52.76 0 01-9.949 3.088A53.408 53.408 0 0153 106zM53 5.679a47.674 47.674 0 00-9.537.961 47.065 47.065 0 00-16.921 7.12A47.46 47.46 0 009.4 34.58a47.086 47.086 0 00-2.76 8.883 47.782 47.782 0 000 19.074 47.066 47.066 0 007.12 16.921A47.462 47.462 0 0034.58 96.6a47.105 47.105 0 008.883 2.757 47.783 47.783 0 0019.074 0 47.046 47.046 0 0016.921-7.12A47.458 47.458 0 0096.6 71.42a47.093 47.093 0 002.757-8.883 47.783 47.783 0 000-19.074 47.063 47.063 0 00-7.12-16.921A47.458 47.458 0 0071.42 9.4a47.074 47.074 0 00-8.883-2.76A47.674 47.674 0 0053 5.679z" data-name="Subtraction 108" fill="url(#linear-gradient)"/><g id="Badge_Dai" transform="translate(12.304 12.304)"><circle id="Ellipse_1272" cx="40.696" cy="40.696" r="40.696" data-name="Ellipse 1272" fill="url(#linear-gradient-2)"/><path id="Path_7539" d="M191.456 171.24h-4.829c-2.659-7.38-9.808-12.44-19.236-12.44h-15.506v12.44H146.5v4.46h5.385v4.68H146.5v4.463h5.385v12.29h15.505c9.319 0 16.414-5.019 19.141-12.29h4.924v-4.463h-3.839a20.249 20.249 0 00.149-2.415v-.109c0-.733-.041-1.451-.109-2.157h3.812v-4.459zm-35.229-8.465h11.164c6.918 0 12.06 3.4 14.434 8.451h-25.6zm11.164 30.346h-11.165v-8.288H181.8c-2.39 4.967-7.518 8.288-14.409 8.288zm15.885-15.058a16.048 16.048 0 01-.163 2.306h-26.887v-4.68h26.9a17.646 17.646 0 01.149 2.265z" class="cls-1" data-name="Path 7539" transform="translate(-126.627 -137.258)"/></g></g></g></svg>
