<svg xmlns="http://www.w3.org/2000/svg" width="122" height="122"><defs><linearGradient id="linear-gradient" x1=".843" x2=".206" y1=".135" y2=".886" gradientUnits="objectBoundingBox"><stop offset="0" stop-color="#b6509e"/><stop offset="1" stop-color="#2ebac6"/></linearGradient><filter id="Ellipse_1353" width="122" height="122" x="0" y="0" filterUnits="userSpaceOnUse"><feOffset dx="2" dy="2"/><feGaussianBlur result="blur" stdDeviation="2"/><feFlood flood-opacity=".161"/><feComposite in2="blur" operator="in"/><feComposite in="SourceGraphic"/></filter><style>.cls-1,.cls-4{fill:#fff}.cls-4{fill-rule:evenodd}</style></defs><g id="Group_17921" data-name="Group 17921" transform="translate(-638 -473)"><g id="Group_17914" data-name="Group 17914"><g transform="translate(638 473)" filter="url(#Ellipse_1353)"><circle id="Ellipse_1353-2" cx="55" cy="55" r="55" class="cls-1" data-name="Ellipse 1353" transform="translate(4 4)"/></g><g id="Group_17831" data-name="Group 17831" transform="translate(624 459)"><path id="Subtraction_108" d="M53 106a53.407 53.407 0 01-10.681-1.077 52.714 52.714 0 01-18.951-7.975A53.154 53.154 0 014.165 73.63a52.733 52.733 0 01-3.088-9.949 53.517 53.517 0 010-21.363 52.715 52.715 0 017.975-18.951A53.155 53.155 0 0132.37 4.165a52.738 52.738 0 019.949-3.088 53.517 53.517 0 0121.363 0 52.709 52.709 0 0118.951 7.975 53.152 53.152 0 0119.2 23.319 52.725 52.725 0 013.088 9.948 53.517 53.517 0 010 21.363 52.71 52.71 0 01-7.975 18.952 53.155 53.155 0 01-23.318 19.2 52.741 52.741 0 01-9.949 3.088A53.407 53.407 0 0153 106zM53 5.679a47.674 47.674 0 00-9.537.961 47.064 47.064 0 00-16.921 7.12A47.46 47.46 0 009.4 34.58a47.081 47.081 0 00-2.76 8.883 47.783 47.783 0 000 19.074 47.062 47.062 0 007.12 16.921A47.461 47.461 0 0034.58 96.6a47.1 47.1 0 008.883 2.757 47.772 47.772 0 0019.074 0 47.043 47.043 0 0016.921-7.12A47.461 47.461 0 0096.6 71.42a47.1 47.1 0 002.757-8.883 47.783 47.783 0 000-19.074 47.062 47.062 0 00-7.12-16.921A47.459 47.459 0 0071.42 9.4a47.062 47.062 0 00-8.883-2.76A47.674 47.674 0 0053 5.679z" data-name="Subtraction 108" transform="translate(20 20)" fill="url(#linear-gradient)"/><g id="Page-1" transform="translate(32.304 32.682)"><g id="Home-Page-Variant"><g id="sUSD_blue"><ellipse id="Oval-Copy" cx="40.696" cy="40.249" rx="40.696" ry="40.249" fill="#1e1a31"/><g id="Group-19" transform="translate(20.736 23.381)"><g id="Group-Copy"><g id="Group-6"><g id="Group-5"><g id="Group-4"><path id="Rectangle-2" d="M14.577 14.842a2 2 0 010 4H9.452A9.051 9.051 0 01.464 9.734 9.051 9.051 0 019.452.621H22.67a1.988 1.988 0 011.974 2 1.988 1.988 0 01-1.974 2H9.452a5.109 5.109 0 000 10.218z" class="cls-4" transform="translate(-.464 -.621)"/><path id="Rectangle-2-Copy" d="M14.113 14.221a2 2 0 010 4H8.988A9.051 9.051 0 010 9.113 9.051 9.051 0 018.988 0h13.218a1.988 1.988 0 011.974 2 1.988 1.988 0 01-1.974 2H8.988a5.109 5.109 0 000 10.218z" class="cls-4" transform="rotate(180 12.09 16.224)"/><path id="Path-3" d="M3.913 32.065L.7 29.733 20.893 1.167 24.1 3.5z" transform="translate(-.379 -.426)" fill="rgba(255,255,255,.5)" fill-rule="evenodd"/></g></g></g></g><g id="USD" transform="rotate(-90 29.102 1.836)"><g id="Group_17807" data-name="Group 17807"><path id="Path_8760" d="M2.332.095V6.5a3.317 3.317 0 00.513 2.018 1.9 1.9 0 001.617.678 1.919 1.919 0 001.625-.678A3.28 3.28 0 006.609 6.5V.095h2.332v6.274A5.159 5.159 0 017.8 9.98a4.3 4.3 0 01-3.335 1.245 4.276 4.276 0 01-3.33-1.245A5.182 5.182 0 010 6.369V.095zM12.58 7.536a1.815 1.815 0 00.661 1.316 2.417 2.417 0 001.594.5 2.343 2.343 0 001.345-.355 1.127 1.127 0 00.521-.985.9.9 0 00-.288-.7A2.026 2.026 0 0015.6 6.9q-.521-.15-1.609-.37a8.4 8.4 0 01-1.8-.53A2.862 2.862 0 0111 5.037a2.844 2.844 0 01-.459-1.695 2.959 2.959 0 01.521-1.718A3.524 3.524 0 0112.51.434 4.872 4.872 0 0114.6 0a5 5 0 012.154.449 3.734 3.734 0 011.508 1.238 3.12 3.12 0 01.568 1.782h-2.285a1.676 1.676 0 00-.591-1.143 2.026 2.026 0 00-1.354-.434 2.108 2.108 0 00-1.244.331 1.09 1.09 0 00-.466.946.862.862 0 00.28.686 2.086 2.086 0 00.793.394q.513.15 1.586.355a9.48 9.48 0 011.835.512 2.777 2.777 0 011.205.93 2.742 2.742 0 01.459 1.663 3.124 3.124 0 01-.548 1.806 3.689 3.689 0 01-1.516 1.253 5.071 5.071 0 01-2.185.457 5.383 5.383 0 01-2.325-.481 3.864 3.864 0 01-1.594-1.332 3.424 3.424 0 01-.586-1.912zM20.448.095h3.779a5.8 5.8 0 012.885.7 4.829 4.829 0 011.928 1.956 5.929 5.929 0 01.676 2.861 5.929 5.929 0 01-.676 2.861 4.829 4.829 0 01-1.928 1.955 5.8 5.8 0 01-2.885.7h-3.779zm3.779 9.065a2.834 2.834 0 002.294-.97 3.87 3.87 0 00.816-2.578 3.87 3.87 0 00-.816-2.578 2.834 2.834 0 00-2.294-.97h-1.446V9.16z" data-name="Path 8760"/><path id="Path_8761" d="M2.332.095V6.5a3.317 3.317 0 00.513 2.018 1.9 1.9 0 001.617.678 1.919 1.919 0 001.625-.678A3.28 3.28 0 006.609 6.5V.095h2.332v6.274A5.159 5.159 0 017.8 9.98a4.3 4.3 0 01-3.335 1.245 4.276 4.276 0 01-3.33-1.245A5.182 5.182 0 010 6.369V.095zM12.58 7.536a1.815 1.815 0 00.661 1.316 2.417 2.417 0 001.594.5 2.343 2.343 0 001.345-.355 1.127 1.127 0 00.521-.985.9.9 0 00-.288-.7A2.026 2.026 0 0015.6 6.9q-.521-.15-1.609-.37a8.4 8.4 0 01-1.8-.53A2.862 2.862 0 0111 5.037a2.844 2.844 0 01-.459-1.695 2.959 2.959 0 01.521-1.718A3.524 3.524 0 0112.51.434 4.872 4.872 0 0114.6 0a5 5 0 012.154.449 3.734 3.734 0 011.508 1.238 3.12 3.12 0 01.568 1.782h-2.285a1.676 1.676 0 00-.591-1.143 2.026 2.026 0 00-1.354-.434 2.108 2.108 0 00-1.244.331 1.09 1.09 0 00-.466.946.862.862 0 00.28.686 2.086 2.086 0 00.793.394q.513.15 1.586.355a9.48 9.48 0 011.835.512 2.777 2.777 0 011.205.93 2.742 2.742 0 01.459 1.663 3.124 3.124 0 01-.548 1.806 3.689 3.689 0 01-1.516 1.253 5.071 5.071 0 01-2.185.457 5.383 5.383 0 01-2.325-.481 3.864 3.864 0 01-1.594-1.332 3.424 3.424 0 01-.586-1.912zM20.448.095h3.779a5.8 5.8 0 012.885.7 4.829 4.829 0 011.928 1.956 5.929 5.929 0 01.676 2.861 5.929 5.929 0 01-.676 2.861 4.829 4.829 0 01-1.928 1.955 5.8 5.8 0 01-2.885.7h-3.779zm3.779 9.065a2.834 2.834 0 002.294-.97 3.87 3.87 0 00.816-2.578 3.87 3.87 0 00-.816-2.578 2.834 2.834 0 00-2.294-.97h-1.446V9.16z" class="cls-1" data-name="Path 8761"/></g></g></g></g></g></g></g></g></g></svg>
