<svg xmlns="http://www.w3.org/2000/svg" width="122" height="122"><defs><linearGradient id="linear-gradient" x1=".843" x2=".206" y1=".135" y2=".886" gradientUnits="objectBoundingBox"><stop offset="0" stop-color="#b6509e"/><stop offset="1" stop-color="#2ebac6"/></linearGradient><filter id="Ellipse_1340" width="122" height="122" x="0" y="0" filterUnits="userSpaceOnUse"><feOffset dx="2" dy="2"/><feGaussianBlur result="blur" stdDeviation="2"/><feFlood flood-opacity=".161"/><feComposite in2="blur" operator="in"/><feComposite in="SourceGraphic"/></filter><style>.cls-1{fill:#fff}.cls-3{fill:#002868}</style></defs><g id="Group_17928" data-name="Group 17928" transform="translate(-1136 -308)"><g id="Group_17913" data-name="Group 17913"><g transform="translate(1136 308)" filter="url(#Ellipse_1340)"><circle id="Ellipse_1340-2" cx="55" cy="55" r="55" class="cls-1" data-name="Ellipse 1340" transform="translate(4 4)"/></g><g id="Group_17846" data-name="Group 17846" transform="translate(1122 294)"><path id="Subtraction_108" d="M53 106a53.407 53.407 0 01-10.681-1.077 52.714 52.714 0 01-18.951-7.975A53.154 53.154 0 014.165 73.63a52.733 52.733 0 01-3.088-9.949 53.517 53.517 0 010-21.363 52.715 52.715 0 017.975-18.951A53.155 53.155 0 0132.37 4.165a52.738 52.738 0 019.949-3.088 53.517 53.517 0 0121.363 0 52.709 52.709 0 0118.951 7.975 53.152 53.152 0 0119.2 23.319 52.725 52.725 0 013.088 9.948 53.517 53.517 0 010 21.363 52.71 52.71 0 01-7.975 18.952 53.155 53.155 0 01-23.318 19.2 52.741 52.741 0 01-9.949 3.088A53.407 53.407 0 0153 106zM53 5.679a47.674 47.674 0 00-9.537.961 47.064 47.064 0 00-16.921 7.12A47.46 47.46 0 009.4 34.58a47.081 47.081 0 00-2.76 8.883 47.783 47.783 0 000 19.074 47.062 47.062 0 007.12 16.921A47.461 47.461 0 0034.58 96.6a47.1 47.1 0 008.883 2.757 47.772 47.772 0 0019.074 0 47.043 47.043 0 0016.921-7.12A47.461 47.461 0 0096.6 71.42a47.1 47.1 0 002.757-8.883 47.783 47.783 0 000-19.074 47.062 47.062 0 00-7.12-16.921A47.459 47.459 0 0071.42 9.4a47.062 47.062 0 00-8.883-2.76A47.674 47.674 0 0053 5.679z" data-name="Subtraction 108" transform="translate(20 20)" fill="url(#linear-gradient)"/><g id="TUSD" transform="translate(32.304 32.304)"><path id="Coin_BG" d="M40.7 81.393A40.816 40.816 0 010 40.7 40.816 40.816 0 0140.7 0a40.816 40.816 0 0140.7 40.7 40.816 40.816 0 01-40.7 40.693z" class="cls-3"/><path id="BG_1_" d="M144.929 148.836h-41.022a3.918 3.918 0 01-3.907-3.907v-41.022a3.918 3.918 0 013.907-3.907h41.022a3.918 3.918 0 013.907 3.907v41.022a3.918 3.918 0 01-3.907 3.907z" class="cls-1" transform="translate(-83.721 -83.721)"/><g id="Group_16611" data-name="Group 16611" transform="translate(22.78 51.295)"><path id="Path_7584" d="M142.968 324.54a.244.244 0 01-.233-.246v-6.562a.244.244 0 00-.233-.246h-2.316a.243.243 0 01-.246-.233v-1.268a.256.256 0 01.246-.246h7.13a.254.254 0 01.246.246v1.268a.244.244 0 01-.246.233h-2.3a.254.254 0 00-.246.246v6.562a.244.244 0 01-.233.246z" class="cls-3" data-name="Path 7584" transform="translate(-139.94 -315.637)"/><path id="Path_7585" d="M201.127 315.986a.244.244 0 01.233-.246h1.553a.254.254 0 01.246.246v4.478c0 2.653-1.5 4.193-3.882 4.193s-3.856-1.54-3.856-4.193v-4.478a.244.244 0 01.233-.246h1.553a.254.254 0 01.246.246v4.542c0 1.307.672 2.238 1.838 2.238s1.838-.931 1.838-2.238v-4.542z" class="cls-3" data-name="Path 7585" transform="translate(-186.389 -315.637)"/><path id="Path_7586" d="M257.462 318.086a.332.332 0 01-.35-.233 1.773 1.773 0 00-1.773-1.035c-.816 0-1.5.285-1.5.829 0 .6.635.842 2.032 1.009 2.123.246 3.339.894 3.339 2.575 0 1.89-1.657 2.886-3.778 2.886-1.838 0-3.417-.894-3.663-2.769-.026-.181.065-.246.246-.246h1.424a.32.32 0 01.337.22 1.771 1.771 0 001.812 1.1c.842 0 1.579-.311 1.579-.97 0-.789-.776-.931-2.329-1.126-1.786-.233-3.028-.75-3.028-2.395s1.411-2.821 3.624-2.821a3.4 3.4 0 013.663 2.679c.039.181-.013.3-.207.3h-1.426z" class="cls-3" data-name="Path 7586" transform="translate(-233.56 -315.11)"/><path id="Path_7587" d="M307.113 324.54a.244.244 0 01-.233-.246v-8.309a.244.244 0 01.233-.246h3.519a4.407 4.407 0 110 8.8zm3.519-1.748a2.657 2.657 0 00-.013-5.307h-1.462a.243.243 0 00-.233.246v4.827a.233.233 0 00.233.233h1.475z" class="cls-3" data-name="Path 7587" transform="translate(-279.705 -315.637)"/></g><path id="BG" d="M150.882 133.627h-46.231a.653.653 0 01-.651-.651v-25.72a3.265 3.265 0 013.256-3.256h41.022a3.265 3.265 0 013.256 3.256v25.72a.653.653 0 01-.652.651z" class="cls-3" transform="translate(-87.07 -87.07)"/><path id="_x7C_" d="M240.451 156.443h-4.232a.49.49 0 01-.488-.488v-17.907a.49.49 0 01.488-.488h4.232a.49.49 0 01.488.488v17.906a.49.49 0 01-.488.489z" class="cls-1" transform="translate(-197.357 -115.167)"/><path id="_x2014_" d="M207.7 142.769h-19.212a.49.49 0 01-.488-.488v-4.232a.49.49 0 01.488-.488H207.7a.49.49 0 01.488.488v4.232a.49.49 0 01-.488.488z" class="cls-1" transform="translate(-157.396 -115.167)"/></g></g></g></g></svg>
