<svg xmlns="http://www.w3.org/2000/svg" width="122" height="122">
    <defs>
        <linearGradient id="linear-gradient" x1=".843" x2=".206" y1=".135" y2=".886" gradientUnits="objectBoundingBox">
            <stop offset="0" stop-color="#b6509e" />
            <stop offset="1" stop-color="#2ebac6" />
        </linearGradient>
        <filter id="Ellipse_1346" width="122" height="122" x="0" y="0" filterUnits="userSpaceOnUse">
            <feOffset dx="2" dy="2" />
            <feGaussianBlur result="blur" stdDeviation="2" />
            <feFlood flood-opacity=".161" />
            <feComposite in2="blur" operator="in" />
            <feComposite in="SourceGraphic" />
        </filter>
        <style>.cls-1{fill:#fff}</style>
    </defs>
    <g id="Group_17918" data-name="Group 17918" transform="translate(-968 -641)">
        <g transform="translate(968 641)" filter="url(#Ellipse_1346)">
            <circle id="Ellipse_1346-2" cx="55" cy="55" r="55" class="cls-1" data-name="Ellipse 1346" transform="translate(4 4)" />
        </g>
        <g id="Group_17821" data-name="Group 17821" transform="translate(974 647)">
            <path id="Subtraction_108" d="M53 106a53.408 53.408 0 01-10.681-1.077 52.71 52.71 0 01-18.951-7.975A53.153 53.153 0 014.165 73.63a52.729 52.729 0 01-3.088-9.949 53.517 53.517 0 010-21.363 52.714 52.714 0 017.975-18.951A53.158 53.158 0 0132.37 4.165a52.75 52.75 0 019.949-3.088 53.514 53.514 0 0121.363 0 52.7 52.7 0 0118.951 7.975 53.152 53.152 0 0119.2 23.318 52.732 52.732 0 013.088 9.949 53.517 53.517 0 010 21.363 52.708 52.708 0 01-7.975 18.952 53.158 53.158 0 01-23.318 19.2 52.76 52.76 0 01-9.949 3.088A53.408 53.408 0 0153 106zM53 5.679a47.674 47.674 0 00-9.537.961 47.065 47.065 0 00-16.921 7.12A47.46 47.46 0 009.4 34.58a47.086 47.086 0 00-2.76 8.883 47.782 47.782 0 000 19.074 47.066 47.066 0 007.12 16.921A47.462 47.462 0 0034.58 96.6a47.105 47.105 0 008.883 2.757 47.783 47.783 0 0019.074 0 47.046 47.046 0 0016.921-7.12A47.458 47.458 0 0096.6 71.42a47.093 47.093 0 002.757-8.883 47.783 47.783 0 000-19.074 47.063 47.063 0 00-7.12-16.921A47.458 47.458 0 0071.42 9.4a47.074 47.074 0 00-8.883-2.76A47.674 47.674 0 0053 5.679z" data-name="Subtraction 108" fill="url(#linear-gradient)" />
            <g id="tether-seeklogo.com" transform="translate(12.304 12.304)">
                <path id="Path_7582" d="M40.7 0A40.7 40.7 0 110 40.7 40.7 40.7 0 0140.7 0" data-name="Path 7582" fill="#53ae94" />
                <path id="Path_7583" d="M422.821 506.618v-6.054h13.844v-9.224h-37.7v9.224h13.846v6.049c-11.253.517-19.713 2.746-19.713 5.415s8.465 4.9 19.713 5.418v19.392h10.011v-19.393c11.232-.518 19.676-2.745 19.676-5.413s-8.444-4.894-19.676-5.413m0 9.183c-.282.018-1.733.105-4.965.105-2.583 0-4.4-.073-5.041-.107v.008c-9.941-.44-17.362-2.172-17.362-4.243s7.422-3.8 17.362-4.241v6.76a76.69 76.69 0 005.084.155c3.087 0 4.639-.128 4.924-.155v-6.76c9.922.442 17.325 2.175 17.325 4.239s-7.407 3.8-17.325 4.24" class="cls-1" data-name="Path 7583" transform="translate(-377.102 -471.344)" />
            </g>
        </g>
    </g>
</svg>