<svg xmlns="http://www.w3.org/2000/svg" width="122" height="122"><defs><linearGradient id="linear-gradient" x1=".843" x2=".206" y1=".135" y2=".886" gradientUnits="objectBoundingBox"><stop offset="0" stop-color="#b6509e"/><stop offset="1" stop-color="#2ebac6"/></linearGradient><filter id="Ellipse_1345" width="122" height="122" x="0" y="0" filterUnits="userSpaceOnUse"><feOffset dx="2" dy="2"/><feGaussianBlur result="blur" stdDeviation="2"/><feFlood flood-opacity=".161"/><feComposite in2="blur" operator="in"/><feComposite in="SourceGraphic"/></filter><style>.cls-1{fill:#fff}</style></defs><g id="Group_17931" data-name="Group 17931" transform="translate(-969 -474)"><g transform="translate(969 474)" filter="url(#Ellipse_1345)"><circle id="Ellipse_1345-2" cx="55" cy="55" r="55" class="cls-1" data-name="Ellipse 1345" transform="translate(4 4)"/></g><g id="Group_17822" data-name="Group 17822" transform="translate(975 480)"><path id="Subtraction_108" d="M53 106a53.408 53.408 0 01-10.681-1.077 52.71 52.71 0 01-18.951-7.975A53.153 53.153 0 014.165 73.63a52.729 52.729 0 01-3.088-9.949 53.517 53.517 0 010-21.363 52.714 52.714 0 017.975-18.951A53.158 53.158 0 0132.37 4.165a52.75 52.75 0 019.949-3.088 53.514 53.514 0 0121.363 0 52.7 52.7 0 0118.951 7.975 53.152 53.152 0 0119.2 23.318 52.732 52.732 0 013.088 9.949 53.517 53.517 0 010 21.363 52.708 52.708 0 01-7.975 18.952 53.158 53.158 0 01-23.318 19.2 52.76 52.76 0 01-9.949 3.088A53.408 53.408 0 0153 106zM53 5.679a47.674 47.674 0 00-9.537.961 47.065 47.065 0 00-16.921 7.12A47.46 47.46 0 009.4 34.58a47.086 47.086 0 00-2.76 8.883 47.782 47.782 0 000 19.074 47.066 47.066 0 007.12 16.921A47.462 47.462 0 0034.58 96.6a47.105 47.105 0 008.883 2.757 47.783 47.783 0 0019.074 0 47.046 47.046 0 0016.921-7.12A47.458 47.458 0 0096.6 71.42a47.093 47.093 0 002.757-8.883 47.783 47.783 0 000-19.074 47.063 47.063 0 00-7.12-16.921A47.458 47.458 0 0071.42 9.4a47.074 47.074 0 00-8.883-2.76A47.674 47.674 0 0053 5.679z" data-name="Subtraction 108" fill="url(#linear-gradient)"/><g id="USDC" transform="translate(12.304 12.304)"><path id="Path_7579" d="M40.7 81.393A40.7 40.7 0 100 40.7a40.6 40.6 0 0040.7 40.693z" data-name="Path 7579" fill="#2775ca"/><path id="Path_7580" d="M739.392 534.783c0-5.935-3.561-7.97-10.683-8.817-5.087-.678-6.1-2.035-6.1-4.409s1.7-3.9 5.087-3.9c3.052 0 4.748 1.017 5.6 3.561a1.275 1.275 0 001.187.848h2.713a1.159 1.159 0 001.187-1.187v-.17a8.471 8.471 0 00-7.63-6.952v-4.07c0-.678-.509-1.187-1.356-1.357h-2.544c-.678 0-1.187.509-1.357 1.357v3.9c-5.087.678-8.309 4.07-8.309 8.309 0 5.6 3.391 7.8 10.513 8.648 4.748.848 6.274 1.865 6.274 4.578s-2.374 4.578-5.6 4.578c-4.409 0-5.935-1.865-6.444-4.409a1.238 1.238 0 00-1.187-1.017h-2.883a1.159 1.159 0 00-1.187 1.187v.17c.678 4.239 3.391 7.291 8.987 8.139v4.069c0 .678.509 1.187 1.356 1.357h2.544c.678 0 1.187-.509 1.357-1.357v-4.069c5.083-.848 8.475-4.409 8.475-8.987z" class="cls-1" data-name="Path 7580" transform="translate(-687.505 -487.643)"/><path id="Path_7581" d="M269.923 344.744a25.374 25.374 0 010-47.648 1.7 1.7 0 001.017-1.7v-2.374a1.289 1.289 0 00-1.017-1.357 1.021 1.021 0 00-.678.169 30.514 30.514 0 000 58.162 1.031 1.031 0 001.526-.678c.169-.169.169-.339.169-.678v-2.374a2.259 2.259 0 00-1.017-1.522zm17.977-52.905a1.031 1.031 0 00-1.526.678c-.17.17-.17.339-.17.678v2.374a2.249 2.249 0 001.017 1.7 25.374 25.374 0 010 47.648 1.7 1.7 0 00-1.017 1.7v2.374a1.289 1.289 0 001.017 1.356 1.021 1.021 0 00.678-.169 30.645 30.645 0 000-58.332z" class="cls-1" data-name="Path 7581" transform="translate(-237.874 -279.8)"/></g></g></g></svg>
