<svg xmlns="http://www.w3.org/2000/svg" width="122" height="122"><defs><linearGradient id="linear-gradient" x1=".843" x2=".206" y1=".135" y2=".886" gradientUnits="objectBoundingBox"><stop offset="0" stop-color="#b6509e"/><stop offset="1" stop-color="#2ebac6"/></linearGradient><filter id="Ellipse_1349" width="122" height="122" x="0" y="0" filterUnits="userSpaceOnUse"><feOffset dx="2" dy="2"/><feGaussianBlur result="blur" stdDeviation="2"/><feFlood flood-opacity=".161"/><feComposite in2="blur" operator="in"/><feComposite in="SourceGraphic"/></filter><style>.cls-5{fill:#83808a}</style></defs><g id="Group_17916" data-name="Group 17916" transform="translate(-801 -474)"><g transform="translate(801 474)" filter="url(#Ellipse_1349)"><circle id="Ellipse_1349-2" cx="55" cy="55" r="55" data-name="Ellipse 1349" transform="translate(4 4)" fill="#fff"/></g><g id="Group_17844" data-name="Group 17844" transform="translate(787 460)"><path id="Subtraction_108" d="M53 106a53.407 53.407 0 01-10.681-1.077 52.714 52.714 0 01-18.951-7.975A53.154 53.154 0 014.165 73.63a52.733 52.733 0 01-3.088-9.949 53.517 53.517 0 010-21.363 52.715 52.715 0 017.975-18.951A53.155 53.155 0 0132.37 4.165a52.738 52.738 0 019.949-3.088 53.517 53.517 0 0121.363 0 52.709 52.709 0 0118.951 7.975 53.152 53.152 0 0119.2 23.319 52.725 52.725 0 013.088 9.948 53.517 53.517 0 010 21.363 52.71 52.71 0 01-7.975 18.952 53.155 53.155 0 01-23.318 19.2 52.741 52.741 0 01-9.949 3.088A53.407 53.407 0 0153 106zM53 5.679a47.674 47.674 0 00-9.537.961 47.064 47.064 0 00-16.921 7.12A47.46 47.46 0 009.4 34.58a47.081 47.081 0 00-2.76 8.883 47.783 47.783 0 000 19.074 47.062 47.062 0 007.12 16.921A47.461 47.461 0 0034.58 96.6a47.1 47.1 0 008.883 2.757 47.772 47.772 0 0019.074 0 47.043 47.043 0 0016.921-7.12A47.461 47.461 0 0096.6 71.42a47.1 47.1 0 002.757-8.883 47.783 47.783 0 000-19.074 47.062 47.062 0 00-7.12-16.921A47.459 47.459 0 0071.42 9.4a47.062 47.062 0 00-8.883-2.76A47.674 47.674 0 0053 5.679z" data-name="Subtraction 108" transform="translate(20 20)" fill="url(#linear-gradient)"/><g id="Group_17781" data-name="Group 17781" transform="translate(32.304 32.304)"><path id="Path_8743" d="M264-420.6a40.72 40.72 0 00-40.858 40.713 40.823 40.823 0 0040.713 40.679c22.181 0 40.524-18.255 40.7-40.166A40.783 40.783 0 00264-420.6zm-.336 78.115a37.514 37.514 0 01-37.24-37.464 37.424 37.424 0 0137.718-37.374 37.443 37.443 0 0137.135 37.96 37.533 37.533 0 01-37.615 36.877z" data-name="Path 8743" transform="translate(-223.139 420.602)" fill="#282138"/><path id="Path_8744" d="M328.86-103.541a34.805 34.805 0 01-22.788-8.577c-.584-.5-.678-.781-.074-1.361 1.619-1.556 1.59-1.587 3.333-.186a31.542 31.542 0 0040.292-.856c.547-.472.817-.478 1.321.036 1.726 1.764 1.75 1.745-.243 3.318a34.784 34.784 0 01-21.841 7.626z" data-name="Path 8744" transform="translate(-288.261 179.124)" fill="#82808a"/><path id="Path_8745" d="M537.084-315.455a30.578 30.578 0 00-7.686-19.553c-.471-.556-.486-.816.03-1.322 1.737-1.7 1.741-1.744 3.255.167a34.092 34.092 0 017.512 18.8 34.416 34.416 0 01-8.416 25.9c-.5.592-.777.68-1.357.078-1.55-1.609-1.562-1.565-.187-3.329 4.521-5.796 6.859-12.353 6.849-20.741z" class="cls-5" data-name="Path 8745" transform="translate(-464.755 355.045)"/><path id="Path_8746" d="M329.294-393.062a34.936 34.936 0 0123.007 8.507c.657.555.748.878.07 1.512-1.562 1.46-1.513 1.482-3.18.17a31.02 31.02 0 00-18.025-6.859 31.035 31.035 0 00-22.348 7.637c-.549.466-.824.481-1.329-.033-1.722-1.754-1.745-1.735.17-3.258a34.52 34.52 0 0121.635-7.676z" class="cls-5" data-name="Path 8746" transform="translate(-288.751 398.85)"/><path id="Path_8747" d="M250.823-315a34.719 34.719 0 018.478-22.628c.608-.72.945-.728 1.584-.041 1.4 1.5 1.439 1.467.185 3.043a31.025 31.025 0 00-6.985 20.509 30.741 30.741 0 007.562 19.768c.571.67.654 1.029-.038 1.674-1.63 1.521-1.593 1.564-2.977-.164A34.744 34.744 0 01250.823-315z" class="cls-5" data-name="Path 8747" transform="translate(-245.005 355.502)"/><path id="Path_8748" d="M378.885-300.08a5.913 5.913 0 00-4.222-5.01c-.347-.128-.772-.116-1.059-.5 2.819-1.6 3.488-4.163 3.016-7.112-.455-2.84-2.379-4.393-5-5.231a14.816 14.816 0 00-3.685-.758c-.559-.032-.815-.231-.787-.83.041-.873.01-1.749.01-2.624 0-3.275 0-3.26-3.279-3.095-.556.028-.721.209-.708.739.029 1.119.008 2.239.008 3.359 0 2.234 0 2.208-2.211 2.237-.691.009-.91-.2-.89-.888.044-1.573-.005-3.149.024-4.723.01-.55-.171-.743-.721-.719a27.11 27.11 0 01-2.518 0c-.589-.03-.791.159-.777.764.037 1.609-.019 3.22.027 4.828.02.685-.18.912-.878.9-1.818-.044-3.639-.026-5.458-.011-1.875.016-1.625-.26-1.635 1.586-.014 2.632 0 2.632 2.665 2.654 1.789.015 2.487.7 2.49 2.466q.007 4.462 0 8.923v7.244c0 1.589-.415 2.007-1.963 2.022a15.217 15.217 0 01-1.574-.009.777.777 0 00-.982.781 55.037 55.037 0 01-.508 3.209c-.12.605.03.793.656.778 1.574-.038 3.149-.023 4.724-.009 2.425.021 2.425.029 2.425 2.4 0 .385-.02.771 0 1.154.061.967-.426 2.225.2 2.823s1.869.1 2.835.191c.714.067.988-.162.96-.92-.055-1.5.028-3.011-.034-4.513-.033-.8.237-1 1.009-.995 2.133.022 2.133-.012 2.133 2.17 0 .385-.023.771 0 1.154.071 1-.449 2.3.219 2.916.652.6 1.941.1 2.945.187.666.058.836-.222.822-.844-.035-1.5.035-3.011-.029-4.513-.037-.865.149-1.228 1.119-1.255a18.54 18.54 0 004.535-.765c5.027-1.427 6.703-5.336 6.096-10.161zm-18.736-10.32v-3.141c0-.356-.018-.718.507-.729a16.44 16.44 0 016.1.6 3.414 3.414 0 012.559 3.314 3.379 3.379 0 01-2.59 3.279 17.663 17.663 0 01-5.991.695c-.56 0-.593-.349-.591-.766.01-1.084.006-2.166.006-3.252zm9.459 15.117a8.506 8.506 0 01-4.158 1.309c-1.491.157-3 .129-4.5.218-.627.038-.873-.15-.846-.815.049-1.187.014-2.378.014-3.568h.03c0-1.189.012-2.378-.006-3.567-.008-.5.123-.77.7-.777a25.533 25.533 0 016.767.544 5.912 5.912 0 012 .881 3.465 3.465 0 01-.001 5.779z" data-name="Path 8748" transform="translate(-321.868 345.325)" fill="#ef9142"/></g></g></g></svg>
