<svg width="100" height="100" viewBox="0 0 100 100" fill="none" xmlns="http://www.w3.org/2000/svg">
<rect width="100" height="100" fill="white"/>
<path fill-rule="evenodd" clip-rule="evenodd" d="M50 100C77.6142 100 100 77.6142 100 50C100 22.3858 77.6142 0 50 0C22.3858 0 0 22.3858 0 50C0 77.6142 22.3858 100 50 100Z" fill="#3200F6"/>
<path d="M43.9513 68.5043H41.0425C39.9408 68.5043 39.6433 68.074 39.8747 67.4547L43.808 57.3253C44.0574 56.7511 44.7422 56.4715 45.3506 56.6954L48.1491 57.6821C48.4515 57.7861 48.6976 58.0012 48.8322 58.2794C48.9668 58.5576 48.9787 58.8756 48.8653 59.1622L45.4938 67.822C45.2624 68.4204 44.9209 68.5463 43.9513 68.5043Z" fill="white"/>
<path d="M60.9977 69.2113L57.7948 69.147C56.9232 69.147 56.5032 69.147 56.7447 68.2259L63.7491 48.9466C63.859 48.6639 64.0745 48.4373 64.3483 48.3167C64.6221 48.1962 64.9317 48.1916 65.2088 48.304L67.8761 49.3108C68.4614 49.5183 68.7715 50.17 68.5692 50.7674L62.1319 68.5258C61.9219 69.1042 61.9429 69.1577 60.9977 69.2113Z" fill="white"/>
<path d="M51.9619 36.8456L56.248 38.4344C56.3389 38.4681 56.3852 38.5691 56.3515 38.66L49.6646 56.6986C49.6309 56.7894 49.5299 56.8358 49.439 56.8021L45.1529 55.2132C45.062 55.1795 45.0156 55.0786 45.0493 54.9877L51.7363 36.9491C51.77 36.8582 51.871 36.8119 51.9619 36.8456Z" fill="white"/>
<path d="M72.9616 25.061L77.2477 26.6499C77.3386 26.6836 77.3849 26.7846 77.3512 26.8755L69.4484 48.194C69.4147 48.2848 69.3137 48.3312 69.2228 48.2975L64.9367 46.7086C64.8458 46.6749 64.7994 46.574 64.8331 46.4831L72.736 25.1646C72.7697 25.0737 72.8707 25.0273 72.9616 25.061Z" fill="white"/>
<path d="M45.1016 43.314C43.5275 43.3918 41.9573 43.0833 40.5045 42.4107C41.9217 41.6538 43.4737 41.2532 45.0484 41.2376C46.6234 41.1635 48.1936 41.476 49.6456 42.1526C48.2275 42.9054 46.6756 43.3021 45.1016 43.314Z" fill="white"/>
<path d="M42.9017 37.8244C40.9339 36.0458 39.3947 33.8625 38.395 31.4321C40.9259 32.2949 43.2293 33.6959 45.139 35.534C47.1068 37.3127 48.646 39.4959 49.6457 41.9263C47.1147 41.0635 44.8113 39.6625 42.9017 37.8244Z" fill="white"/>
<path d="M26.2721 68.5092H23.2526C22.4252 68.5092 22.0814 68.2885 22.2748 67.679L27.755 53.1656C27.9858 52.5729 28.6619 52.2727 29.2701 52.493L31.9994 53.4809C32.2918 53.5851 32.5297 53.7988 32.6608 54.0748C32.7918 54.3509 32.8052 54.6665 32.6979 54.9522L27.7764 67.8366C27.5508 68.4357 27.2284 68.5302 26.2721 68.5092Z" fill="white"/>
</svg>
