<svg width="93" height="93" viewBox="0 0 93 93" fill="none" xmlns="http://www.w3.org/2000/svg">
<path d="M46.2 0C20.684 0 0 20.684 0 46.2C0 71.716 20.684 92.4 46.2 92.4C71.716 92.4 92.4 71.716 92.4 46.2C92.4 20.6844 71.7156 0 46.2 0ZM65.2 65.496L45.896 76.66V76.664H45.888L26.572 65.496V26.864L26.592 26.876L45.88 15.736L58.26 22.644H58.264V40.084L52.24 36.624V26.12L45.888 22.5L32.592 30.188V62.212L45.888 69.9L59.184 62.236L59.248 49.076L40.356 38.116L46.424 34.924L65.248 45.9L65.2 65.5V65.496ZM49.528 44.944L54.18 47.62L40.356 55.492V39.62L45.212 42.484V47.248L49.532 44.944H49.528Z" fill="#5269FF"/>
</svg>
