<?xml version="1.0" encoding="UTF-8"?>
<svg width="196px" height="196px" viewBox="0 0 196 196" version="1.1" xmlns="http://www.w3.org/2000/svg" xmlns:xlink="http://www.w3.org/1999/xlink">
    <!-- Generator: Sketch 53 (72520) - https://sketchapp.com -->
    <title>Dashcoin </title>
    <desc>Created with Sketch.</desc>
    <g id="Dashcoin-" stroke="none" stroke-width="1" fill="none" fill-rule="evenodd">
        <g id="Group" transform="translate(11.000000, 0.000000)" fill="#027FFF">
            <path d="M86.0133363,146.903068 C86.0133363,131.351936 85.991442,115.800805 86.0458819,100.250267 C86.0512075,98.6466536 85.5014828,97.7550966 84.1333843,96.968149 C72.5057304,90.2773109 60.9171312,83.5169314 49.3161055,76.779138 C38.5689579,70.5370503 27.8212186,64.2949626 17.0711123,58.0570355 C12.5496414,55.432886 8.01692743,52.8277565 3.49782347,50.1994465 C1.60899541,49.1010482 1.60840368,48.8294205 2.92679619,47.0510615 C4.90142627,44.3870892 7.65655892,42.7703992 10.4531132,41.1786728 C18.2948267,36.7137553 26.134765,32.245866 33.9557676,27.744692 C46.5231016,20.5111929 59.0697248,13.2420315 71.6364671,6.00734365 C74.664391,4.26405254 77.4763305,2.11302269 80.8356278,0.985500278 C85.0269089,-0.421376662 89.1323879,-0.436235945 93.1390466,1.68864156 C100.942297,5.82665477 108.480449,10.4276832 116.09316,14.8985444 C117.530492,15.743146 117.497946,15.9939708 116.054697,16.8231188 C111.820219,19.2540975 107.565622,21.649414 103.365465,24.1386411 C102.216309,24.8197906 101.289647,24.7086432 100.215051,24.0667222 C97.0823894,22.1944525 93.9207327,20.3715156 90.7632181,18.5414463 C87.6920973,16.7607098 84.6156509,16.7030557 81.5161266,18.505784 C67.1067119,26.8882029 52.690788,35.2611118 38.277231,43.6363982 C37.3393261,44.1814367 36.3966873,44.7187484 35.4593741,45.26557 C33.2155032,46.5743757 33.100706,48.8359586 35.3510861,50.1845872 C40.342397,53.1772468 45.4047166,56.0504378 50.435674,58.9753392 C61.1810464,65.2221818 71.9252353,71.4696189 82.6682407,77.7194334 C88.4240774,81.0675272 94.1485519,84.4708974 99.9499523,87.7375622 C101.43699,88.5744371 101.966004,89.5349411 101.961862,91.2443531 C101.908014,115.561273 101.925174,139.878193 101.925174,164.195113 C101.925174,164.789484 101.915115,165.38445 101.931683,165.978227 C102.0021,168.539967 103.716957,169.617562 106.048405,168.508465 C110.152701,166.555956 113.923256,164.005508 117.855948,161.745114 C127.819042,156.018941 137.751958,150.239274 147.694934,144.476844 C149.572519,143.389144 151.460755,142.316304 153.304019,141.172139 C155.715944,139.675512 156.923681,137.407986 156.981672,134.610874 C157.063923,130.600651 157.038478,126.587456 156.991139,122.576638 C156.976346,121.337374 157.411273,120.599164 158.514865,119.988151 C162.785439,117.623147 166.996247,115.149374 171.240193,112.736226 C172.679892,111.917777 172.915995,112.058048 172.917771,113.722288 C172.926647,122.488671 173.140264,131.262186 172.841436,140.01787 C172.642021,145.873616 169.408764,150.227981 164.39615,153.157637 C155.79642,158.18483 147.16592,163.158529 138.54252,168.145305 C125.008878,175.972581 111.468135,183.789158 97.935084,191.618217 C94.9533157,193.343677 92.101138,195.324122 88.567278,195.841225 C86.1488443,196.195471 86.0151115,196.140789 86.0151115,193.705055 C86.0121528,178.103996 86.0133363,162.503532 86.0133363,146.903068" id="Fill-1"></path>
            <path d="M0.0114810085,100.939583 C0.0114810085,87.3856555 0.0114810085,73.8323264 0.0120818652,60.2783992 C0.0120818652,59.7801018 0.0162878621,59.2818045 0.0246998559,58.7835071 C0.03671699,58.0154233 0.333540201,57.7910998 1.05096311,58.2038551 C5.72803168,60.893943 10.4111088,63.5726651 15.0929843,66.2531818 C15.7208795,66.6126977 15.9930676,67.1516724 15.9780462,67.8629275 C15.9666299,68.4108752 15.9822522,68.959421 15.9822522,69.5073686 C15.982853,91.0837038 15.9792479,112.660039 15.9900633,134.236374 C15.9906642,135.87603 16.020707,137.516882 16.6810485,139.07937 C17.6496295,141.369863 19.6691089,142.526774 21.681378,143.623866 C31.4657286,148.95798 40.9280199,154.843033 50.6330574,160.311742 C59.5990411,165.364106 68.4947246,170.540895 77.4763306,175.563948 C79.2392442,176.549775 80.0846496,177.604395 79.9933194,179.740553 C79.7986418,184.317352 79.9266243,188.906712 79.9037917,193.491287 C79.8953797,195.182986 79.659243,195.336722 78.2430238,194.521979 C68.1125798,188.688969 57.9953546,182.833227 47.8649106,176.999619 C36.2629685,170.319563 24.6508118,163.655658 13.0452646,156.981584 C11.0966863,155.860565 9.05197097,154.869952 7.23377858,153.566483 C2.79765354,150.387071 -0.0155575432,146.261312 6.47310926e-05,140.554521 C0.0361161333,127.349342 0.0114810085,114.144762 0.0114810085,100.939583" id="Fill-3"></path>
            <path d="M174.965671,78.931571 C174.965671,86.3427801 174.92456,93.7551835 174.999632,101.165795 C175.015123,102.703453 174.543238,103.62963 173.196695,104.374871 C169.029562,106.682253 164.926181,109.103689 160.791818,111.468994 C159.22244,112.366508 158.945982,112.205876 158.94479,110.371436 C158.93764,95.7472707 158.94062,81.1231057 158.936449,66.499538 C158.935257,61.7623595 157.2205,57.769228 153.671228,54.6258387 C151.98805,53.1359534 149.956319,52.1500613 148.02826,51.0333938 C136.348491,44.2694936 124.645485,37.5450051 112.954991,30.8008108 C111.694245,30.0734841 111.674583,29.7283323 112.938904,28.9890625 C117.350917,26.4105756 121.790933,23.8786663 126.205925,21.3037623 C127.11514,20.7734945 127.855142,21.0027995 128.69405,21.4912669 C138.59829,27.2615121 148.526362,32.9893598 158.427027,38.7649794 C161.936975,40.8120042 165.766877,42.3813102 168.888354,45.0099576 C172.683698,48.2052988 174.947796,52.3232344 174.960904,57.443185 C174.979375,64.6059803 174.965671,71.7687757 174.965671,78.931571" id="Fill-5"></path>
        </g>
    </g>
</svg>