<svg id="Layer_1" data-name="Layer 1" xmlns="http://www.w3.org/2000/svg" xmlns:xlink="http://www.w3.org/1999/xlink" viewBox="0 0 821.29 642.08"><defs><style>.cls-1{fill:none;}.cls-2{clip-path:url(#clip-path);}.cls-3{fill:#111c4e;}.cls-4{fill:#fff;}</style><clipPath id="clip-path" transform="translate(99.03 24.99)"><circle class="cls-1" cx="308.36" cy="307.19" r="306.05"/></clipPath></defs><title>Quadrant Protocol_Logo&amp;amp;Text_Circular</title><g class="cls-2"><rect class="cls-3" width="821.29" height="642.08"/><path class="cls-4" d="M377.22,315.59h0l-35.06-37.52H299l51.39,55a98.88,98.88,0,0,1-39.62,8.21c-53,0-96-41.42-96-92.51s43-92.5,96-92.5,96.05,41.42,96.05,92.5a90,90,0,0,1-21,57.72l23.44,25.75A123.22,123.22,0,0,0,442,248.77C442,179,383.26,122.41,310.8,122.41S179.6,179,179.6,248.77s58.74,126.36,131.2,126.36a134.56,134.56,0,0,0,64-16l20.39,21.82h41.54Z" transform="translate(99.03 24.99)"/><path class="cls-4" d="M164,450.2V420.64h3.76v29.2c0,11.92,6.43,18.79,17.13,18.79,10.26,0,16.84-6.22,16.84-18.43V420.64h3.76v29.12c0,14.53-8.46,22.26-20.74,22.26S164,464.36,164,450.2Z" transform="translate(99.03 24.99)"/><path class="cls-4" d="M235.68,420.28h3.62l23.56,51h-4.12l-6.43-14.17H222.46L216,471.23h-3.91Zm15,33.39-13.3-29.27-13.37,29.27Z" transform="translate(99.03 24.99)"/><path class="cls-4" d="M272.11,420.64h16.83c15.9,0,26.89,10.91,26.89,25.15v.14c0,14.24-11,25.3-26.89,25.3H272.11Zm16.83,47.12c14.1,0,23-9.61,23-21.68v-.15c0-12-8.88-21.82-23-21.82H275.86v43.65Z" transform="translate(99.03 24.99)"/><path class="cls-4" d="M327.17,420.64h21.25c6.21,0,11.2,1.95,14.24,5a13.34,13.34,0,0,1,3.83,9.39v.15c0,8.45-6.29,13.29-14.82,14.45l16.7,21.61H363.6l-16.12-21H330.93v21h-3.76ZM348,446.87c8.45,0,14.74-4.26,14.74-11.56v-.14c0-6.8-5.35-11.06-14.53-11.06H330.93v22.76Z" transform="translate(99.03 24.99)"/><path class="cls-4" d="M397.2,420.28h3.61l23.56,51h-4.12l-6.43-14.17H384l-6.43,14.17h-3.9Zm15,33.39-13.3-29.27-13.37,29.27Z" transform="translate(99.03 24.99)"/><path class="cls-4" d="M433.62,420.64h3.54l34.91,44v-44h3.61v50.59h-2.82l-35.63-45v45h-3.61Z" transform="translate(99.03 24.99)"/><path class="cls-4" d="M503.29,424.11H485.65v-3.47h39v3.47H507v47.12h-3.75Z" transform="translate(99.03 24.99)"/><path class="cls-4" d="M139.37,459.67h0l-7.53-8.06h-9.26l11,11.82a21.31,21.31,0,0,1-8.51,1.76c-11.39,0-20.63-8.9-20.63-19.87s9.24-19.86,20.63-19.86,20.63,8.89,20.63,19.86a19.35,19.35,0,0,1-4.51,12.4l5,5.53a26.49,26.49,0,0,0,7-17.93c0-15-12.62-27.14-28.18-27.14s-28.18,12.15-28.18,27.14,12.62,27.14,28.18,27.14A28.84,28.84,0,0,0,138.84,469l4.38,4.69h8.93Z" transform="translate(99.03 24.99)"/></g></svg>