<svg xmlns="http://www.w3.org/2000/svg" width="560" height="560" viewBox="0 0 560 560">
  <defs>
    <linearGradient id="fxc-color-a" x1="0%" y1="0%" y2="100%">
      <stop offset="0%" stop-color="#A0F"/>
      <stop offset="100%" stop-color="#50F"/>
    </linearGradient>
  </defs>
  <g fill="none" fill-rule="evenodd">
    <circle cx="280" cy="280" r="280" fill="url(#fxc-color-a)"/>
    <path fill="#FFF" d="M245,187 L245,248 C245,252.022423 248.741917,255 252,255 L348,255 C351.258083,255 355,258.017899 355,262 L355,288 C355,291.258083 351.982101,295 348,295 L252,295 C248.741917,295 245,298.701473 245,302 L245,444 C244.968493,449.375354 242.024068,452.258287 238,450 L210,430 C206.700872,427.997957 205,425.982101 205,422 L205,302 C205,298.701473 201.217933,295 198,295 L152,295 C147.971929,295 145,291.257935 145,288 L145,262 C145,258.098615 147.971929,255 152,255 L198,255 C201.217933,255 205,252.022423 205,248 L205,147 C205,143.017899 208.241917,140 211.5,140 L388,140 C391.258083,140 395,143.741917 395,147 L395,173 C395,176.258083 391.982101,180 388,180 L252,180 C248.741917,180 245,183.741917 245,187 Z"/>
  </g>
</svg>
