<?xml version="1.0" encoding="UTF-8"?>
<svg width="200px" height="200px" viewBox="0 0 200 200" version="1.1" xmlns="http://www.w3.org/2000/svg" xmlns:xlink="http://www.w3.org/1999/xlink">
    <!-- Generator: Sketch 58 (84663) - https://sketch.com -->
    <title>GDC_Symbol</title>
    <desc>Created with Sketch.</desc>
    <defs>
        <linearGradient x1="63.9648438%" y1="70.3359375%" x2="35.8300781%" y2="29.9511719%" id="linearGradient-1">
            <stop stop-color="#FD2700" offset="0%"></stop>
            <stop stop-color="#FF7500" offset="100%"></stop>
        </linearGradient>
    </defs>
    <g id="Page-1" stroke="none" stroke-width="1" fill="none" fill-rule="evenodd">
        <g id="BI_GDCToken_202006" transform="translate(-146.000000, -279.000000)" fill="url(#linearGradient-1)">
            <g id="기본형" transform="translate(146.000000, 178.000000)">
                <path d="M79.9089159,240.229992 C88.2862473,263.642833 110.712077,280.399142 137.061348,280.399142 L137.061348,280.399142 L160.797456,280.402089 C143.949758,293.321656 122.871566,301 100,301 C59.6279069,301 24.8436216,277.075751 9.05110861,242.631217 L62.9386519,242.630901 L63.8208837,242.624633 C69.3988521,242.545318 74.7945821,241.715047 79.9089159,240.229992 Z M199.93798,197.444747 C199.979212,198.624747 200,199.809946 200,201 C200,215.736422 196.812429,229.728346 191.089164,242.323897 L137.061348,242.322274 C124.638078,242.322274 114.567029,232.27637 114.567029,219.88412 C114.567029,207.49187 124.638078,197.445966 137.061348,197.445966 L137.061348,197.445966 Z M62.9386519,159.677726 C75.3619215,159.677726 85.4329715,169.72363 85.4329715,182.11588 C85.4329715,194.50813 75.3619215,204.554034 62.9386519,204.554034 L62.9386519,204.554034 L0.0620201892,204.555253 C0.0207878339,203.375253 0,202.190054 0,201 C0,186.263578 3.18757095,172.271654 8.91083595,159.676103 Z M100,101 C140.372093,101 175.156378,124.924249 190.948891,159.368783 L137.061348,159.369099 C131.170051,159.369099 125.474887,160.20675 120.091442,161.771009 C111.714392,138.357644 89.2882988,121.600858 62.9386519,121.600858 L62.9386519,121.600858 L39.2025441,121.597911 C56.0502418,108.678344 77.1284342,101 100,101 Z" id="GDC_Symbol"></path>
            </g>
        </g>
    </g>
</svg>