<svg xmlns="http://www.w3.org/2000/svg" viewBox="0 0 108.75 152.77"><title>Asset 1</title><g id="Layer_2" data-name="Layer 2"><g id="Layer_1-2" data-name="Layer 1"><path d="M97.73,65.41l11-11L54.38,0,0,54.38l11,11-11,11,11,11-11,11,54.38,54.38,54.37-54.38-11-11,11-11Zm-88-11L54.38,9.74,99,54.38l-6.16,6.16L54.38,22.06,15.9,60.54ZM54.38,99,31.75,76.39,54.38,53.76,77,76.39Zm27.5-17.77L88,87.41,54.38,121.07,20.72,87.41l6.16-6.16,27.5,27.5ZM54.38,44l-27.5,27.5-6.11-6.11L54.38,31.79,88,65.41l-6.11,6.11ZM9.74,76.43l6.16-6.16L22,76.39l-6.16,6.15ZM99,98.39,54.38,143,9.74,98.39l6.11-6.11,38.53,38.53L92.9,92.28Zm-12.27-22,6.11-6.12L99,76.43,92.9,82.54Z"/></g></g></svg>