<?xml version="1.0" encoding="utf-8"?>
<!-- Generator: Adobe Illustrator 23.0.1, SVG Export Plug-In . SVG Version: 6.00 Build 0)  -->
<svg version="1.1" id="Layer_1" xmlns="http://www.w3.org/2000/svg" xmlns:xlink="http://www.w3.org/1999/xlink" x="0px" y="0px"
	 viewBox="0 0 1030 750" style="enable-background:new 0 0 1030 750;" xml:space="preserve">
<style type="text/css">
	.st0{fill:#FFFFFF;}
	.st1{fill:#1D1D1B;}
	.st2{fill:#00A4C3;}
	.st3{fill:#16384C;}
</style>
<g>
	<g>
		<path class="st2" d="M682.95,92.07c-41.22-51.53-102.62-80.83-168.46-80.39c-61.56,0.41-120.01,27.4-160.36,74.05L345,96.29
			L515.66,264.8l175.98-161.86L682.95,92.07z M516.39,223.6L386.2,95.05c34.08-33.87,80.17-53.23,128.48-53.55
			c52-0.34,100.79,20.88,135.89,58.67L516.39,223.6z"/>
		<path class="st2" d="M266.62,230.66c0-17.96,1.96-35.45,5.6-52.34H15.88C38.03,296.76,169.26,389.3,330.77,397.05
			C290.93,352.98,266.62,294.61,266.62,230.66z"/>
		<path class="st2" d="M757.78,178.32c3.64,16.88,5.6,34.38,5.6,52.34c0,63.95-24.3,122.31-64.14,166.39
			c161.51-7.75,292.74-100.28,314.89-218.72H757.78z"/>
		<path class="st2" d="M387.17,176.02c-6.83,8.54-10.95,19.34-10.95,31.1c0,27.51,22.38,49.88,49.88,49.88
			c11.75,0,22.55-4.11,31.08-10.93L387.17,176.02z"/>
		<path class="st2" d="M578.78,243.64c8.91,8.26,20.79,13.36,33.87,13.36c27.51,0,49.88-22.38,49.88-49.88
			c0-11.35-3.85-21.79-10.26-30.18L578.78,243.64z"/>
		<path class="st2" d="M674.42,156.83c11.2,13.73,17.94,31.23,17.94,50.29c0,43.96-35.76,79.72-79.72,79.72
			c-21.82,0-41.61-8.83-56.02-23.08l-42.87,38.92l0,0h0l-35.43-35.45c-14,12.18-32.24,19.62-52.21,19.62
			c-43.96,0-79.72-35.76-79.72-79.72c0-19.99,7.45-38.24,19.65-52.24l-37.77-37.8c-20.18,33.1-31.8,71.98-31.8,113.58
			c0,120.7,97.84,218.54,218.54,218.54s218.54-97.84,218.54-218.54c0-37.55-9.48-72.88-26.16-103.74L674.42,156.83z"/>
	</g>
	<g>
		<path class="st2" d="M181.1,648.24v66.6c-18.33,13.94-45.43,23.49-70.21,23.49c-53.44,0-95-40.01-95-91.64
			s42.08-91.13,96.81-91.13c25.82,0,51.63,9.81,69.44,25.3l-17.3,22.46c-13.94-12.91-33.3-20.65-52.15-20.65
			c-36.91,0-65.83,28.14-65.83,64.02c0,36.14,29.17,64.28,66.09,64.28c13.43,0,28.66-4.65,41.56-12.39v-50.34H181.1z"/>
		<path class="st2" d="M353.54,737.04l-96.29-129.59v129.59h-30.46v-180.7h29.94l96.81,129.85V556.34h29.94v180.7H353.54z"/>
		<path class="st2" d="M610.39,646.69c0,51.63-41.82,91.64-95.77,91.64s-95.77-40.01-95.77-91.64c0-51.89,41.82-91.13,95.77-91.13
			S610.39,595.06,610.39,646.69z M449.82,646.69c0,35.88,29.69,64.28,65.06,64.28c35.36,0,64.27-28.4,64.27-64.28
			c0-35.88-28.91-63.76-64.27-63.76C479.25,582.93,449.82,610.81,449.82,646.69z"/>
		<path class="st2" d="M768.11,573.63l-12.65,26.85c-19.62-11.87-39.24-16.78-52.92-16.78c-17.82,0-29.43,6.71-29.43,18.85
			c0,39.5,97.58,18.33,97.32,83.38c0,32.27-28.4,52.15-68.15,52.15c-28.4,0-55.24-11.62-73.83-28.65l13.17-26.33
			c18.58,17.04,41.82,26.33,61.18,26.33c21.17,0,33.82-8,33.82-21.94c0-40.27-97.58-17.81-97.58-82.09
			c0-30.98,26.59-50.34,65.83-50.34C728.36,555.05,751.33,562.53,768.11,573.63z"/>
		<path class="st2" d="M808.64,737.04v-180.7h30.46v180.7H808.64z"/>
		<path class="st2" d="M1011.8,573.63l-12.65,26.85c-19.62-11.87-39.24-16.78-52.92-16.78c-17.81,0-29.43,6.71-29.43,18.85
			c0,39.5,97.58,18.33,97.32,83.38c0,32.27-28.39,52.15-68.15,52.15c-28.39,0-55.24-11.62-73.83-28.65l13.16-26.33
			c18.59,17.04,41.82,26.33,61.18,26.33c21.17,0,33.82-8,33.82-21.94c0-40.27-97.58-17.81-97.58-82.09
			c0-30.98,26.59-50.34,65.83-50.34C972.04,555.05,995.02,562.53,1011.8,573.63z"/>
	</g>
</g>
</svg>
