<?xml version="1.0" encoding="UTF-8"?>
<svg width="90px" height="90px" viewBox="0 0 90 90" version="1.1" xmlns="http://www.w3.org/2000/svg" xmlns:xlink="http://www.w3.org/1999/xlink">
    <!-- Generator: Sketch 55.2 (78181) - https://sketchapp.com -->
    <title>cycloneTicker_DAI</title>
    <desc>Created with Sketch.</desc>
    <defs>
        <linearGradient x1="80.696751%" y1="80.6967356%" x2="13.5000001%" y2="13.4999974%" id="linearGradient-1">
            <stop stop-color="#0B50B0" offset="0.0791807432%"></stop>
            <stop stop-color="#0F6BEB" offset="46.270587%"></stop>
            <stop stop-color="#6FA4F2" offset="100%"></stop>
        </linearGradient>
    </defs>
    <g id="Page-1" stroke="none" stroke-width="1" fill="none" fill-rule="evenodd">
        <g id="cycloneTicker_DAI">
            <path d="M45.6164395,18.4931507 C50.9808797,18.4931507 56.2249438,20.0839416 60.6853366,23.0643077 C65.1457293,26.0445756 68.6222162,30.2807002 70.6750859,35.2368256 C72.7279555,40.192951 73.2650863,45.6465726 72.2185888,50.9079062 C71.1719932,56.1693379 68.5887621,61.002242 64.7954906,64.7955155 C61.0022192,68.588789 56.1693177,71.1720215 50.9079869,72.2185195 C45.646558,73.2651157 40.1929394,72.7279847 35.2368166,70.6751139 C30.2806938,68.6221451 26.0446697,65.1457544 23.0643052,60.6853592 C20.0839407,56.2249641 18.4931507,50.9808972 18.4931507,45.616454 C18.5022746,38.4256672 21.3628515,31.532142 26.4474932,26.4474975 C31.532135,21.3628531 38.4257546,18.5022746 45.6164395,18.4931507 Z M45,0 C36.0999001,0 27.3996001,2.6391995 19.9994001,7.58386856 C12.5991001,12.5284976 6.83138013,19.5565963 3.42544013,27.7791947 C0.0194977378,36.0018932 -0.871651861,45.0498915 0.864682137,53.7790898 C2.60102013,62.5081881 6.88685013,70.5263866 13.1802001,76.8197854 C19.4736001,83.1131842 27.4918001,87.3989834 36.2210001,89.1352831 C44.9501001,90.8716828 53.9981001,89.9804829 62.2208,86.5745836 C70.4434,83.1685842 77.4715,77.4008853 82.4161,70.0005867 C87.3608,62.6003881 90,53.9001898 90,45 C90,33.0652937 85.2589,21.6192959 76.8198,13.1801975 C68.3807,4.7410591 56.9348001,0 45,0 Z" id="Shape-Copy" fill="url(#linearGradient-1)" fill-rule="nonzero"></path>
            <path d="M60.8712692,20.4264808 L60.8833648,20.4142969 C59.9701539,19.7441853 60.0003927,19.1349929 60.4418787,18.7146502 C60.828935,18.3430429 61.5849042,18.1115498 61.5849042,18.1115498 C73.4385014,15.3884598 83,21.5169351 83,21.5169351 C73.0756362,8.4192991 54.297361,4.98345411 36.3113415,14.1578913 C24.5303173,19.9330349 20.2122212,28.8333355 20.2122212,28.8333355 L20.2485077,28.8272436 C17.5209708,33.2377964 15.9243638,38.4281154 15.9243638,43.9961337 C15.9243638,53.7553955 20.756519,62.3632837 28.1287308,67.5718785 L28.1166352,67.5840624 C29.0298461,68.2480821 28.9996073,68.8633664 28.5581213,69.2837091 C28.171065,69.6553164 27.4150958,69.8868095 27.4150958,69.8868095 C15.5554508,72.6098994 6,66.4814242 6,66.4814242 C15.9243638,79.5851521 34.702639,83.0149052 52.6886585,73.840468 C64.4696827,68.0653243 68.7938266,59.1589318 68.7938266,59.1589318 L68.7514923,59.1650238 C71.4790292,54.754471 73.0756362,49.564152 73.0756362,43.9900418 C73.0756362,34.2368719 68.243481,25.6289836 60.8712692,20.4264808 Z M33.104,44.3067158 C33.104,37.8104733 38.3464792,32.539823 44.808,32.539823 C51.2695208,32.539823 56.512,37.8104733 56.512,44.3067158 C56.512,50.8089957 51.2695208,56.079646 44.808,56.079646 C38.3404741,56.079646 33.104,50.8150331 33.104,44.3067158 Z" id="Shape-Copy-2" fill="#FFFFFF" fill-rule="nonzero"></path>
            <g id="Group-Copy" transform="translate(22.000000, 22.000000)">
                <circle id="Oval" fill="#F8A608" fill-rule="nonzero" cx="22" cy="22" r="22"></circle>
                <g id="DAI" transform="translate(10.341897, 11.564186)" fill="#FFFFFF">
                    <path d="M2.93328276,1.77635684e-15 L11.8554966,1.77635684e-15 C17.6201793,1.77635684e-15 22.2932828,4.67310345 22.2932828,10.4377103 C22.2932828,16.2023931 17.6201793,20.8754966 11.8554966,20.8754966 L2.93328276,20.8754966 L2.93328276,1.77635684e-15 Z M5.23106897,2.29771034 L5.23106897,18.5777103 L11.8554966,18.5777103 C16.3510828,18.5777103 19.9954966,14.9333724 19.9954966,10.4377103 C19.9954966,5.94212414 16.3510828,2.29771034 11.8554966,2.29771034 L5.23106897,2.29771034 Z" id="Shape"></path>
                    <polygon id="Path" fill-rule="nonzero" points="0 9.16110345 24.3222138 9.16110345 24.3222138 6.86331724 0 6.86331724"></polygon>
                    <polygon id="Path" fill-rule="nonzero" points="0 14.0499586 24.3222138 14.0499586 24.3222138 11.7521724 0 11.7521724"></polygon>
                </g>
            </g>
        </g>
    </g>
</svg>