<?xml version="1.0" encoding="UTF-8"?>
<svg width="90px" height="90px" viewBox="0 0 90 90" version="1.1" xmlns="http://www.w3.org/2000/svg" xmlns:xlink="http://www.w3.org/1999/xlink">
    <!-- Generator: Sketch 55.2 (78181) - https://sketchapp.com -->
    <title>cycloneTicker_USDc</title>
    <desc>Created with Sketch.</desc>
    <defs>
        <linearGradient x1="80.696751%" y1="80.6967356%" x2="13.5000001%" y2="13.4999974%" id="linearGradient-1">
            <stop stop-color="#0B50B0" offset="0.0791807432%"></stop>
            <stop stop-color="#0F6BEB" offset="46.270587%"></stop>
            <stop stop-color="#6FA4F2" offset="100%"></stop>
        </linearGradient>
    </defs>
    <g id="Page-1" stroke="none" stroke-width="1" fill="none" fill-rule="evenodd">
        <g id="cycloneTicker_USDc" fill-rule="nonzero">
            <path d="M45.6164395,18.4931507 C50.9808797,18.4931507 56.2249438,20.0839416 60.6853366,23.0643077 C65.1457293,26.0445756 68.6222162,30.2807002 70.6750859,35.2368256 C72.7279555,40.192951 73.2650863,45.6465726 72.2185888,50.9079062 C71.1719932,56.1693379 68.5887621,61.002242 64.7954906,64.7955155 C61.0022192,68.588789 56.1693177,71.1720215 50.9079869,72.2185195 C45.646558,73.2651157 40.1929394,72.7279847 35.2368166,70.6751139 C30.2806938,68.6221451 26.0446697,65.1457544 23.0643052,60.6853592 C20.0839407,56.2249641 18.4931507,50.9808972 18.4931507,45.616454 C18.5022746,38.4256672 21.3628515,31.532142 26.4474932,26.4474975 C31.532135,21.3628531 38.4257546,18.5022746 45.6164395,18.4931507 Z M45,0 C36.0999001,0 27.3996001,2.6391995 19.9994001,7.58386856 C12.5991001,12.5284976 6.83138013,19.5565963 3.42544013,27.7791947 C0.0194977378,36.0018932 -0.871651861,45.0498915 0.864682137,53.7790898 C2.60102013,62.5081881 6.88685013,70.5263866 13.1802001,76.8197854 C19.4736001,83.1131842 27.4918001,87.3989834 36.2210001,89.1352831 C44.9501001,90.8716828 53.9981001,89.9804829 62.2208,86.5745836 C70.4434,83.1685842 77.4715,77.4008853 82.4161,70.0005867 C87.3608,62.6003881 90,53.9001898 90,45 C90,33.0652937 85.2589,21.6192959 76.8198,13.1801975 C68.3807,4.7410591 56.9348001,0 45,0 Z" id="Shape-Copy" fill="url(#linearGradient-1)"></path>
            <path d="M60.8712692,20.4264808 L60.8833648,20.4142969 C59.9701539,19.7441853 60.0003927,19.1349929 60.4418787,18.7146502 C60.828935,18.3430429 61.5849042,18.1115498 61.5849042,18.1115498 C73.4385014,15.3884598 83,21.5169351 83,21.5169351 C73.0756362,8.4192991 54.297361,4.98345411 36.3113415,14.1578913 C24.5303173,19.9330349 20.2122212,28.8333355 20.2122212,28.8333355 L20.2485077,28.8272436 C17.5209708,33.2377964 15.9243638,38.4281154 15.9243638,43.9961337 C15.9243638,53.7553955 20.756519,62.3632837 28.1287308,67.5718785 L28.1166352,67.5840624 C29.0298461,68.2480821 28.9996073,68.8633664 28.5581213,69.2837091 C28.171065,69.6553164 27.4150958,69.8868095 27.4150958,69.8868095 C15.5554508,72.6098994 6,66.4814242 6,66.4814242 C15.9243638,79.5851521 34.702639,83.0149052 52.6886585,73.840468 C64.4696827,68.0653243 68.7938266,59.1589318 68.7938266,59.1589318 L68.7514923,59.1650238 C71.4790292,54.754471 73.0756362,49.564152 73.0756362,43.9900418 C73.0756362,34.2368719 68.243481,25.6289836 60.8712692,20.4264808 Z M33.104,44.3067158 C33.104,37.8104733 38.3464792,32.539823 44.808,32.539823 C51.2695208,32.539823 56.512,37.8104733 56.512,44.3067158 C56.512,50.8089957 51.2695208,56.079646 44.808,56.079646 C38.3404741,56.079646 33.104,50.8150331 33.104,44.3067158 Z" id="Shape-Copy-2" fill="#FFFFFF"></path>
            <g id="USDc" transform="translate(23.000000, 22.000000)">
                <path d="M44,22.0384379 C44.0211897,9.88818373 34.1886331,0.0212845814 22.0383558,0 C9.88814779,-0.0212158217 0.0212581115,9.811308 0,21.9615621 C-0.0211206086,34.1118163 9.81143607,43.9787154 21.961644,44 C34.1119213,44.0212158 43.978811,34.188692 44,22.0384379 Z" id="Path" fill="#3574B9"></path>
                <path d="M17.5539679,37.4076128 C17.5539679,37.9451428 17.2078365,38.1333333 16.6885742,38.1333333 C13.5440694,37.0801543 10.7994532,34.9958149 8.85331106,32.1830714 C6.90723411,29.3702591 5.86102064,25.9755354 5.86666667,22.4919803 C5.87235853,19.0084252 6.92964925,15.6175548 8.8849138,12.8118298 C10.8401783,10.0061047 13.5915712,7.93174247 16.7394644,6.89005443 C17.2485617,6.71266677 17.6048581,7.07287794 17.5997756,7.62114205 L17.5997756,8.91666372 C17.60362,9.10320287 17.5580078,9.28712732 17.4680215,9.44765696 C17.3781003,9.6081866 17.2473888,9.73899107 17.0907435,9.82520781 C14.6146528,10.766367 12.4731601,12.4900824 10.9576623,14.7619243 C9.44209936,17.0337662 8.626032,19.7435037 8.62049338,22.5223936 C8.61495475,25.3013522 9.42014034,28.0146678 10.9265809,30.2932529 C12.4329563,32.571838 14.5675419,34.3051177 17.0398533,35.257355 C17.1968896,35.3430901 17.3279269,35.4736882 17.4179132,35.6343554 C17.5079647,35.7950227 17.5533163,35.9792224 17.5488854,36.1658303 L17.5539679,37.4076128 Z" id="Path" fill="#FFFFFF"></path>
                <path d="M23.0110375,32.4754391 C23.0051658,32.6727353 22.9315075,32.8606097 22.804416,33.0027108 C22.6772593,33.144812 22.5056728,33.2309445 22.3229299,33.2444444 L20.9416909,33.2444444 C20.7622754,33.2314367 20.593429,33.1483979 20.4667942,33.0109374 C20.3400942,32.8734066 20.2643482,32.6908056 20.2535833,32.4973765 L20.2535833,30.3001179 C17.4909749,29.9211348 16.1147596,28.2512183 15.6,25.8342338 C15.6,25.4661491 15.7783717,25.0926502 16.1096707,25.0926502 L17.6642577,25.0926502 C18.0057997,25.0926502 18.1739937,25.2793996 18.3523654,25.6420001 C18.6938421,26.9438318 19.371772,28.0589142 21.6246445,28.0644689 C23.3474907,28.0644689 24.5554468,27.1416202 24.5605357,25.6584531 C24.5656245,24.175286 23.8724933,23.6149675 21.4615394,23.2359843 C17.8376058,22.6866345 16.1147596,21.5550288 16.1198485,18.4020154 C16.1198485,15.9905153 17.8528724,14.1338494 20.2688499,13.771249 L20.2688499,11.4971391 C20.2797453,11.3042725 20.3556871,11.1223747 20.4824523,10.9857579 C20.6092176,10.8491412 20.7779987,10.7672274 20.9569576,10.7555556 L22.3382618,10.7555556 C22.5172206,10.7672274 22.6859365,10.8491412 22.8127018,10.9857579 C22.939467,11.1223747 23.015474,11.3042725 23.0263694,11.4971391 L23.0263694,13.7273038 C25.095716,14.100873 26.4719313,15.4027047 26.8134733,17.4461904 C26.8134733,17.8142048 26.6401253,18.1877739 26.3037374,18.1877739 L24.9326762,18.1877739 C24.5860453,18.1877739 24.4229402,18.0010245 24.2445685,17.6384241 C23.9030265,16.3365924 23.041636,15.7762738 21.487049,15.7762738 C19.7642681,15.7762738 18.8977235,16.6991225 18.8977235,17.9735324 C18.8977235,19.2479424 19.4074594,20.0169478 21.996785,20.3960012 C25.6156297,20.945351 27.3384759,22.0768865 27.3333333,25.2299701 C27.3333333,27.6414702 25.605452,29.6794012 23.0161917,30.2342353 L23.0110375,32.4754391 Z" id="Path" fill="#FFFFFF"></path>
                <path d="M27.2597571,38.0857723 C26.7511382,38.2685155 26.4002544,37.9029602 26.4002544,37.360097 L26.4002544,36.0861231 C26.3961531,35.9002836 26.4417224,35.7169899 26.5316242,35.5572959 C26.6215911,35.3976019 26.75231,35.2679065 26.9088081,35.1830712 C29.3827674,34.2425212 31.5225732,32.5193951 33.0371677,30.2479703 C34.5516971,27.9766143 35.3675184,25.2673212 35.3736377,22.4885361 C35.379757,19.709751 34.5758488,16.9964672 33.0712796,14.7176116 C31.5667754,12.4388248 29.4345862,10.7051717 26.9647282,9.75251218 C26.8082301,9.66630083 26.6776414,9.53550452 26.5878047,9.37498491 C26.4979029,9.2144653 26.4523336,9.03055234 26.4561744,8.84409363 L26.4561744,7.5701197 C26.4561744,7.03255444 26.8019806,6.84444444 27.3207549,6.84444444 C33.5102425,9.03757034 38.1434721,15.2245591 38.1333333,22.4866096 C38.1225753,25.9700159 37.0630232,29.3594361 35.1080987,32.1639539 C33.1531742,34.9685405 30.4043668,37.0425668 27.2597571,38.0857723 L27.2597571,38.0857723 Z" id="Path" fill="#FFFFFF"></path>
            </g>
        </g>
    </g>
</svg>