<?xml version="1.0" encoding="UTF-8"?>
<svg width="261px" height="259px" viewBox="0 0 261 259" version="1.1" xmlns="http://www.w3.org/2000/svg" xmlns:xlink="http://www.w3.org/1999/xlink">
    <!-- Generator: Sketch 55.2 (78181) - https://sketchapp.com -->
    <title>256_Ticker_IdleWBTC (Best)</title>
    <desc>Created with Sketch.</desc>
    <defs>
        <linearGradient x1="80.696751%" y1="80.6967356%" x2="13.5000001%" y2="13.4999974%" id="linearGradient-1">
            <stop stop-color="#0B50B0" offset="0.0791807432%"></stop>
            <stop stop-color="#0F6BEB" offset="46.270587%"></stop>
            <stop stop-color="#6FA4F2" offset="100%"></stop>
        </linearGradient>
        <linearGradient x1="50%" y1="0%" x2="50%" y2="100%" id="linearGradient-2">
            <stop stop-color="#6FA4F2" offset="0%"></stop>
            <stop stop-color="#0F6BEB" offset="52.4255701%"></stop>
            <stop stop-color="#0B50B0" offset="100%"></stop>
        </linearGradient>
        <linearGradient x1="50%" y1="0%" x2="50%" y2="100%" id="linearGradient-3">
            <stop stop-color="#6FA4F2" offset="0%"></stop>
            <stop stop-color="#0F6BEB" offset="52.4255701%"></stop>
            <stop stop-color="#0B50B0" offset="100%"></stop>
        </linearGradient>
        <linearGradient x1="50%" y1="0%" x2="50%" y2="100%" id="linearGradient-4">
            <stop stop-color="#FCC200" offset="0%"></stop>
            <stop stop-color="#DBA515" offset="53.1355574%"></stop>
            <stop stop-color="#B78628" offset="100%"></stop>
        </linearGradient>
    </defs>
    <g id="Tickers" stroke="none" stroke-width="1" fill="none" fill-rule="evenodd">
        <g id="256_Ticker_IdleWBTC-(Best)">
            <path d="M129.753428,52.6027398 C145.01228,52.6027398 159.928729,57.1276561 172.616069,65.6051419 C185.303408,74.0823484 195.192082,86.1317695 201.031355,100.229193 C206.870629,114.326616 208.398468,129.83914 205.421764,144.804711 C202.444781,159.770561 195.096923,173.517488 184.307173,184.307244 C173.517424,195.097 159.770504,202.444861 144.804941,205.421567 C129.839098,208.398551 114.326583,206.870712 100.229167,201.031435 C86.1317513,195.191879 74.082616,185.303479 65.6051348,172.616133 C57.1276535,159.928787 52.6027398,145.01233 52.6027398,129.753469 C52.6286922,109.299676 60.7654443,89.6914261 75.2284251,75.2284373 C89.6914062,60.7654488 109.299924,52.6286922 129.753428,52.6027398 Z M128,0 C102.68416,0 77.9366403,7.50705636 56.8871825,21.5718928 C35.8374403,35.6366154 19.4314813,55.6276517 9.74347415,79.016376 C0.055460232,102.405385 -2.47936529,128.141914 2.4595403,152.971633 C7.39845726,177.801068 19.5892626,200.608389 37.490347,218.509612 C55.3915736,236.410835 78.1988981,248.601553 103.028623,253.540361 C127.858063,258.479453 153.594596,255.944485 176.983609,246.256593 C200.372338,236.568417 220.363378,220.162518 234.428018,199.11278 C248.492942,178.063326 256,153.316095 256,128 C256,94.052391 242.514204,61.4948861 218.509653,37.4903396 C194.505102,13.4856792 161.947876,0 128,0 Z" id="Shape-Copy" fill="url(#linearGradient-1)" fill-rule="nonzero"></path>
            <path d="M173.144944,58.1019898 L173.179349,58.0673334 C170.581771,56.1612382 170.667784,54.4284242 171.923566,53.2327828 C173.024526,52.1757665 175.174839,51.5172972 175.174839,51.5172972 C208.891737,43.771619 236.088889,61.2037265 236.088889,61.2037265 C207.859587,23.9482286 154.445827,14.1751584 103.285594,40.2713353 C69.7751248,56.6984104 57.4925403,82.014821 57.4925403,82.014821 L57.5957552,81.9974929 C49.8374281,94.5430653 45.2959681,109.306639 45.2959681,125.144558 C45.2959681,152.904236 59.0407652,177.388896 80.0106121,192.204454 L79.9762068,192.239111 C82.5737845,194.127878 82.4877719,195.87802 81.2319895,197.073661 C80.1310293,198.130678 77.9807169,198.789147 77.9807169,198.789147 C44.2466156,206.534825 17.0666667,189.102718 17.0666667,189.102718 C45.2959681,226.375544 98.7097287,236.131286 149.869962,210.035109 C183.380431,193.608034 195.680218,168.274295 195.680218,168.274295 L195.5598,168.291623 C203.318128,155.746051 207.859587,140.982477 207.859587,125.12723 C207.859587,97.3848801 194.11479,72.90022 173.144944,58.1019898 Z M94.1624889,126.027992 C94.1624889,107.549791 109.07443,92.5577188 127.453867,92.5577188 C145.833304,92.5577188 160.745244,107.549791 160.745244,126.027992 C160.745244,144.523366 145.833304,159.515438 127.453867,159.515438 C109.057349,159.515438 94.1624889,144.540539 94.1624889,126.027992 Z" id="Shape-Copy-2" fill="#FFFFFF" fill-rule="nonzero"></path>
            <g id="CircleLogo-Copy-6" transform="translate(178.000000, 176.000000)">
                <g id="Group-3">
                    <path d="M39.5,79 C61.3152476,79 79,61.3152476 79,39.5 C79,17.6847524 61.3152476,0 39.5,0 C17.6847524,0 0,17.6847524 0,39.5 C0,51.5983313 5.43913244,62.4262851 14.0054832,69.6719474 C14.5825521,70.1600486 15.1738122,70.6318933 15.7785569,71.086775 C22.383945,76.055268 30.598083,79 39.5,79 Z" id="Oval" stroke="url(#linearGradient-2)" stroke-width="7" fill="#FFFFFF"></path>
                    <g id="Group-2" transform="translate(14.000000, 9.000000)">
                        <g id="noun_Shield_874633"></g>
                    </g>
                </g>
                <g id="noun_Trophy_772056-Copy" transform="translate(20.000000, 20.000000)" fill="url(#linearGradient-4)">
                    <path d="M39.9808583,3.24573516 C39.9808583,3.07024186 39.9515696,2.92414592 39.8934358,2.80700192 C39.835302,2.63150862 39.7185907,2.51481003 39.5437455,2.45601532 C39.4270342,2.33887132 39.2814778,2.28052203 39.1066327,2.28052203 L32.9892719,2.28052203 L32.9892719,0.789719834 C32.9892719,0.614226538 32.9018493,0.438733241 32.7270042,0.263239945 C32.5521591,0.0877466483 32.3484689,0 32.1150462,0 L7.8200045,0 C7.58702558,0 7.38289167,0.0877466483 7.20804654,0.263239945 C7.09133519,0.438733241 7.03320141,0.614226538 7.03320141,0.789719834 L7.03320141,2.28096744 L0.828418061,2.28096744 C0.653572929,2.28096744 0.508016575,2.33931673 0.391305231,2.45646074 C0.274593886,2.51481003 0.18761509,2.63195403 0.129037533,2.80700192 C0.0709037451,2.92414592 0.0416149666,3.07024186 0.0416149666,3.24573516 C0.0416149666,3.24573516 -0.273017517,13.4924948 0.827974292,16.6665182 C1.56063752,18.7786736 4.38212318,21.7540421 7.46987047,22.6315086 C8.69334262,25.5556545 11.9852238,27.8651285 17.345514,29.5612668 L17.5203592,35.2630172 L10.1795262,37.0175048 C10.0046811,37.0175048 9.85912476,37.1052514 9.74241341,37.2807447 C9.62570207,37.456238 9.56756828,37.602334 9.56756828,37.719478 L9.56756828,40 L30.454905,40 L30.454905,37.719478 C30.454905,37.602334 30.3967712,37.456238 30.2800599,37.2807447 C30.1633486,37.1052514 30.0177922,37.0175048 29.8429471,37.0175048 L22.3268252,35.2630172 L22.5016704,29.5612668 C27.53224,28.4615385 30.8529662,26.1516191 32.4647365,22.6315086 C35.6110614,21.7544876 38.3753008,18.779119 39.1066327,16.6665182 C40.206737,13.4907131 39.9808583,3.24573516 39.9808583,3.24573516 Z M7.03320141,18.5087524 C5.69301791,18.0410672 4.45357005,17.2905439 4.14914426,15.9649904 C3.72401321,14.1156296 3.89885834,9.28466438 4.00403168,7.12395884 C4.03332046,6.52264933 4.52723577,6.05273707 5.12721196,6.05273707 L7.03320141,6.05273707 L7.03320141,18.5087524 Z M35.8733291,15.9649904 C35.5373956,17.3096967 34.2708779,18.0410672 32.9892719,18.5087524 L32.9892719,6.05273707 L34.9010304,6.05273707 C35.4987877,6.05273707 35.9918155,6.51953142 36.0237669,7.11861387 C36.1395907,9.27842858 36.3339617,14.1218654 35.8733291,15.9649904 Z" id="Shape"></path>
                </g>
            </g>
            <g id="dLWBTC3x" transform="translate(65.000000, 64.000000)">
                <circle id="Oval" fill="#FFFFFF" cx="64.7071823" cy="63.6464088" r="62.5856354"></circle>
                <path d="M104.981215,105.474122 L105.033547,105.424619 C110.573613,100.184398 114.960265,93.8430939 117.911337,86.8066298 C120.862409,79.7701657 122.31284,72.1934144 122.168575,64.5629171 L122.167867,64.4992707 L122.167867,64.4349171 C122.24495,47.5544751 116.559912,33.7500641 105.13326,22.6250254 L105.102851,22.5953945 L105.072442,22.5652685 C99.6716906,17.1406144 93.2356243,12.8603227 86.1475359,9.97926188 C79.0594475,7.09813039 71.4650166,5.67513812 63.8168398,5.79493481 L63.7150055,5.79649061 L63.6131713,5.79429834 C56.0236906,5.62980773 48.4801768,7.0167337 41.4437834,9.87028508 C34.4073901,12.7238365 28.0258475,16.9842564 22.6894497,22.3913724 L22.6664663,22.4146387 L22.6432,22.4376928 C11.4311779,33.5287867 5.79659048,47.3310055 5.79659048,64.240442 L5.79659048,64.2503425 C5.76777901,80.6293923 11.3267978,94.2186077 22.502895,105.369459 L22.5250298,105.391381 L22.5468818,105.413304 C27.8615691,110.838807 34.2255735,115.120796 41.2494497,117.999028 C48.2729724,120.87726 55.8094144,122.29021 63.3974807,122.153017 L63.4993149,122.150895 L63.6011492,122.153017 C71.2514475,122.299403 78.8529503,120.902718 85.9530608,118.046409 C93.0538785,115.189392 99.5076243,110.931448 104.930298,105.525039 L104.981215,105.474122 Z M63.4964862,127.607514 C71.8794254,127.768044 80.209326,126.237702 87.9897459,123.107006 C95.7694586,119.977017 102.840575,115.311735 108.781613,109.388376 C114.874696,103.625547 119.69768,96.6527293 122.942232,88.9161547 C126.186785,81.1795801 127.781481,72.8496796 127.623072,64.4603757 C127.707227,46.1733481 121.478365,30.9250122 108.938608,18.7162166 C103.020906,12.7725613 95.9681768,8.08245746 88.2019006,4.92538343 C80.4349171,1.76830939 72.1127956,0.208972376 63.7312707,0.340154696 C55.3992486,0.15961105 47.1181436,1.68217459 39.3935204,4.81478011 C31.6691801,7.94738564 24.6641149,12.6241945 18.8065945,18.5592928 C6.49638895,30.7367602 0.341166189,45.9640221 0.341166189,64.240442 C0.309958011,82.0253702 6.4128,97.0225856 18.6498122,109.231381 C24.4837834,115.186564 31.4698961,119.887912 39.1809414,123.046895 C46.8918453,126.206586 55.1658785,127.758144 63.4964862,127.607514 Z" id="Shape" fill="#282237"></path>
                <path d="M96.2694365,28.5672663 C77.9993812,11.8525171 49.9977901,11.8525171 31.7276641,28.5672663 L28.2708155,25.1877834 C48.430674,6.5862011 79.488,6.5862011 99.6476464,25.1877834 L96.2694365,28.5672663 Z" id="Path" fill="#282237" fill-rule="nonzero"></path>
                <path d="M99.4001326,31.6534099 L102.778343,28.2739271 L102.778343,28.1950762 C121.37158,48.3634917 121.37158,79.4356685 102.778343,99.6030939 L99.4001326,96.2234696 C116.106608,77.9449282 116.106608,49.9320221 99.4001326,31.6534099 Z" id="Path" fill="#282237" fill-rule="nonzero"></path>
                <path d="M28.575116,96.2574144 C11.8890077,77.983116 11.8890077,49.9949613 28.575116,31.7210873 L25.197189,28.3416044 C6.60359779,48.5098785 6.60359779,79.5806409 25.197189,99.7494807 L28.575116,96.2574144 Z" id="Path" fill="#282237" fill-rule="nonzero"></path>
                <path d="M31.6937901,99.3775028 C49.9645525,116.091757 77.9654365,116.091757 96.2361989,99.3775028 L99.6929061,102.75642 C79.5325525,121.358144 48.4759337,121.358144 28.315863,102.75642 L31.6937901,99.3775028 Z" id="Path" fill="#282237" fill-rule="nonzero"></path>
                <path d="M74.6522873,54.089547 C74.6522873,60.9442652 63.9526188,60.1104972 60.5531934,60.1104972 L60.5531934,48.0346519 C63.9526188,48.0346519 74.6522873,46.960442 74.6522873,54.089547 Z M77.4463646,72.8376575 C77.4463646,80.3323757 64.6258564,79.4759779 60.5418785,79.4759779 L60.5418785,66.1774144 C64.6258564,66.1887293 77.4463646,65.0119779 77.4463646,72.8376575 Z M85.8872928,51.3817459 C85.2034475,44.2299403 79.0438895,41.8306829 71.2528619,41.0994564 L71.2528619,31.239779 L65.2304972,31.239779 L65.2304972,40.9052641 C63.6449945,40.9052641 62.0248398,40.9052641 60.4167072,40.9624044 L60.4167072,31.239779 L54.4282873,31.239779 L54.4282873,41.1565967 L50.5953591,41.1565967 L42.2229569,41.1565967 L42.2229569,47.6117569 C42.2229569,47.6117569 46.6712044,47.5318453 46.6033149,47.6117569 C48.2708508,47.4278895 49.7835138,48.5996906 50.0253702,50.2622762 L50.0253702,77.4194917 C49.9518232,78.5969503 48.9405525,79.4915359 47.7645083,79.4201105 C47.7574365,79.4201105 47.7503646,79.4201105 47.744,79.4186961 C47.8239116,79.4872928 43.363642,79.4186961 43.363642,79.4186961 L42.1658873,86.6277127 L50.0133481,86.6277127 L54.3257459,86.6277127 L54.3257459,96.7043536 L60.3481105,96.7043536 L60.3481105,86.776221 L65.1619006,86.776221 L65.1619006,96.6590939 L71.1955801,96.6590939 L71.1955801,86.6963094 C81.3705193,86.0796464 88.4656796,83.5663204 89.3553149,74.0264309 C90.0738122,66.3485525 86.4693039,62.9208398 80.7093039,61.5390055 C84.2105635,59.7561989 86.4120221,56.614895 85.8872928,51.3817459 Z" id="Shape" fill="#EF9142"></path>
            </g>
        </g>
    </g>
</svg>