<?xml version="1.0" encoding="UTF-8"?>
<svg width="258px" height="259px" viewBox="0 0 258 259" version="1.1" xmlns="http://www.w3.org/2000/svg" xmlns:xlink="http://www.w3.org/1999/xlink">
    <!-- Generator: Sketch 55.2 (78181) - https://sketchapp.com -->
    <title>256_Ticker_IdleDAI Copy 7</title>
    <desc>Created with Sketch.</desc>
    <defs>
        <linearGradient x1="80.696751%" y1="80.6967356%" x2="13.5000001%" y2="13.4999974%" id="linearGradient-1">
            <stop stop-color="#0B50B0" offset="0.0791807432%"></stop>
            <stop stop-color="#0F6BEB" offset="46.270587%"></stop>
            <stop stop-color="#6FA4F2" offset="100%"></stop>
        </linearGradient>
        <linearGradient x1="50%" y1="0%" x2="50%" y2="100%" id="linearGradient-2">
            <stop stop-color="#6FA4F2" offset="0%"></stop>
            <stop stop-color="#0F6BEB" offset="52.4255701%"></stop>
            <stop stop-color="#0B50B0" offset="100%"></stop>
        </linearGradient>
        <linearGradient x1="50%" y1="0%" x2="50%" y2="100%" id="linearGradient-3">
            <stop stop-color="#6FA4F2" offset="0%"></stop>
            <stop stop-color="#0F6BEB" offset="52.4255701%"></stop>
            <stop stop-color="#0B50B0" offset="100%"></stop>
        </linearGradient>
        <linearGradient x1="50%" y1="0%" x2="50%" y2="100%" id="linearGradient-4">
            <stop stop-color="#6FA4F2" offset="0%"></stop>
            <stop stop-color="#0F6BEB" offset="53.1355574%"></stop>
            <stop stop-color="#0B50B0" offset="100%"></stop>
        </linearGradient>
    </defs>
    <g id="Tickers" stroke="none" stroke-width="1" fill="none" fill-rule="evenodd">
        <g id="tickre_cover" transform="translate(-1539.000000, -313.000000)">
            <g id="256_Ticker_IdleDAI-Copy-7" transform="translate(1539.000000, 313.000000)">
                <path d="M129.753428,52.6027398 C145.01228,52.6027398 159.928729,57.1276561 172.616069,65.6051419 C185.303408,74.0823484 195.192082,86.1317695 201.031355,100.229193 C206.870629,114.326616 208.398468,129.83914 205.421764,144.804711 C202.444781,159.770561 195.096923,173.517488 184.307173,184.307244 C173.517424,195.097 159.770504,202.444861 144.804941,205.421567 C129.839098,208.398551 114.326583,206.870712 100.229167,201.031435 C86.1317513,195.191879 74.082616,185.303479 65.6051348,172.616133 C57.1276535,159.928787 52.6027398,145.01233 52.6027398,129.753469 C52.6286922,109.299676 60.7654443,89.6914261 75.2284251,75.2284373 C89.6914062,60.7654488 109.299924,52.6286922 129.753428,52.6027398 Z M128,0 C102.68416,0 77.9366403,7.50705636 56.8871825,21.5718928 C35.8374403,35.6366154 19.4314813,55.6276517 9.74347415,79.016376 C0.055460232,102.405385 -2.47936529,128.141914 2.4595403,152.971633 C7.39845726,177.801068 19.5892626,200.608389 37.490347,218.509612 C55.3915736,236.410835 78.1988981,248.601553 103.028623,253.540361 C127.858063,258.479453 153.594596,255.944485 176.983609,246.256593 C200.372338,236.568417 220.363378,220.162518 234.428018,199.11278 C248.492942,178.063326 256,153.316095 256,128 C256,94.052391 242.514204,61.4948861 218.509653,37.4903396 C194.505102,13.4856792 161.947876,0 128,0 Z" id="Shape-Copy" fill="url(#linearGradient-1)" fill-rule="nonzero"></path>
                <path d="M173.144944,58.1019898 L173.179349,58.0673334 C170.581771,56.1612382 170.667784,54.4284242 171.923566,53.2327828 C173.024526,52.1757665 175.174839,51.5172972 175.174839,51.5172972 C208.891737,43.771619 236.088889,61.2037265 236.088889,61.2037265 C207.859587,23.9482286 154.445827,14.1751584 103.285594,40.2713353 C69.7751248,56.6984104 57.4925403,82.014821 57.4925403,82.014821 L57.5957552,81.9974929 C49.8374281,94.5430653 45.2959681,109.306639 45.2959681,125.144558 C45.2959681,152.904236 59.0407652,177.388896 80.0106121,192.204454 L79.9762068,192.239111 C82.5737845,194.127878 82.4877719,195.87802 81.2319895,197.073661 C80.1310293,198.130678 77.9807169,198.789147 77.9807169,198.789147 C44.2466156,206.534825 17.0666667,189.102718 17.0666667,189.102718 C45.2959681,226.375544 98.7097287,236.131286 149.869962,210.035109 C183.380431,193.608034 195.680218,168.274295 195.680218,168.274295 L195.5598,168.291623 C203.318128,155.746051 207.859587,140.982477 207.859587,125.12723 C207.859587,97.3848801 194.11479,72.90022 173.144944,58.1019898 Z M94.1624889,126.027992 C94.1624889,107.549791 109.07443,92.5577188 127.453867,92.5577188 C145.833304,92.5577188 160.745244,107.549791 160.745244,126.027992 C160.745244,144.523366 145.833304,159.515438 127.453867,159.515438 C109.057349,159.515438 94.1624889,144.540539 94.1624889,126.027992 Z" id="Shape-Copy-2" fill="#FFFFFF" fill-rule="nonzero"></path>
                <g id="Group-Copy" transform="translate(62.577778, 62.577778)" fill-rule="nonzero">
                    <circle id="Oval" fill="#F8A608" cx="62.5777778" cy="62.5777778" r="62.5777778"></circle>
                    <g id="DAI" transform="translate(29.416951, 32.893685)" fill="#FFFFFF">
                        <path d="M8.34355985,1.77635684e-15 L33.7223014,1.77635684e-15 C50.1196211,1.77635684e-15 63.4120044,13.2923831 63.4120044,29.6894871 C63.4120044,46.086807 50.1196211,59.3791903 33.7223014,59.3791903 L8.34355985,59.3791903 L8.34355985,1.77635684e-15 Z M14.8794851,6.53570941 L14.8794851,52.8432649 L33.7223014,52.8432649 C46.5097466,52.8432649 56.8760792,42.4771482 56.8760792,29.6894871 C56.8760792,16.902042 46.5097466,6.53570941 33.7223014,6.53570941 L14.8794851,6.53570941 Z" id="Shape"></path>
                        <polygon id="Path" points="0 26.0582498 69.1831859 26.0582498 69.1831859 19.5223246 0 19.5223246"></polygon>
                        <polygon id="Path" points="0 39.9643267 69.1831859 39.9643267 69.1831859 33.4284015 0 33.4284015"></polygon>
                    </g>
                </g>
                <g id="CircleLogo-Copy-14" transform="translate(175.000000, 176.000000)">
                    <g id="Group-3">
                        <path d="M39.5,79 C61.3152476,79 79,61.3152476 79,39.5 C79,17.6847524 61.3152476,0 39.5,0 C17.6847524,0 0,17.6847524 0,39.5 C0,51.5983313 5.43913244,62.4262851 14.0054832,69.6719474 C14.5825521,70.1600486 15.1738122,70.6318933 15.7785569,71.086775 C22.383945,76.055268 30.598083,79 39.5,79 Z" id="Oval" stroke="url(#linearGradient-2)" stroke-width="7" fill="#FFFFFF"></path>
                        <g id="Group-2" transform="translate(21.000000, 17.000000)">
                            <g id="noun_Shield_874633"></g>
                            <g id="Group" fill="url(#linearGradient-4)">
                                <path d="M18.4999723,0.0582075 C12.8315663,3.79774879 7.16408526,5.9142175 1.49567923,7.16687388 C-2.81210477,21.3489422 1.98484151,38.7651748 18.4999723,44.8974932 C35.0151592,38.7651748 39.8121054,21.3489422 35.5043214,7.16687388 C29.8359154,5.9142175 24.1683783,3.79774879 18.4999723,0.0582075 Z" id="Path"></path>
                            </g>
                        </g>
                    </g>
                </g>
            </g>
        </g>
    </g>
</svg>