<?xml version="1.0" encoding="UTF-8"?>
<svg width="260px" height="259px" viewBox="0 0 260 259" version="1.1" xmlns="http://www.w3.org/2000/svg" xmlns:xlink="http://www.w3.org/1999/xlink">
    <!-- Generator: Sketch 55.2 (78181) - https://sketchapp.com -->
    <title>256_Ticker_IdleUSDc Copy 7</title>
    <desc>Created with Sketch.</desc>
    <defs>
        <linearGradient x1="80.696751%" y1="80.6967356%" x2="13.5000001%" y2="13.4999974%" id="linearGradient-1">
            <stop stop-color="#0B50B0" offset="0.0791807432%"></stop>
            <stop stop-color="#0F6BEB" offset="46.270587%"></stop>
            <stop stop-color="#6FA4F2" offset="100%"></stop>
        </linearGradient>
        <linearGradient x1="50%" y1="0%" x2="50%" y2="100%" id="linearGradient-2">
            <stop stop-color="#6FA4F2" offset="0%"></stop>
            <stop stop-color="#0F6BEB" offset="52.4255701%"></stop>
            <stop stop-color="#0B50B0" offset="100%"></stop>
        </linearGradient>
        <linearGradient x1="50%" y1="0%" x2="50%" y2="100%" id="linearGradient-3">
            <stop stop-color="#6FA4F2" offset="0%"></stop>
            <stop stop-color="#0F6BEB" offset="52.4255701%"></stop>
            <stop stop-color="#0B50B0" offset="100%"></stop>
        </linearGradient>
        <linearGradient x1="50%" y1="0%" x2="50%" y2="100%" id="linearGradient-4">
            <stop stop-color="#6FA4F2" offset="0%"></stop>
            <stop stop-color="#0F6BEB" offset="53.1355574%"></stop>
            <stop stop-color="#0B50B0" offset="100%"></stop>
        </linearGradient>
    </defs>
    <g id="Tickers" stroke="none" stroke-width="1" fill="none" fill-rule="evenodd">
        <g id="tickre_cover" transform="translate(-1724.000000, -618.000000)">
            <g id="256_Ticker_IdleUSDc-Copy-7" transform="translate(1724.000000, 618.000000)">
                <path d="M129.753428,52.6027398 C145.01228,52.6027398 159.928729,57.1276561 172.616069,65.6051419 C185.303408,74.0823484 195.192082,86.1317695 201.031355,100.229193 C206.870629,114.326616 208.398468,129.83914 205.421764,144.804711 C202.444781,159.770561 195.096923,173.517488 184.307173,184.307244 C173.517424,195.097 159.770504,202.444861 144.804941,205.421567 C129.839098,208.398551 114.326583,206.870712 100.229167,201.031435 C86.1317513,195.191879 74.082616,185.303479 65.6051348,172.616133 C57.1276535,159.928787 52.6027398,145.01233 52.6027398,129.753469 C52.6286922,109.299676 60.7654443,89.6914261 75.2284251,75.2284373 C89.6914062,60.7654488 109.299924,52.6286922 129.753428,52.6027398 Z M128,0 C102.68416,0 77.9366403,7.50705636 56.8871825,21.5718928 C35.8374403,35.6366154 19.4314813,55.6276517 9.74347415,79.016376 C0.055460232,102.405385 -2.47936529,128.141914 2.4595403,152.971633 C7.39845726,177.801068 19.5892626,200.608389 37.490347,218.509612 C55.3915736,236.410835 78.1988981,248.601553 103.028623,253.540361 C127.858063,258.479453 153.594596,255.944485 176.983609,246.256593 C200.372338,236.568417 220.363378,220.162518 234.428018,199.11278 C248.492942,178.063326 256,153.316095 256,128 C256,94.052391 242.514204,61.4948861 218.509653,37.4903396 C194.505102,13.4856792 161.947876,0 128,0 Z" id="Shape-Copy" fill="url(#linearGradient-1)" fill-rule="nonzero"></path>
                <path d="M173.144944,58.1019898 L173.179349,58.0673334 C170.581771,56.1612382 170.667784,54.4284242 171.923566,53.2327828 C173.024526,52.1757665 175.174839,51.5172972 175.174839,51.5172972 C208.891737,43.771619 236.088889,61.2037265 236.088889,61.2037265 C207.859587,23.9482286 154.445827,14.1751584 103.285594,40.2713353 C69.7751248,56.6984104 57.4925403,82.014821 57.4925403,82.014821 L57.5957552,81.9974929 C49.8374281,94.5430653 45.2959681,109.306639 45.2959681,125.144558 C45.2959681,152.904236 59.0407652,177.388896 80.0106121,192.204454 L79.9762068,192.239111 C82.5737845,194.127878 82.4877719,195.87802 81.2319895,197.073661 C80.1310293,198.130678 77.9807169,198.789147 77.9807169,198.789147 C44.2466156,206.534825 17.0666667,189.102718 17.0666667,189.102718 C45.2959681,226.375544 98.7097287,236.131286 149.869962,210.035109 C183.380431,193.608034 195.680218,168.274295 195.680218,168.274295 L195.5598,168.291623 C203.318128,155.746051 207.859587,140.982477 207.859587,125.12723 C207.859587,97.3848801 194.11479,72.90022 173.144944,58.1019898 Z M94.1624889,126.027992 C94.1624889,107.549791 109.07443,92.5577188 127.453867,92.5577188 C145.833304,92.5577188 160.745244,107.549791 160.745244,126.027992 C160.745244,144.523366 145.833304,159.515438 127.453867,159.515438 C109.057349,159.515438 94.1624889,144.540539 94.1624889,126.027992 Z" id="Shape-Copy-2" fill="#FFFFFF" fill-rule="nonzero"></path>
                <g id="USDc" transform="translate(65.422222, 62.577778)" fill-rule="nonzero">
                    <path d="M125.155653,62.6871122 C125.215828,28.1263893 97.2476675,0.0605428093 62.6868787,-9.74757522e-05 C28.126287,-0.0603472262 0.0604675172,27.9077205 -9.66032979e-05,62.4684433 C-0.0600763978,97.0291664 27.9080848,125.095013 62.4686763,125.155653 C97.029465,125.215903 125.095285,97.247835 125.155653,62.6871122 Z" id="Path" fill="#3574B9"></path>
                    <path d="M49.9312865,106.403876 C49.9312865,107.932851 48.9467349,108.468148 47.4697222,108.468148 C38.525353,105.472439 30.7184447,99.5436513 25.1827515,91.5429586 C19.6472437,83.5420703 16.6713476,73.8859674 16.6873428,63.9771884 C16.7035976,54.0684095 19.7110023,44.423267 25.2726437,36.4425381 C30.8342849,28.4618089 38.6604692,22.5614008 47.6144765,19.598377 C49.0625755,19.0938077 50.0760408,20.1184084 50.0615839,21.6779152 L50.0615839,25.3629546 C50.0725191,25.8935548 49.9427777,26.4167177 49.6868167,26.8733354 C49.4310409,27.329953 49.0592393,27.702019 48.6136704,27.9472578 C41.570568,30.6243328 35.479211,35.5273455 31.1684617,41.9894736 C26.8575271,48.4516016 24.5362688,56.1592994 24.5205145,64.0636974 C24.5047602,71.9682907 26.7950659,79.6861662 31.0800523,86.1674749 C35.3648535,92.6487836 41.4365636,97.5790015 48.4689161,100.287588 C48.9155971,100.531456 49.2883254,100.902935 49.5442864,101.359944 C49.8004329,101.816953 49.929433,102.340899 49.9168296,102.871695 L49.9312865,106.403876 Z" id="Path" fill="#FFFFFF"></path>
                    <path d="M65.4536178,92.3745823 C65.4369161,92.9357804 65.2273991,93.4701787 64.8658944,93.8743774 C64.5042042,94.2785764 64.016136,94.5235755 63.4963339,94.5619752 L59.5674763,94.5619752 C59.0571389,94.5249755 58.5768647,94.2887762 58.2166591,93.8977775 C57.8562679,93.5065788 57.6408127,92.9871804 57.6101925,92.436982 L57.6101925,86.187002 C49.7521064,85.1090057 45.8375384,80.3590209 44.3733333,73.4840428 C44.3733333,72.4370463 44.8807017,71.3746495 45.8230633,71.3746495 L50.2449997,71.3746495 C51.2164969,71.3746495 51.6949154,71.9058478 52.2022838,72.9372447 C53.1735953,76.6402327 55.1019292,79.8120226 61.5100999,79.8278226 C66.4106402,79.8278226 69.8466042,77.2028308 69.8610793,72.9840444 C69.8755541,68.765258 67.9039809,67.1714631 61.0461565,66.0934665 C50.7380787,64.5308715 45.8375384,61.3120819 45.8520135,52.3435105 C45.8520135,45.4841324 50.7815037,40.2029494 57.6536175,39.1715527 L57.6536175,32.7029734 C57.6846089,32.1543751 57.9006211,31.6369769 58.2611977,31.248378 C58.6217745,30.8597794 59.101863,30.6267802 59.6109016,30.5935804 L63.5399447,30.5935804 C64.048983,30.6267802 64.528886,30.8597794 64.8894629,31.248378 C65.2500395,31.6369769 65.4662372,32.1543751 65.4972285,32.7029734 L65.4972285,39.046553 C71.38337,40.1091499 75.2979379,43.8121378 76.2694352,49.6247194 C76.2694352,50.6715159 75.7763564,51.7341124 74.8195197,51.7341124 L70.9196123,51.7341124 C69.93364,51.7341124 69.4696966,51.2029141 68.9623282,50.1715174 C67.9908309,46.4685295 65.5406535,44.8747344 61.1187172,44.8747344 C56.2183626,44.8747344 53.7535246,47.4997262 53.7535246,51.1247144 C53.7535246,54.7497028 55.2034401,56.937096 62.5686329,58.0152923 C72.8622356,59.5778873 77.7627759,62.7964772 77.7481807,71.7652483 C77.7481807,78.6246263 72.8332857,84.4214079 65.4682786,85.9996026 L65.4536178,92.3745823 Z" id="Path" fill="#FFFFFF"></path>
                    <path d="M77.5388646,108.332863 C76.0921264,108.852666 75.094057,107.812865 75.094057,106.26872 L75.094057,102.644972 C75.082391,102.116362 75.2120104,101.594993 75.4677311,101.140753 C75.7236369,100.686512 76.0954596,100.317601 76.5406097,100.076291 C83.5776495,97.4009492 89.6642082,92.4996127 93.9723881,86.0386711 C98.2803829,79.5779251 100.600941,71.8714914 100.618347,63.9673916 C100.635753,56.0632917 98.349081,48.3455067 94.0694175,41.8634286 C89.7899389,35.3815461 83.7250452,30.4502662 76.6996713,27.7404791 C76.2545212,27.4952557 75.8830689,27.1232129 75.6275334,26.6666237 C75.3718127,26.2100346 75.2421934,25.6869044 75.2531183,25.156533 L75.2531183,21.5327849 C75.2531183,20.0037104 76.2367448,19.468642 77.7123695,19.468642 C95.3180231,25.7068667 108.496987,43.3054126 108.468195,63.9619118 C108.437548,73.8702674 105.42371,83.5112849 99.8630363,91.48858 C94.3023622,99.4660708 86.4835322,105.365523 77.5388646,108.332863 L77.5388646,108.332863 Z" id="Path" fill="#FFFFFF"></path>
                </g>
                <g id="CircleLogo-Copy-15" transform="translate(177.000000, 176.000000)">
                    <g id="Group-3">
                        <path d="M39.5,79 C61.3152476,79 79,61.3152476 79,39.5 C79,17.6847524 61.3152476,0 39.5,0 C17.6847524,0 0,17.6847524 0,39.5 C0,51.5983313 5.43913244,62.4262851 14.0054832,69.6719474 C14.5825521,70.1600486 15.1738122,70.6318933 15.7785569,71.086775 C22.383945,76.055268 30.598083,79 39.5,79 Z" id="Oval" stroke="url(#linearGradient-2)" stroke-width="7" fill="#FFFFFF"></path>
                        <g id="Group-2" transform="translate(21.000000, 17.000000)">
                            <g id="noun_Shield_874633"></g>
                            <g id="Group" fill="url(#linearGradient-4)">
                                <path d="M18.4999723,0.0582075 C12.8315663,3.79774879 7.16408526,5.9142175 1.49567923,7.16687388 C-2.81210477,21.3489422 1.98484151,38.7651748 18.4999723,44.8974932 C35.0151592,38.7651748 39.8121054,21.3489422 35.5043214,7.16687388 C29.8359154,5.9142175 24.1683783,3.79774879 18.4999723,0.0582075 Z" id="Path"></path>
                            </g>
                        </g>
                    </g>
                </g>
            </g>
        </g>
    </g>
</svg>