<?xml version="1.0" encoding="UTF-8"?>
<svg width="100px" height="100px" viewBox="0 0 100 100" version="1.1" xmlns="http://www.w3.org/2000/svg" xmlns:xlink="http://www.w3.org/1999/xlink">
    <!-- Generator: Sketch 55.2 (78181) - https://sketchapp.com -->
    <title>Group 6</title>
    <desc>Created with Sketch.</desc>
    <defs>
        <linearGradient x1="93.5%" y1="93.4997622%" x2="13.5000002%" y2="13.4999657%" id="linearGradient-1">
            <stop stop-color="#003CDA" offset="15.9375%"></stop>
            <stop stop-color="#33DFCC" offset="100%"></stop>
        </linearGradient>
    </defs>
    <g id="Tickers" stroke="none" stroke-width="1" fill="none" fill-rule="evenodd">
        <g id="Group-6" fill-rule="nonzero">
            <g id="itoken_circle_ZRX">
                <path d="M50,19.2813 C56.0756,19.2813 62.0148,21.0829 67.0664,24.4583 C72.1181,27.8337 76.0554,32.6313 78.3804,38.2444 C80.7055,43.8576 81.3138,50.0341 80.1285,55.9929 C78.9432,61.9518 76.0176,67.4253 71.7215,71.7214 C67.4254,76.0175 61.9518,78.9432 55.993,80.1285 C50.0341,81.3138 43.8576,80.7055 38.2445,78.3804 C32.6314,76.0554 27.8337,72.1181 24.4583,67.0664 C21.0829,62.0148 19.2813,56.0756 19.2813,50 C19.2916,41.8561 22.5314,34.0486 28.29,28.29 C34.0486,22.5313 41.8561,19.2916 50,19.2813 L50,19.2813 Z M49.9999998,0 C40.111,0 30.444,2.93245 22.2215,8.42652 C13.9991,13.9206 7.59043,21.7295 3.80605,30.8658 C0.0216641,40.0021 -0.968503,50.0555 0.960758,59.7545 C2.89002,69.4536 7.65206,78.3627 14.6447,85.3553 C21.6373,92.348 30.5465,97.11 40.2455,99.0393 C49.9446,100.969 59.9979,99.9784 69.1342,96.194 C78.2705,92.4096 86.0794,86.001 91.5735,77.7785 C97.0676,69.5561 99.9999998,59.8891 99.9999998,50 C99.9999998,36.7392 94.7322,24.0215 85.3554,14.6447 C75.9785,5.26784 63.2608,0 49.9999998,0 L49.9999998,0 Z" id="Shape" fill="url(#linearGradient-1)"></path>
                <path d="M50,89.1953 C71.647,89.1953 89.1953,71.647 89.1953,50 C89.1953,28.353 71.647,10.8047 50,10.8047 C28.353,10.8047 10.8047,28.353 10.8047,50 C10.8047,71.647 28.353,89.1953 50,89.1953 Z" id="Path" fill="#FFFFFF"></path>
                <path d="M41.625,63.0078 C39.3359,64.7031 37.1562,66.3359 34.9375,67.9219 C34.7921,67.9613 34.6394,67.9648 34.4925,67.9321 C34.3455,67.8995 34.2086,67.8316 34.0937,67.7344 C31.0789,65.0793 28.7998,61.6915 27.4765,57.8984 C26.4151,54.9925 25.9527,51.9018 26.1171,48.8125 C26.3024,45.4111 27.2078,42.0878 28.7734,39.0625 C28.8984,38.8125 29.0468,38.5703 29.2578,38.1875 C29.8828,38.9687 30.4531,39.75 31.0078,40.4531 C33.8515,44.1875 36.6875,47.9375 39.5546,51.6641 C39.644,51.7434 39.7139,51.8423 39.7591,51.9529 C39.8043,52.0636 39.8234,52.1831 39.8151,52.3024 C39.8068,52.4216 39.7713,52.5373 39.7112,52.6407 C39.6512,52.744 39.5682,52.8322 39.4687,52.8984 C38.4687,53.8437 37.5546,54.875 36.5468,55.8203 C36.4392,55.8992 36.3488,55.9994 36.2814,56.1146 C36.2139,56.2298 36.1708,56.3576 36.1547,56.4901 C36.1386,56.6226 36.1498,56.7571 36.1877,56.8851 C36.2256,57.0131 36.2893,57.132 36.375,57.2344 C37.5249,59.3054 39.1109,61.102 41.0234,62.5 C41.1875,62.6328 41.3359,62.7656 41.625,63.0078 Z" id="Path" fill="#FFFFFF"></path>
                <path d="M36.9844,41.6172 C35.8359,40.1016 34.7578,38.6876 33.6875,37.2579 C33.1406,36.5313 32.625,35.7813 32.0781,35.0626 C32.0153,35.0083 31.9649,34.9411 31.9304,34.8656 C31.8958,34.7901 31.8779,34.7081 31.8779,34.6251 C31.8779,34.542 31.8958,34.46 31.9304,34.3845 C31.9649,34.309 32.0153,34.2418 32.0781,34.1876 C35.3979,30.4544 39.8008,27.8514 44.6719,26.7422 C47.8984,25.9883 51.2481,25.9271 54.5,26.5626 C56.9444,27.0383 59.3004,27.8895 61.4844,29.086 C61.6194,29.1807 61.7474,29.2852 61.8672,29.3985 C60.8828,30.1172 59.9531,30.7969 59.0156,31.4688 C55.3594,34.0782 51.6875,36.6719 48.0781,39.2813 C47.5781,39.6407 47.2969,39.6407 46.8438,39.1797 C45.9531,38.2422 44.9844,37.3751 44.0859,36.4376 C43.9528,36.2642 43.7566,36.1505 43.54,36.1212 C43.3234,36.092 43.104,36.1495 42.9297,36.2813 C40.8575,37.3816 39.0541,38.9262 37.6484,40.8047 C37.4531,41.0469 37.2656,41.2657 36.9844,41.6172 Z" id="Path" fill="#FFFFFF"></path>
                <path d="M58.3594,36.9921 C59.8437,35.8671 61.2422,34.7968 62.6484,33.7421 C63.4297,33.1796 64.2109,32.664 64.9063,32.0859 C65.2344,31.8359 65.4531,31.8046 65.7734,32.0859 C69.1891,35.0824 71.6751,38.9944 72.9375,43.3593 C73.6861,45.8176 74.0084,48.386 73.8906,50.9531 C73.7176,54.5909 72.7184,58.1417 70.9687,61.3359 C70.9687,61.3984 70.8672,61.4374 70.7187,61.5702 C70.0703,60.7187 69.4219,59.8984 68.7891,59.0546 C66.1589,55.5598 63.5182,52.0598 60.8672,48.5546 C59.9922,47.3906 60.1563,47.6562 60.9375,46.8124 C61.7188,45.9687 62.6406,44.9921 63.5391,44.1327 C63.7211,43.9881 63.8393,43.778 63.8685,43.5474 C63.8977,43.3167 63.8355,43.0838 63.6953,42.8984 C62.5801,40.8046 61.0138,38.9847 59.1094,37.5702 L58.3594,36.9921 Z" id="Path" fill="#FFFFFF"></path>
            </g>
            <g id="tether-seeklogo.com" transform="translate(19.000000, 19.000000)">
                <path d="M31.5,0 C48.89619,0 63,14.10381 63,31.5 C63,48.89619 48.89556,63 31.5,63 C14.10444,63 0,48.89997 0,31.5 C0,14.10003 14.10192,0 31.5,0" id="Path" fill="#53AE94"></path>
                <path d="M35.941048,27.8494918 L35.941048,23.1608523 L46.7137354,23.1608523 L46.7137354,16.0169492 L17.3793953,16.0169492 L17.3793953,23.1608523 L28.1533494,23.1608523 L28.1533494,27.8457097 C19.3972554,28.2459901 12.8135593,29.9719238 12.8135593,32.0395143 C12.8135593,34.1071047 19.4004221,35.8330384 28.1533494,36.2358403 L28.1533494,51.2542373 L35.9435814,51.2542373 L35.9435814,36.2345796 C44.6838416,35.8330384 51.2542373,34.1083654 51.2542373,32.0426661 C51.2542373,29.9769667 44.6838416,28.2522937 35.9435814,27.8507526 M35.9435814,34.9625072 L35.9435814,34.958725 C35.7238082,34.972593 34.5945412,35.0400418 32.080133,35.0400418 C30.0698732,35.0400418 28.6555977,34.9833092 28.1571495,34.9574643 L28.1571495,34.9637679 C20.4213859,34.6227416 14.6471139,33.2819596 14.6471139,31.6776859 C14.6471139,30.0734123 20.4220192,28.7345214 28.1571495,28.3928647 L28.1571495,33.6280289 C28.6638313,33.6626988 30.1129411,33.7477978 32.1130673,33.7477978 C34.5153722,33.7477978 35.7231748,33.6482005 35.9448481,33.6280289 L35.9448481,28.3928647 C43.6654113,28.7351518 49.4263829,30.0771944 49.4263829,31.6757949 C49.4263829,33.2743953 43.6628779,34.6170683 35.9448481,34.9593554" id="Shape" fill="#FFFFFF"></path>
            </g>
        </g>
    </g>
</svg>