<svg viewBox="0 0 256 256" fill="none" xmlns="http://www.w3.org/2000/svg">
    <g>
        <path d="M128 228C183.228 228 228 183.228 228 128C228 72.7715 183.228 28 128 28C72.7714 28 27.9999 72.7715 27.9999 128C27.9999 183.228 72.7714 228 128 228Z" fill="white"></path>
        <ellipse cx="128" cy="128" rx="80" ry="80" fill="#26A17B"></ellipse>
        <path d="M136.834 134.763V134.751C136.274 134.789 133.383 134.956 126.948 134.956C121.803 134.956 118.196 134.815 116.919 134.751V134.763C97.1343 133.904 82.3771 130.518 82.3771 126.452C82.3771 122.399 97.1473 119 116.919 118.141V131.39C118.209 131.48 121.921 131.698 127.039 131.698C133.187 131.698 136.261 131.441 136.834 131.39V118.153C156.58 119.026 171.298 122.412 171.298 126.465C171.298 130.518 156.567 133.904 136.834 134.776V134.763ZM136.834 116.781V104.929H164.382V86.8572H89.3845V104.929H116.932V116.781C94.5424 117.794 77.7142 122.155 77.7142 127.388C77.7142 132.621 94.5554 136.982 116.932 138.008V176H136.847V138.008C159.198 136.995 176 132.634 176 127.401C176 122.181 159.198 117.807 136.847 116.794" fill="white"></path>
    </g>
</svg>