<?xml version="1.0" encoding="UTF-8"?>
<svg width="100px" height="114px" viewBox="0 0 100 114" version="1.1" xmlns="http://www.w3.org/2000/svg" xmlns:xlink="http://www.w3.org/1999/xlink">
    <!-- Generator: Sketch 52 (66869) - http://www.bohemiancoding.com/sketch -->
    <title>SymbolSVG</title>
    <desc>Created with Sketch.</desc>
    <defs>
        <linearGradient x1="50%" y1="97.784%" x2="50%" y2="1.559%" id="linearGradient-1">
            <stop stop-color="#08BCCD" offset="0%"></stop>
            <stop stop-color="#2DA1F8" offset="100%"></stop>
        </linearGradient>
        <linearGradient x1="50%" y1="97.784%" x2="41.849%" y2="-16.397%" id="linearGradient-2">
            <stop stop-color="#08BCCD" offset="0%"></stop>
            <stop stop-color="#2DA1F8" offset="100%"></stop>
        </linearGradient>
    </defs>
    <g id="Page-1" stroke="none" stroke-width="1" fill="none" fill-rule="evenodd">
        <g id="Symbol" fill-rule="nonzero">
            <ellipse id="Oval" fill="url(#linearGradient-1)" cx="47.1678322" cy="79.6923077" rx="7.30769231" ry="7.36672189"></ellipse>
            <path d="M99.6503497,28.4615385 L49.8251748,0 L0,28.4615385 L0,85.3846154 L49.8251748,113.846154 L99.6503497,85.3846154 L99.6503497,28.4615385 Z M65.7395105,24.608284 C65.7376139,26.4051099 64.2882452,27.8634131 62.4947552,27.8730414 L50.4265734,27.8730414 L50.4265734,34.9034793 L59.3286713,34.9034793 C60.1910892,34.9053354 61.0174485,35.2503431 61.6259586,35.8626043 C62.2344686,36.4748655 62.5752832,37.3042267 62.5734266,38.1682367 C62.5763262,39.9667614 61.12388,41.4273771 59.3286713,41.4312426 L50.4265734,41.4312426 L50.4265734,66.4598817 C50.4318182,66.5754793 50.4318182,66.6910769 50.4265734,66.8066746 C56.7237762,68.4740828 60.8181818,74.5762367 60.0052448,81.0742249 C59.1905594,87.572213 53.7185315,92.4605917 47.208042,92.5043787 C40.6958042,92.5481657 35.1590909,87.7351006 34.2587413,81.2476213 C33.3583916,74.760142 37.3706294,68.6054438 43.6468531,66.852213 C43.6316914,66.7260731 43.6235204,66.5991881 43.6223776,66.472142 L43.6223776,24.7781775 C43.6200567,23.8717546 43.977483,23.0015836 44.6159288,22.3593309 C45.2543746,21.7170783 46.1214693,21.355427 47.0262238,21.3540355 C47.3111888,21.3540355 47.5944056,21.392568 47.8706294,21.4643787 C48.1380208,21.3922011 48.4136345,21.35511 48.6905594,21.3540355 L62.5052448,21.3540355 C64.2987347,21.3636638 65.7481034,22.8219671 65.75,24.6187929 L65.7395105,24.6100355 L65.7395105,24.608284 Z" id="Shape" fill="url(#linearGradient-2)"></path>
        </g>
    </g>
</svg>