<?xml version="1.0" encoding="UTF-8"?>
<svg width="25px" height="28px" viewBox="0 0 25 28" version="1.1" xmlns="http://www.w3.org/2000/svg" xmlns:xlink="http://www.w3.org/1999/xlink">
    <!-- Generator: Sketch 52.5 (67469) - http://www.bohemiancoding.com/sketch -->
    <title>MCO Token_RGB</title>
    <desc>Created with Sketch.</desc>
    <g id="Page-1" stroke="none" stroke-width="1" fill="none" fill-rule="evenodd">
        <g id="MCO-Token_RGB" fill="#002D74" fill-rule="nonzero">
            <path d="M12.0354098,0.146885246 L0.0413114754,7.06885246 L0.0413114754,20.917377 L12.0354098,27.8393443 L24.024918,20.917377 L24.024918,7.06885246 L12.0354098,0.146885246 Z M7.29836066,6.11409836 L16.7357377,6.11409836 L17.8740984,10.9245902 L6.20590164,10.9245902 L7.29836066,6.11409836 Z M11.0898361,20.5272131 L9.05180328,22.455082 L7.3304918,22.455082 L3.02032787,14.9455738 L6.18295082,12.5908197 L8.97836066,14.3672131 L8.97836066,17.5803279 L11.0898361,19.6045902 L11.0898361,20.5272131 Z M9.71278689,17.3508197 L10.0295082,14.3396721 L8.99672131,11.6544262 L15.1016393,11.6544262 L14.0918033,14.3396721 L14.3855738,17.3416393 L12.0354098,17.3416393 L9.71278689,17.3508197 Z M16.7678689,22.4 L15.0557377,22.4 L13.0177049,20.522623 L13.0177049,19.5908197 L15.1337705,17.5665574 L15.1337705,14.3534426 L17.8878689,12.5586885 L21.0413115,14.9318033 L16.7678689,22.4 Z" id="Shape"></path>
        </g>
    </g>
</svg>