<?xml version="1.0" encoding="UTF-8"?>
<svg width="108px" height="108px" viewBox="0 0 108 108" version="1.1" xmlns="http://www.w3.org/2000/svg" xmlns:xlink="http://www.w3.org/1999/xlink">
    <!-- Generator: Sketch 63.1 (92452) - https://sketch.com -->
    <title>mfg</title>
    <desc>Created with Sketch.</desc>
    <g id="mfg" stroke="none" stroke-width="1" fill="none" fill-rule="evenodd">
        <circle id="Oval" fill="#FFFFFF" cx="54" cy="54" r="46"></circle>
        <g id="mfg-logo" fill="#FCBE13" fill-rule="nonzero">
            <path d="M4.45958225,33.498329 C6.28402089,33.6322715 8.08872063,33.7394256 9.88637076,33.9072063 C10.674517,33.9805222 11.2243864,33.9001567 11.6628721,33.0795822 C12.6625065,31.2198956 13.7890339,29.4264752 14.8845431,27.6203655 C15.1806266,27.1325326 15.156658,26.7518538 14.8182768,26.2767102 C13.5648564,24.5185379 12.3678329,22.7208877 11.1172324,20.9584856 C10.8225587,20.5439687 10.8507572,20.2732637 11.2046475,19.9348825 C14.148564,17.1028198 17.0873107,14.2646475 20.0208877,11.4203655 C20.4438642,11.0143081 20.8019843,11.1158225 21.2066319,11.4020366 C22.8167624,12.5426632 24.4494517,13.6579112 26.0342037,14.8253264 C26.5981723,15.2398433 27.0380679,15.2976501 27.6711227,14.9056919 C29.5660574,13.7312272 31.5061097,12.6258486 33.4419321,11.5218799 C33.8888773,11.2666841 34.0538381,10.9917493 33.9918016,10.4517493 C33.7521149,8.37775457 33.5899739,6.29530026 33.354517,4.21989556 C33.2910705,3.65592689 33.5053786,3.47122715 33.9889817,3.34010444 C37.9499217,2.25164491 41.9089817,1.15519582 45.8661619,0.0507571802 C46.3878329,-0.0902349869 46.6486684,0.0761357702 46.853107,0.532950392 C47.6680418,2.30381201 48.5224543,4.05775457 49.3134204,5.83848564 C49.5954047,6.47718016 49.949295,6.76480418 50.688094,6.74929504 C52.9185901,6.7013577 55.151906,6.71686684 57.383812,6.74929504 C57.9252219,6.74929504 58.2565535,6.58997389 58.4891906,6.09368146 C59.3351436,4.28616188 60.227624,2.49979112 61.0594778,0.685221932 C61.3019843,0.156501305 61.5881984,-0.00563968668 62.1507572,0.14381201 C65.3710183,0.999634465 68.598329,1.83571802 71.8242298,2.68167102 C72.5291906,2.86496084 73.2341514,3.04966057 73.9391123,3.21885117 C74.4072063,3.33023499 74.5975457,3.60375979 74.5580679,4.08313316 C74.3874674,6.11765013 74.2648042,8.15639687 74.0434465,10.1852742 C73.9687206,10.8789556 74.1379112,11.2525849 74.7484073,11.5951958 C76.7081984,12.7118538 78.6383812,13.877859 80.5629243,15.0509138 C80.964752,15.2948303 81.2467363,15.2891906 81.6344648,15.0100261 C83.3461097,13.769295 85.0901828,12.5736815 86.8088773,11.3442298 C87.2248042,11.0453264 87.461671,11.0396867 87.8508094,11.4570235 C90.6029765,14.4140992 93.3800522,17.3472063 96.1820366,20.2563446 C96.6698695,20.7639164 96.8644386,21.1022977 96.3399478,21.7790601 C95.2120104,23.22 94.2250653,24.7695039 93.1464752,26.2456919 C92.8236031,26.6855875 92.753107,27.0408877 93.0379112,27.5146214 C94.1846475,29.429295 95.3125849,31.3528982 96.4217232,33.2854308 C96.7178068,33.7972324 97.0956658,34.001671 97.6906527,33.948094 C99.7237598,33.7633943 101.761097,33.6280418 103.792794,33.4278329 C104.366632,33.371436 104.647206,33.5053786 104.800888,34.0890862 C105.811332,37.9513316 106.841514,41.8084073 107.891436,45.6603133 C108.059217,46.2792689 107.939373,46.6641775 107.307728,46.9461619 C105.507258,47.7484073 103.732167,48.6126893 101.938747,49.4318538 C101.448094,49.6560313 101.283133,49.9450653 101.297232,50.5160836 C101.352219,52.7719582 101.34376,55.0278329 101.318381,57.2837076 C101.318381,57.8984334 101.472063,58.2593734 102.076919,58.5244386 C103.795614,59.2801567 105.47201,60.1317493 107.185065,60.9029765 C107.837859,61.1962402 108.018329,61.5318016 107.82517,62.2635509 C106.898851,65.7573368 106.066997,69.2765013 105.146319,72.7716971 C104.58235,74.8865796 105.068773,74.4777023 102.826997,74.376188 C101.092794,74.2986423 99.3628198,74.1280418 97.632846,73.9814099 C97.0984856,73.9362924 96.7713838,74.1322715 96.497859,74.6045953 C95.3797911,76.5347781 94.2419843,78.4565013 93.0689295,80.351436 C92.7319582,80.8942559 92.8179634,81.2763446 93.1591645,81.7444386 C94.428094,83.4941514 95.6547258,85.2692428 96.929295,87.0161358 C97.3184334,87.5490862 97.2324282,87.8790078 96.7629243,88.3217232 C93.9430809,90.9789556 91.1439164,93.6578068 88.3654308,96.3582768 C87.8381201,96.8728982 87.4729504,96.9969713 86.8272063,96.5274674 C85.1959269,95.3389034 83.4955614,94.2448042 81.8417232,93.0872585 C81.3764491,92.7629765 80.9830809,92.7305483 80.4881984,93.0181723 C78.4955091,94.1714883 76.4934204,95.3069452 74.4819321,96.4245431 C74.0758747,96.6501305 73.9179634,96.9067363 73.9757702,97.3776501 C74.214047,99.4290862 74.3987467,101.486162 74.6511227,103.536188 C74.7343081,104.204491 74.4777023,104.458277 73.8770757,104.620418 C69.9556136,105.684439 66.0383812,106.765379 62.1253786,107.863238 C61.5938381,108.012689 61.3273629,107.892846 61.0947258,107.369765 C60.2149347,105.395875 59.2716971,103.451593 58.3792167,101.484752 C58.193107,101.075875 57.942141,100.933473 57.5135248,100.934883 C55.187154,100.946162 52.8607833,100.957441 50.5344125,100.926423 C49.9055875,100.926423 49.6785901,101.271854 49.4628721,101.746997 C48.6169191,103.605274 47.7427676,105.452272 46.9151436,107.319008 C46.7036554,107.796971 46.476658,107.949243 45.9549869,107.808251 C42.0316449,106.756449 38.1031332,105.722507 34.1694517,104.706423 C33.4997389,104.534413 33.3037598,104.196031 33.3742559,103.555927 C33.5942037,101.573577 33.7704439,99.5855875 34.0101305,97.6060574 C34.0721671,97.0886162 33.966423,96.7601044 33.5110183,96.4992689 C31.5371279,95.364752 29.5693473,94.2175457 27.6076762,93.0576501 C27.0676762,92.736188 26.6475196,92.7756658 26.135718,93.1380157 C24.4297128,94.3463185 22.6771802,95.4869452 20.9754047,96.6994778 C20.411436,97.1013055 20.0744648,97.0279896 19.6176501,96.5316971 C17.0619321,93.7494517 14.4864752,90.9841253 11.8912794,88.235718 C10.9480418,87.2346736 10.926893,87.1994256 11.7390078,86.0644386 C12.7922193,84.5938903 13.8327415,83.1148825 14.8901828,81.648564 C15.1721671,81.2608355 15.2031854,80.9295039 14.9437598,80.4938381 C13.7566057,78.4945692 12.5990601,76.4783812 11.4443342,74.4607833 C11.2257963,74.0786945 10.9198433,73.9602611 10.5081462,73.9912794 C8.87122715,74.1153525 7.22584856,74.1731593 5.59597911,74.3677285 C3.39650131,74.6201044 3.38381201,74.6567624 2.81984334,72.5489295 C1.89070496,69.0537337 0.98694517,65.5528982 0.0521671018,62.0591123 C-0.0803655352,61.56 0.0281984334,61.2850653 0.51462141,61.0637076 C2.33201044,60.2360836 4.12402089,59.3548825 5.94140992,58.5258486 C6.50537859,58.2692428 6.74224543,57.9350914 6.73237598,57.2921671 C6.69430809,55.0362924 6.70699739,52.7804178 6.73237598,50.5245431 C6.73237598,50.0099217 6.56882507,49.7293473 6.08099217,49.5079896 C4.28334204,48.6930548 2.51671018,47.8160836 0.723289817,46.9785901 C0.159321149,46.7135248 -0.0592167102,46.4146214 0.125483029,45.7265796 C1.1448564,41.8746736 2.11488251,38.0002089 3.06798956,34.1201044 C3.29075718,33.2219843 3.95906005,33.5899739 4.45958225,33.498329 Z M40.0657441,51.5862141 C40.1456062,51.7969088 40.2115444,52.012621 40.2631332,52.2319582 C40.7481462,55.9287728 41.2402089,59.6241775 41.6998433,63.323812 C41.7689295,63.8807311 41.9818277,64.1147781 42.5373368,64.1034987 C43.5947781,64.0809399 44.6522193,64.0753003 45.7082507,64.1034987 C46.3483551,64.1232376 46.5542037,63.8722715 46.4428198,63.2575457 C46.2877285,62.4510705 46.152376,61.6417755 46.0198433,60.8310705 C45.5122715,57.6869452 45.0070496,54.5362402 44.5041775,51.3789556 C44.1046997,48.8768146 43.7118016,46.3732637 43.325483,43.8683029 C43.2437076,43.3409922 43.0068407,43.0801567 42.4414621,43.109765 C41.8084073,43.1436031 41.1725326,43.109765 40.5380679,43.1168146 C39.1648042,43.1168146 39.1648042,43.1168146 38.6769713,44.4153525 C38.6515927,44.4816188 38.6374935,44.5563446 38.610705,44.6169713 C37.1537859,48.1051175 35.6968668,51.5918538 34.2399478,55.0771802 C34.1722715,55.2379112 34.1581723,55.5001567 33.9283551,55.5001567 C33.6985379,55.5001567 33.6252219,55.2322715 33.5462663,55.044752 C32.9569191,53.6348303 32.3760313,52.2249086 31.7909138,50.8149869 C30.8058486,48.4510183 29.8212533,46.0879896 28.8371279,43.7259008 C28.6961358,43.3748303 28.529765,43.109765 28.0870496,43.1168146 C27.125483,43.1323238 26.1610966,43.1168146 25.1981201,43.1168146 C24.8103916,43.1168146 24.5848042,43.2803655 24.534047,43.6807833 C24.3042298,45.4727937 23.9926371,47.250705 23.688094,49.0384856 C23.1495039,52.253107 22.6644909,55.4775979 22.1512794,58.6964491 C21.9144125,60.1810966 21.6493473,61.6572846 21.4251697,63.144752 C21.3039164,63.954047 21.4322193,64.0908094 22.1907572,64.0964491 C23.2242298,64.1049086 24.2577023,64.0823499 25.2925849,64.0964491 C25.8988512,64.1077285 26.0948303,63.8045953 26.1653264,63.2504961 C26.6291906,59.5494517 27.1170235,55.8512272 27.6020366,52.1530026 C27.6217755,52.0049608 27.6020366,51.8118016 27.8586423,51.7709138 C28.0348825,51.9274151 28.0884595,52.1586423 28.1772846,52.3715405 C29.7056397,56.0077285 31.2424543,59.6396867 32.75953,63.2801044 C32.9963969,63.8440731 33.3305483,64.1260574 33.9777023,64.1119582 C34.5825587,64.1049086 34.8405744,63.8229243 35.0520627,63.3097128 C36.2269974,60.4682507 37.4202611,57.6324282 38.6318538,54.8022454 C39.0618799,53.7786423 39.401671,52.7071018 40.0657441,51.5862141 Z M81.0267885,52.704282 C79.5477807,52.704282 78.065953,52.7155614 76.5883551,52.704282 C76.0483551,52.704282 75.8185379,52.9157702 75.834047,53.4585901 C75.8537859,54.2086684 75.8566057,54.9615666 75.834047,55.7144648 C75.815718,56.2925326 76.0624543,56.5124804 76.6306527,56.502611 C77.8051175,56.4814621 78.9795822,56.4885117 80.1554569,56.502611 C80.9083551,56.5096606 80.9830809,56.6548825 80.7025065,57.3401044 C79.938329,59.2054308 78.4353525,59.9822977 76.5446475,60.2515927 C73.8657963,60.6350914 71.5873629,59.5184334 70.3142037,57.1356658 C69.5993734,55.7990601 69.5359269,54.3538903 69.6092428,52.8861619 C69.8052219,48.9214621 73.1735248,46.2750392 77.021201,47.051906 C78.6228721,47.3747781 79.7620888,48.3208355 80.64047,49.643342 C80.8590078,49.9718538 81.0634465,50.1791123 81.486423,49.9366057 C82.548094,49.3345692 83.6252742,48.7607311 84.6982245,48.1770235 C85.0605744,47.9796345 85.13953,47.7216188 84.8956136,47.3705483 C83.4574935,45.3162924 81.7063708,43.686423 79.1797911,43.073107 C77.2789244,42.6191832 75.3068343,42.5472966 73.3779634,42.8616188 C70.0082507,43.3875196 67.5140992,45.1908094 65.9631854,48.2024021 C64.3629243,51.3042298 64.2825587,54.5837076 65.4203655,57.8406266 C66.2747781,60.2868407 67.8623499,62.2113838 70.2042298,63.4309661 C72.5461097,64.6505483 75.0755091,64.7210444 77.6246475,64.3953525 C79.7522168,64.1531908 81.7129349,63.1260761 83.123342,61.5148825 C85.1649086,59.1997911 85.9530548,56.375718 86.2251697,53.369765 C86.2759269,52.8057963 85.931906,52.7056919 85.4708616,52.7071018 C83.9862141,52.7085117 82.5072063,52.704282 81.0267885,52.704282 Z M50.3215144,53.550235 C50.3215144,56.6962402 50.3215144,59.8422454 50.3215144,62.9882507 C50.3215144,64.0005744 50.4159791,64.097859 51.3888251,64.1020888 C52.3278329,64.1020888 53.2682507,64.0738903 54.2086684,64.1119582 C54.8938903,64.1387467 55.1067885,63.8567624 55.0997389,63.1969191 C55.0729504,60.8719582 55.0856397,58.5441775 55.0898695,56.2234465 C55.0898695,55.3225065 55.1660052,55.2477807 56.0443864,55.2435509 C57.5953003,55.2435509 59.1462141,55.2280418 60.6971279,55.2435509 C61.2427676,55.2506005 61.4584856,55.0377023 61.4415666,54.4934726 C61.4175979,53.6968668 61.4077285,52.8960313 61.4415666,52.0966057 C61.4711749,51.4720104 61.2159791,51.2802611 60.6153525,51.2901305 C59.0418799,51.3197389 57.4684073,51.2802611 55.8949347,51.3084595 C55.2759791,51.3211488 55.0574413,51.0814621 55.08,50.4808355 C55.1110183,49.6602611 55.08,48.8368668 55.0898695,48.0148825 C55.0898695,47.1322715 55.1631854,47.0589556 56.0627154,47.0561358 C57.7997389,47.0490862 59.5367624,47.0434465 61.2794256,47.0561358 C61.7884073,47.0561358 62.0041253,46.8700261 61.9843864,46.3511749 C61.9618277,45.5771279 61.9843864,44.8002611 61.9843864,44.0262141 C61.9843864,43.1718016 61.9251697,43.1168146 61.0496084,43.1154047 C57.7870496,43.1154047 54.5235509,43.1154047 51.2591123,43.1154047 C50.3920104,43.1154047 50.3299739,43.1760313 50.3299739,44.0332637 C50.3224543,47.2046475 50.3196345,50.3755614 50.3215144,53.5460052 L50.3215144,53.550235 Z M97.3706005,54.305953 C97.3706005,53.8829765 97.3706005,53.46 97.3706005,53.0370235 C97.3466319,51.983812 96.965953,51.3451175 96.3695561,51.3307762 C95.6645953,51.3169191 95.2726371,51.9189556 95.3022454,53.0694517 C95.381201,56.1557702 95.2077807,59.21953 94.5817755,62.2494517 C92.5780665,71.8881828 87.238993,80.5113807 79.5040731,86.6016188 C78.2859008,87.5561358 76.9944125,88.4190078 75.726893,89.3100783 C75.2376501,89.6526893 75.1248564,90.1024543 75.3772324,90.5959269 C75.6408877,91.116188 76.1202611,91.2177023 76.6461619,90.9949347 C76.9252448,90.8713744 77.1927756,90.723218 77.4455875,90.5522193 C81.3848657,87.9780642 84.888752,84.7925832 87.8254308,81.1156136 C94.085483,73.2689295 97.2672063,64.3309661 97.3706005,54.3017232 L97.3706005,54.305953 Z M10.2628198,59.2801567 C10.2628198,59.3732115 10.2628198,59.4676762 10.2825587,59.562141 C10.3713838,60.1895561 10.4489295,60.8183812 10.5574935,61.4429765 C11.3681777,66.1960384 12.9896891,70.7744234 15.3512272,74.9782245 C17.0620166,78.0595865 19.1403921,80.9219687 21.5407833,83.502611 C24.0574935,86.1814621 26.8167102,88.578329 29.9086684,90.5775979 C31.3404734,91.5200597 32.8357371,92.3623821 34.3837598,93.0985379 C34.9336292,93.3551436 35.370705,93.132376 35.6357702,92.6600522 C35.9008355,92.1877285 35.7443342,91.746423 35.3284073,91.4150914 C35.1757597,91.3048274 35.0123104,91.2103481 34.8405744,91.133107 C29.889433,88.6098578 25.4881997,85.1292222 21.8918538,80.892846 C17.6800147,75.996958 14.673213,70.1827781 13.1122715,63.9159791 C12.7314213,62.319122 12.433995,60.7035135 12.221201,59.075718 C12.1351958,58.4722715 11.7559269,58.1564491 11.141201,58.211436 C10.5264752,58.266423 10.2755091,58.6908094 10.2628198,59.2801567 Z M91.3445953,54.8967102 C91.44047,57.6277285 90.972376,60.3756658 90.3322715,63.1010444 C89.5483551,66.438329 88.2399478,69.5711749 86.5494517,72.5475196 C84.3632591,76.365817 81.5260412,79.7722917 78.1660574,82.6129504 C77.2933159,83.3602089 76.3486684,84.0228721 75.4505483,84.7391123 C74.9429765,85.1451697 74.8287728,85.734517 75.131906,86.1645431 C75.4350392,86.5945692 76.0441253,86.6608355 76.5925849,86.3379634 C76.6926893,86.2773368 76.7815144,86.1969713 76.8745692,86.1321149 C79.7344894,84.1112295 82.3070791,81.7117584 84.5219843,78.9993211 C86.6824681,76.3645744 88.4963089,73.4637559 89.9191645,70.3677807 C91.5633731,66.8018421 92.6358277,62.9992433 93.0971279,59.0996867 C93.3523238,56.8875196 93.5835509,54.665483 93.3170757,52.433577 C93.2324804,51.7286162 92.7925849,51.2901305 92.2779634,51.3324282 C91.763342,51.3747258 91.3558747,51.9133159 91.3445953,52.5618799 C91.3333159,53.3091384 91.3445953,54.0606266 91.3445953,54.8967102 Z M15.227154,57.8067885 C14.5052742,57.8194778 14.1245953,58.4201044 14.2402089,59.3210444 C14.4663032,61.1622047 14.8382823,62.982498 15.3526371,64.764752 C16.8566153,70.040803 19.4422541,74.9460742 22.9450653,79.1685117 C25.5998943,82.3720289 28.732907,85.1469422 32.2336292,87.3954047 C33.0006266,87.8902872 33.7521149,88.4232376 34.5980679,88.7855875 C35.1310183,89.0125849 35.6273107,88.9787467 35.9600522,88.4486162 C36.2420366,87.9960313 36.0502872,87.3911749 35.5511749,87.048564 C35.3580157,86.9160313 35.1493473,86.8046475 34.9449086,86.6890339 C29.293336,83.4984853 24.5664361,78.8959519 21.2263708,73.331436 C18.7787467,69.2948303 17.1996345,64.9184334 16.3832898,60.2671018 C16.2860052,59.7130026 16.362141,59.1391645 16.1506527,58.5991645 C15.9687728,58.1437598 15.6881984,57.8392167 15.227154,57.8067885 Z M47.754047,11.0072585 C45.7882099,11.2569659 43.8420723,11.6428014 41.9296606,12.1619843 C33.9627615,14.2898691 26.7897505,18.6958883 21.2898172,24.84 C20.3381201,25.9059008 19.4569191,27.0380679 18.5686684,28.1575457 C18.2359269,28.5805222 18.1682507,29.0725849 18.5066319,29.5265796 C18.8013055,29.9227676 19.2482507,29.9185379 19.6655875,29.790235 C20.0434465,29.6732115 20.2196867,29.2939426 20.4424543,29.0006789 C23.410105,25.0516388 27.0646675,21.669306 31.2311749,19.0156136 C35.5234678,16.2907855 40.2909341,14.399488 45.2838642,13.4407833 C46.1128982,13.2800522 46.9532115,13.1813577 47.7794256,13.0079373 C48.3941514,12.8796345 48.8030287,12.3523238 48.708564,11.8630809 C48.6350897,11.3867394 48.2355529,11.0285136 47.754047,11.0072585 Z M47.6948303,14.9550392 L47.2577546,15.0269452 C42.1842647,15.8187404 37.3146259,17.5952222 32.9230809,20.2563446 C28.8349059,22.7319699 25.239396,25.9417344 22.3176501,29.7239687 C21.8678851,30.2992167 21.9200522,30.8138381 22.410705,31.2057963 C22.8646997,31.5695561 23.4455875,31.4581723 23.8812533,30.923812 C25.5855888,28.7977571 27.4959221,26.8453917 29.5843864,25.0951958 C33.8782154,21.518715 38.9357849,18.9757006 44.3674151,17.6620888 C45.5743081,17.3688251 46.8023499,17.1601567 48.0134726,16.883812 C48.5562924,16.7611488 48.7889295,16.3494517 48.707154,15.8207311 C48.6211488,15.2525326 48.2475196,14.9663185 47.6948303,14.9451697 L47.6948303,14.9550392 Z M53.7885117,97.6751436 C54.3905483,97.7597389 55.2731593,97.5623499 56.1642298,97.5341514 C60.1120104,97.4016188 63.9328982,96.5584856 67.6720104,95.3191645 C68.4347781,95.0667885 68.7336815,94.5465274 68.5320627,93.9487206 C68.3304439,93.3509138 67.7848042,93.1605744 67.0022977,93.4284595 C64.5576356,94.2649112 62.0403997,94.8719176 59.4831854,95.2416188 C56.2403655,95.7125326 52.9778068,95.6899739 49.7180679,95.4418277 C47.8215936,95.2916052 45.9408728,94.9841252 44.0953003,94.5225587 C43.542611,94.3815666 42.9899217,94.698799 42.8686684,95.1965013 C42.7276762,95.7872585 42.9490339,96.2088251 43.5285117,96.4174935 C43.7498914,96.4950473 43.9759239,96.5586189 44.2052742,96.6078329 C47.2619843,97.2958747 50.3652219,97.5905483 53.7885117,97.668094 L53.7885117,97.6751436 Z M53.6150914,93.7132637 C54.4187467,93.7696606 55.2097128,93.6286684 56.0119582,93.5976501 C59.5579112,93.456658 62.9882507,92.7305483 66.3396345,91.5955614 C66.8334804,91.4441719 67.3151678,91.2556446 67.7805744,91.0315927 C68.2458486,90.7904961 68.5715405,90.4098172 68.3304439,89.8246997 C68.1048564,89.2762402 67.6607311,89.1394778 67.1165013,89.2607311 C66.9100777,89.3064185 66.7070401,89.3662463 66.5088251,89.4397911 C63.7524282,90.3999478 60.9438642,91.1316971 58.0309661,91.4461097 C55.3444905,91.719804 52.6382453,91.7405828 49.9478851,91.5081462 C48.0998332,91.3536376 46.268867,91.0375471 44.4759791,90.5634987 C43.6102872,90.3393211 43.0181201,90.6227154 42.8771279,91.26 C42.7460052,91.8592167 43.0688773,92.2074674 43.9500783,92.4612533 C47.105483,93.3636031 50.3511227,93.618799 53.6150914,93.7062141 L53.6150914,93.7132637 Z M91.8648564,43.2606266 C91.5673629,42.3498172 91.26,41.2867363 90.8779112,40.2574935 C89.566062,36.7325692 87.770491,33.4071565 85.5427676,30.3767624 C83.6070328,27.7438159 81.3314077,25.3785881 78.7751436,23.3426632 C78.4931593,23.1142559 78.1942559,22.9436554 77.8093473,23.0606789 C77.4469974,23.1748825 77.1875718,23.3934204 77.1043864,23.7769191 C77.0000522,24.2774413 77.2453786,24.6313316 77.6133681,24.9316449 C79.9122835,26.8026471 81.9729996,28.948595 83.7493473,31.3214099 C86.3748225,34.8237986 88.3748885,38.7538113 89.6611488,42.9377546 C89.75801,43.3003846 89.8956505,43.6508711 90.071436,43.9825065 C90.2998433,44.370235 90.6607833,44.6028721 91.1429765,44.4308616 C91.6251697,44.2588512 91.8563969,43.9190601 91.8648564,43.2606266 Z M95.8366057,42.8376501 C95.6956136,42.3498172 95.5250131,41.7097128 95.3304439,41.0893473 C93.9451331,36.6427294 91.8589989,32.445711 89.1507572,28.656658 C87.8705483,26.8604178 86.5001044,25.1318538 84.888564,23.6091384 C84.3993211,23.148094 83.8691906,23.1029765 83.4433943,23.4681462 C83.0472063,23.8093473 83.051436,24.408564 83.4631332,24.9217755 C83.6393734,25.1417232 83.8311227,25.344752 84.0271018,25.5534204 C87.7337859,29.4786423 90.4887728,34.0002611 92.4866319,38.9998433 C93.0506005,40.3970757 93.4425587,41.8464752 93.8965535,43.2761358 C94.0615144,43.7907572 94.4182245,44.1488773 94.9991123,44.0487728 C95.5518016,43.9585379 95.8253264,43.5665796 95.8366057,42.8418799 L95.8366057,42.8376501 Z M42.2595822,73.9715405 L36.4182768,73.9715405 C35.3227676,73.9715405 34.812376,74.2704439 34.8109661,74.9034987 C34.8109661,75.5887206 35.3495561,75.941201 36.4267363,75.942611 C40.2993211,75.942611 44.171906,75.942611 48.0444909,75.942611 C48.4674674,75.942611 48.8904439,75.942611 49.2513838,75.6606266 C49.506379,75.4634499 49.6403268,75.1477393 49.6049202,74.8273526 C49.5695136,74.506966 49.3698603,74.2281223 49.0779634,74.0913838 C48.7959791,73.9574413 48.4829765,73.9743603 48.1784334,73.9743603 L42.2595822,73.9715405 Z M10.1429765,50.1706527 C10.1175979,51.0518538 10.4348303,51.5072585 11.034047,51.5551958 C11.6572324,51.6045431 12.0012533,51.2732115 12.1464752,50.4751958 C12.1845431,50.2679373 12.2056919,50.0522193 12.2268407,49.8463708 C12.3678329,48.5393734 12.5497128,47.2422454 12.8133681,45.953577 C13.2782347,43.675858 13.9193275,41.4376898 14.7308616,39.2592689 C14.9085117,38.7841253 14.7703394,38.4316449 14.4122193,38.1397911 C14.0540992,37.8479373 13.6846997,37.8014099 13.3040209,38.0537859 C12.9712794,38.2709138 12.8302872,38.6318538 12.6963446,38.9801044 C12.1736602,40.36285 11.7329992,41.7752248 11.376658,43.2098695 C10.764752,45.5320104 10.4517493,47.9034987 10.1429765,50.1706527 Z M14.0907572,50.6782245 C14.0794778,50.9898172 14.417859,51.4720104 14.9367102,51.5453264 C15.551436,51.6341514 15.9236554,51.3521671 16.0646475,50.7501305 C16.1133859,50.5450484 16.1510384,50.337489 16.1774413,50.1283551 C16.521424,46.9985888 17.2409617,43.9216184 18.3205222,40.9638642 C18.5320104,40.391436 18.7604178,39.8232376 18.9281984,39.2381201 C19.0607311,38.771436 18.8323238,38.4104961 18.4220366,38.1820888 C17.982141,37.9367624 17.5930026,38.0749347 17.2940992,38.4344648 C17.1151345,38.6522899 16.972323,38.8974496 16.8711227,39.1605744 C16.5271018,40.0586945 16.1873107,40.9596345 15.8841775,41.8732637 C14.9541399,44.7302565 14.3552306,47.6845922 14.0992167,50.6782245 L14.0907572,50.6782245 Z M36.144752,70.1985901 L36.144752,70.2140992 C34.9970757,70.2140992 33.8479896,70.1873107 32.7017232,70.2253786 C32.112376,70.2451175 31.6400522,70.5637598 31.5977546,71.1968146 C31.5554569,71.8298695 32.0052219,72.0935248 32.5691906,72.1879896 C32.7988717,72.2326765 33.0318065,72.2586105 33.2656919,72.2655352 C35.28047,72.2655352 37.2938381,72.2655352 39.3086162,72.2655352 C39.6373382,72.2677074 39.9630625,72.2029463 40.265953,72.0751958 C40.6212533,71.9257441 40.8369713,71.6804178 40.8299217,71.2729504 C40.8526685,70.8856681 40.6257089,70.5270719 40.265953,70.3818799 C39.9407744,70.2461949 39.5902942,70.1817719 39.2381201,70.1929504 C38.2088773,70.2 37.1754047,70.1985901 36.144752,70.1985901 Z M62.6512794,33.7958225 L62.6512794,33.7958225 C63.7792167,33.7958225 64.907154,33.7958225 66.0252219,33.7958225 C66.7837598,33.7958225 67.3167102,33.372846 67.302611,32.7975979 C67.2899217,32.2618277 66.7654308,31.841671 66.0449608,31.8388512 C63.7721671,31.8303916 61.4993734,31.8303916 59.2265796,31.8388512 C58.4807311,31.8388512 58.0774935,32.1885117 58.0605744,32.7722193 C58.0408355,33.4165535 58.427154,33.7760836 59.2068407,33.7873629 C60.3601567,33.8071018 61.5092428,33.7958225 62.6569191,33.7958225 L62.6512794,33.7958225 Z M68.9536292,13.5070496 C68.561671,13.4943603 68.3036554,13.5070496 68.0921671,13.6945692 C67.8341514,13.914517 67.6099739,14.1683029 67.6903394,14.5405222 C67.7822732,14.9879328 68.1181009,15.3455674 68.5588512,15.4654308 C70.2690862,16.0491384 71.9694517,16.6568146 73.5725326,17.5084073 C74.2619843,17.8749869 74.916188,17.729765 75.185483,17.226423 C75.4547781,16.7230809 75.2066319,16.1337337 74.5044909,15.7474151 C73.5142558,15.2087189 72.482127,14.7508857 71.4181723,14.3783812 C70.55953,14.0639687 69.731906,13.6635509 68.9536292,13.5070496 Z M71.3279373,33.7944125 L71.3279373,33.7803133 C72.1485117,33.7803133 72.9690862,33.8056919 73.7868407,33.7718538 C74.3691384,33.7478851 74.6807311,33.3855352 74.6736815,32.8018277 C74.6666319,32.2181201 74.3479896,31.8642298 73.7628721,31.8557702 C72.2119582,31.8360313 70.6709138,31.8275718 69.1270496,31.8557702 C68.4460574,31.8698695 68.0625587,32.2787467 68.075248,32.8427154 C68.0893473,33.4278329 68.4587467,33.7718538 69.1510183,33.7915927 C69.875718,33.8099217 70.6018277,33.7944125 71.3279373,33.7944125 Z M58.7190078,16.8753525 C59.8187467,16.9091906 60.2163446,16.6638642 60.2797911,16.0688773 C60.3432376,15.4738903 59.9202611,15.0678329 59.1433943,14.9085117 C58.1310705,14.6998433 57.1074674,14.6265274 56.0810444,14.5588512 C55.4663185,14.5151436 54.9375979,14.867624 54.8628721,15.3709661 C54.8298034,15.6552907 54.9151621,15.9406979 55.0989072,16.1601786 C55.2826523,16.3796593 55.5485992,16.5138814 55.8343081,16.5313316 C56.8889295,16.5736292 57.9224021,16.7639687 58.7190078,16.8725326 L58.7190078,16.8753525 Z M42.5204178,29.0133681 C42.5204178,28.1025587 41.6194778,27.2114883 40.7044386,27.2199478 C39.7893995,27.2284073 38.8912794,28.1307572 38.9124282,29.034517 C38.933577,29.9382768 39.7753003,30.7757702 40.6832898,30.7912794 C41.5912794,30.8067885 42.5204178,29.915718 42.5204178,29.0133681 Z M65.6882507,80.6165013 C66.7823499,80.6165013 67.4718016,79.9637076 67.4887206,78.893577 C67.5042298,77.9066319 66.7174935,77.1354047 65.6924804,77.1255237 C65.2297427,77.1238379 64.7860668,77.3097248 64.4627346,77.6407616 C64.1394025,77.9717985 63.9640136,78.4197282 63.9766057,78.8822977 C63.9822454,79.9143603 64.6674674,80.6066319 65.6882507,80.6136815 L65.6882507,80.6165013 Z M56.664752,10.6449086 L56.664752,10.674517 C56.429295,10.674517 56.195248,10.674517 55.9597911,10.674517 C55.3154569,10.692846 54.845953,11.0622454 54.8628721,11.6036554 C54.881201,12.2085117 55.2618799,12.5426632 55.8498172,12.6046997 C56.8029243,12.7062141 57.761671,12.7583812 58.7147781,12.8613055 C59.5029243,12.9459008 60.0090862,12.6808355 60.1246997,12.0646997 C60.2403133,11.448564 59.8511749,10.998799 59.04047,10.8817755 C58.2565535,10.7661619 57.4599478,10.7154047 56.6689817,10.6420888 L56.664752,10.6449086 Z M44.4266319,70.1732115 C43.9712272,70.2028198 43.5637598,70.1830809 43.1774413,70.2634465 C42.6726893,70.3691906 42.3314883,70.7132115 42.3314883,71.2503916 C42.3175362,71.7238037 42.6619054,72.131945 43.1309138,72.197859 C43.9400956,72.3501609 44.7709787,72.3458533 45.5785379,72.1851697 C46.0465782,72.120286 46.383959,71.7033401 46.349765,71.2320627 C46.349765,70.7019321 46.0367624,70.397389 45.5602089,70.290235 C45.186737,70.225983 44.8095006,70.1859517 44.4308616,70.1703916 L44.4266319,70.1732115 Z M69.8728982,18.3867885 C69.8728982,18.0766057 69.5570757,17.7720627 69.1679373,17.5930026 C68.5273207,17.3022968 67.8717248,17.0458002 67.2039164,16.8245953 C66.6328982,16.6300261 66.2169713,16.9162402 66.0224021,17.4266319 C65.8278329,17.9370235 65.987154,18.3867885 66.4834465,18.6151958 C67.1844732,18.9422876 67.9054347,19.2248329 68.6420366,19.4611488 C69.2595822,19.6599478 69.8700783,19.1749347 69.8728982,18.3867885 Z" id="Shape"></path>
        </g>
    </g>
</svg>