<?xml version="1.0" encoding="UTF-8"?>
<svg width="91px" height="90px" viewBox="0 0 91 90" version="1.1" xmlns="http://www.w3.org/2000/svg" xmlns:xlink="http://www.w3.org/1999/xlink">
    <!-- Generator: Sketch 53.2 (72643) - https://sketchapp.com -->
    <title>melon_logo</title>
    <desc>Created with Sketch.</desc>
    <g id="Page-1" stroke="none" stroke-width="1" fill="none" fill-rule="evenodd">
        <g id="melon_logo" fill="#000000" fill-rule="nonzero">
            <path d="M33.4,34.5 C33,33.3 32.3,32.1 31.5,31.1 C30.7,30.3 29.7,29.9 28.6,30 L27.6,30 C28.5,30.3 29.3,30.9 30,31.6 C30.7,32.6 31.3,33.7 31.8,34.8 L43.1,61.8 C43.4,61.3 43.6,60.7 43.7,60.1 C43.6,59.4 43.4,58.7 43.1,58.1 L33.4,34.5 Z" id="Path_25"></path>
            <path d="M55.3,61.9 L56.2,61.9 C57.3,61.9 58,61.6 58.3,61 C58.6,59.9 58.7,58.8 58.7,57.7 L58.7,34 C58.6,32.7 58.8,31.4 59.2,30.1 C58.5,30.2 58.1,30.3 57.8,30.7 C57.5,31.1 57.3,31.5 57.3,32 C57.2,32.9 57.2,33.8 57.2,34.7 L57.2,58.4 C57.3,59.2 57.2,60 56.8,60.8 C56.3,61.2 55.8,61.6 55.3,61.9 Z" id="Path_26"></path>
            <path d="M45.6,4.7 C23.6,4.7 5.7,22.6 5.7,44.6 C5.7,66.6 23.6,84.5 45.6,84.5 C67.6,84.5 85.5,66.6 85.5,44.6 L85.5,44.6 C85.5,22.6 67.6,4.7 45.6,4.7 L45.6,4.7 Z M67.2,30.1 C66,30 64.8,30.2 63.7,30.8 C63,31.2 62.6,31.8 62.6,32.6 C62.5,34 62.4,35.4 62.4,36.9 L62.4,58.1 C62.4,58.9 62.5,59.8 62.9,60.6 C63.2,61.2 63.7,61.6 64.3,61.7 C65.3,62 66.3,62.1 67.3,62.2 L67.3,63.5 L51.4,63.5 L51.4,62.2 C52.6,62.3 53.7,62.1 54.8,61.6 C55.4,61.3 55.9,60.8 56,60.1 C56.1,59.1 56.2,58 56.2,57 L56.2,33.1 L43.9,63.3 L42.5,63.3 L30.5,34 L30.5,54.1 C30.4,56 30.9,57.8 31.8,59.4 C32.9,60.8 34.4,61.7 36.1,62 L36.1,63.3 L23.7,63.3 L23.7,62 C25.3,61.9 26.8,61.1 27.8,59.9 C28.8,58.5 29.3,56.7 29.2,55 L29.2,32.3 C28.6,31.6 27.7,31 26.8,30.7 C25.8,30.4 24.8,30.2 23.8,30.2 L23.8,28.9 L35,28.9 L45.9,55.1 L56.6,28.9 L67.1,28.9 L67.2,30.1 L67.2,30.1 Z" id="Path_27"></path>
            <path d="M29.5,58.7 C29.3,59.4 28.9,60 28.5,60.5 C27.9,61 27.3,61.5 26.7,61.9 L31.8,61.9 C31.2,61.6 30.7,61.1 30.4,60.6 C29.9,60 29.7,59.4 29.5,58.7 Z" id="Path_28"></path>
            <path d="M45.6,89.3 C21,89.3 1,69.4 0.9,44.7 C0.9,20.1 20.8,0.1 45.5,0 C70.1,0 90.1,19.9 90.2,44.6 L90.2,44.6 C90.1,69.2 70.2,89.2 45.6,89.3 Z M45.6,1.8 C22,1.8 2.8,20.9 2.8,44.6 C2.8,68.2 21.9,87.4 45.6,87.4 C69.3,87.4 88.4,68.3 88.4,44.6 C88.3,21 69.2,1.9 45.6,1.8 L45.6,1.8 Z" id="Path_29"></path>
        </g>
    </g>
</svg>