<?xml version="1.0" encoding="utf-8"?>
<!-- Generator: Adobe Illustrator 21.1.0, SVG Export Plug-In . SVG Version: 6.00 Build 0)  -->
<svg version="1.1" id="Layer_1" xmlns="http://www.w3.org/2000/svg" xmlns:xlink="http://www.w3.org/1999/xlink" x="0px" y="0px"
	 viewBox="0 0 612 612" style="enable-background:new 0 0 612 612;" xml:space="preserve">
<style type="text/css">
	.st0{fill:#1A82FF;}
	.st1{fill:#FFFFFF;}
</style>
<rect x="0.3" y="0.2" class="st0" width="612.9" height="612.2"/>
<path class="st1" d="M485,189.7l-70.6,70.6c2.8,14,4.3,29.4,4.3,46c0,89.3-42,142.7-112.2,142.7c-29.3,0-54-9.4-72.7-27.2
	l244.7-244.7c-6.6-11.6-14-22.5-22.4-32.4c-3.5-4.2-7.3-8.1-11-11.8l0,0c-0.5-0.5-1-1-1.5-1.5c-1.1-1.1-2.2-2.3-3.4-3.3l-0.1,0.1
	C404.4,95,358.7,77.5,306.4,77.5c-60.5,0-112.1,23.2-149.2,67.2C122.2,186,103,243.4,103,306.3c0,41.8,8.5,81.1,24.5,114.9l71-71
	c-2.5-13.4-3.7-28.1-3.7-43.9c0-41.1,8.4-74.4,24.9-98.8c19.4-28.7,49.4-43.9,86.7-43.9c29.1,0,53.3,9.2,71.8,26.2L134,434.1
	c6.7,12.2,14.5,23.5,23.2,33.9c1.7,2.1,3.6,4,5.4,6l0,0c0,0,0,0,0.1,0.1c2.1,2.3,4.2,4.5,6.4,6.6c0.3,0.3,0.5,0.6,0.8,0.8
	c0.7,0.7,1.4,1.4,2.1,2.1l0.1-0.1c35.6,33.8,81.6,51.7,134.4,51.7c60.5,0,112.2-23.2,149.5-67.2c35.1-41.4,54.5-98.8,54.5-161.6
	C510.4,263.9,501.5,223.9,485,189.7z"/>
</svg>
