<?xml version="1.0" encoding="UTF-8"?>
<svg width="20px" height="28px" viewBox="0 0 20 28" version="1.1" xmlns="http://www.w3.org/2000/svg" xmlns:xlink="http://www.w3.org/1999/xlink">
    <!-- Generator: Sketch 52.3 (67297) - http://www.bohemiancoding.com/sketch -->
    <title>ost</title>
    <desc>Created with Sketch.</desc>
    <g id="Wallet" stroke="none" stroke-width="1" fill="none" fill-rule="evenodd">
        <g id="All-Tokens" transform="translate(-326.000000, -534.000000)" fill="#34445B" fill-rule="nonzero">
            <g id="ost" transform="translate(326.000000, 534.000000)">
                <path d="M10.8161994,8.74105919 L13.2507165,4.94404984 C14.4121948,5.1865758 15.5810058,4.56418308 16.0280779,3.46510289 C16.4751499,2.36602269 16.0726675,1.1044761 15.071688,0.467380643 C14.0707084,-0.169714812 12.7574063,-0.000216983215 11.9509829,0.870146118 C11.1445594,1.74050922 11.0755667,3.06290548 11.7870405,4.01246106 L8.76286604,8.72274143 C3.66518129,9.22615855 -0.147647937,13.6299939 0.0836726046,18.74725 C0.314993146,23.864506 4.50960207,27.906373 9.6319162,27.9478051 C14.7542303,27.9892372 19.0136718,24.0157512 19.327739,18.9029065 C19.6418062,13.7900619 15.9007125,9.32512623 10.811838,8.73931464 L10.8161994,8.74105919 Z M9.70492212,23.4135826 C7.12020473,23.4136173 4.94250132,21.4835236 4.63206086,18.9175169 C4.32162039,16.3515101 5.97621888,13.9577771 8.48637295,13.3414245 C10.996527,12.7250719 13.5716411,14.0802254 14.4849844,16.4981931 C13.7122913,15.5027631 12.3926281,15.1080451 11.2002605,15.5157154 C10.0078929,15.9233857 9.20612359,17.0434212 9.20460682,18.3035534 C9.20309005,19.5636856 10.0021607,20.6856479 11.1935435,21.0961875 C12.3849262,21.506727 13.7055358,21.1151869 14.4806231,20.1216199 C13.7257284,22.1033629 11.8255756,23.4131669 9.70492212,23.4135826 Z" id="Shape"></path>
                <path d="M10.8161994,8.74105919 L13.2507165,4.94404984 C14.4121948,5.1865758 15.5810058,4.56418308 16.0280779,3.46510289 C16.4751499,2.36602269 16.0726675,1.1044761 15.071688,0.467380643 C14.0707084,-0.169714812 12.7574063,-0.000216983215 11.9509829,0.870146118 C11.1445594,1.74050922 11.0755667,3.06290548 11.7870405,4.01246106 L8.76286604,8.72274143 C3.66518129,9.22615855 -0.147647937,13.6299939 0.0836726046,18.74725 C0.314993146,23.864506 4.50960207,27.906373 9.6319162,27.9478051 C14.7542303,27.9892372 19.0136718,24.0157512 19.327739,18.9029065 C19.6418062,13.7900619 15.9007125,9.32512623 10.811838,8.73931464 L10.8161994,8.74105919 Z M9.70492212,23.4135826 C7.12020473,23.4136173 4.94250132,21.4835236 4.63206086,18.9175169 C4.32162039,16.3515101 5.97621888,13.9577771 8.48637295,13.3414245 C10.996527,12.7250719 13.5716411,14.0802254 14.4849844,16.4981931 C13.7122913,15.5027631 12.3926281,15.1080451 11.2002605,15.5157154 C10.0078929,15.9233857 9.20612359,17.0434212 9.20460682,18.3035534 C9.20309005,19.5636856 10.0021607,20.6856479 11.1935435,21.0961875 C12.3849262,21.506727 13.7055358,21.1151869 14.4806231,20.1216199 C13.7257284,22.1033629 11.8255756,23.4131669 9.70492212,23.4135826 Z" id="Shape"></path>
            </g>
        </g>
    </g>
</svg>