<svg xmlns="http://www.w3.org/2000/svg" width="640" height="640" viewBox="0 0 640 640">
  <g fill="none" transform="translate(0 32)">
    <path fill="#000" d="M150.502283,127.415525 C226.094368,127.415525 275.677321,199.403349 275.677321,295.549467 L275.677321,308.018265 C275.677321,408.060883 218.30137,467.677321 149.235921,467.677321 C116.894977,467.774734 92.9315068,460.371385 77.0532725,444.200913 L73.9360731,444.200913 L73.9360731,575.123288 L0,575.123288 L0,131.799087 L72.2800609,131.799087 L72.2800609,152.255708 L75.1050228,152.255708 C100.334855,128.097412 132.480974,127.415525 150.502283,127.415525 Z M602.009132,130.143075 C605.321157,130.143075 602.593607,130.240487 605.808219,130.240487 L606.197869,204.761035 L596.943683,204.761035 C555.445967,204.761035 514.240487,237.686454 514.240487,279.281583 L514.240487,466.021309 L514.240487,466.021309 L440.596651,466.021309 L440.596651,134.916286 L508.785388,134.916286 L508.785388,155.275495 L511.61035,155.275495 C528.170472,137.838661 568.694064,129.656012 602.009132,130.143075 Z M385.461187,0 L385.461187,465.729072 L311.427702,465.729072 L311.427702,0 L385.461187,0 Z M140.56621,187.616438 C94.587519,187.616438 69.9421613,236.322679 69.9421613,292.14003 L69.9421613,313.863014 C69.9421613,367.050228 94.1978691,407.768645 141.832572,407.768645 C179.336377,407.671233 207.001522,378.447489 207.001522,313.960426 L207.001522,292.14003 C207.001522,229.503805 183.135464,187.616438 140.56621,187.616438 Z"/>
    <rect width="73.644" height="79.294" x="565.869" y="386.435" fill="#00BFFF"/>
  </g>
</svg>
