<svg xmlns="http://www.w3.org/2000/svg" viewBox="0 0 153.25 123.95">
  <defs>
    <style>
      .cls-1 {
        fill: black;
      }
    </style>
  </defs>
  <title>222Asset 11</title>
  <g id="Layer_2" data-name="Layer 2">
    <g id="Layer_1-2" data-name="Layer 1">
      <g>
        <path class="cls-1" d="M152,33.09,96.86,1.37a2.48,2.48,0,0,0-3.5,3.17L116,55a2.48,2.48,0,0,0,3.5,1.14L152,37.4A2.49,2.49,0,0,0,152,33.09Z"/>
        <path class="cls-1" d="M37.29,55,59.89,4.54a2.48,2.48,0,0,0-3.5-3.17L1.24,33.09a2.5,2.5,0,0,0,0,4.31L33.79,56.13A2.48,2.48,0,0,0,37.29,55Z"/>
        <path class="cls-1" d="M74.54,122.48,47.89,63a2.48,2.48,0,0,1,0-2L74.54,1.47a2.48,2.48,0,0,1,4.54,0l26.29,59.69a2.49,2.49,0,0,1,0,2l-26.29,59.3A2.49,2.49,0,0,1,74.54,122.48Z"/>
      </g>
    </g>
  </g>
</svg>
