<?xml version="1.0" standalone="no"?>
<!DOCTYPE svg PUBLIC "-//W3C//DTD SVG 20010904//EN"
 "http://www.w3.org/TR/2001/REC-SVG-20010904/DTD/svg10.dtd">
<svg version="1.0" xmlns="http://www.w3.org/2000/svg"
 width="600.000000pt" height="600.000000pt" viewBox="0 0 600.000000 600.000000"
 preserveAspectRatio="xMidYMid meet">

<g transform="translate(0.000000,600.000000) scale(0.100000,-0.100000)"
fill="#000000" stroke="none">
<path d="M2675 5985 c-560 -62 -1111 -290 -1555 -645 -135 -108 -352 -325
-460 -460 -429 -537 -660 -1194 -660 -1880 0 -686 231 -1343 660 -1880 108
-135 325 -352 460 -460 537 -429 1194 -660 1880 -660 686 0 1343 231 1880 660
135 108 352 325 460 460 558 697 777 1603 601 2478 -94 463 -303 909 -601
1282 -108 135 -325 352 -460 460 -449 359 -997 585 -1568 645 -166 18 -473 18
-637 0z m15 -1825 c3 -184 9 -341 13 -347 12 -19 580 -18 596 0 7 9 12 122 13
348 l3 334 230 3 c207 2 231 1 242 -15 10 -13 13 -98 13 -345 0 -180 1 -329 3
-330 1 -1 130 -5 287 -8 l285 -5 3 -224 c1 -149 -1 -228 -8 -235 -7 -7 -113
-13 -293 -16 l-282 -5 -3 -359 c-1 -254 1 -363 9 -372 9 -11 71 -14 293 -16
l281 -3 3 -225 c2 -203 1 -226 -15 -237 -12 -10 -87 -13 -290 -13 l-273 0 0
-334 c0 -271 -3 -336 -14 -345 -9 -8 -82 -11 -242 -9 l-229 3 -5 340 -5 340
-302 3 -303 2 -2 -342 -3 -343 -240 0 -240 0 -3 343 -2 342 -276 0 c-171 0
-283 4 -295 10 -18 10 -19 23 -19 225 0 117 3 220 6 229 5 14 40 16 283 16
152 0 282 4 289 8 9 7 12 88 10 373 l-3 364 -280 5 c-154 3 -286 9 -292 13
-10 6 -13 62 -13 222 0 117 3 220 6 229 5 14 39 16 279 16 150 0 280 3 289 6
14 5 16 45 16 343 0 186 3 341 7 345 4 3 110 5 237 4 l231 -3 5 -335z"/>
<path d="M2704 3306 c-3 -9 -2 -176 3 -373 l8 -358 295 0 295 0 0 370 0 370
-298 3 c-255 2 -298 0 -303 -12z"/>
</g>
</svg>
