<?xml version="1.0" encoding="UTF-8"?>
<svg width="100px" height="100px" viewBox="0 0 100 100" version="1.1" xmlns="http://www.w3.org/2000/svg" xmlns:xlink="http://www.w3.org/1999/xlink">
    <!-- Generator: Sketch 52.5 (67469) - http://www.bohemiancoding.com/sketch -->
    <title>Reserve Stamp Black</title>
    <desc>Created with Sketch.</desc>
    <g id="Reserve-Branding" stroke="none" stroke-width="1" fill="none" fill-rule="evenodd">
        <g id="Reserve-Lockup-Full---Black-on-White" transform="translate(-371.000000, -198.000000)" fill="#040020" fill-rule="nonzero">
            <path d="M421,298 C393.385763,298 371,275.614237 371,248 C371,220.385763 393.385763,198 421,198 C448.614237,198 471,220.385763 471,248 C471,275.614237 448.614237,298 421,298 Z M417.878,236.083 C417.878,235.806 418.103,235.58 418.381,235.58 L427.798,235.58 C429.123,235.58 430.196,236.654 430.196,237.979 L430.196,243.383 C430.196,244.708 429.123,245.781 427.799,245.781 L418.381,245.781 C418.103,245.781 417.878,245.556 417.878,245.278 L417.878,236.083 Z M402,241.419 C402,241.74 402.259,241.999 402.58,241.999 L409.852,241.999 L409.852,245.732 L402.58,245.732 C402.259,245.732 402,245.992 402,246.312 L402,252.428 C402,252.747 402.259,253.007 402.58,253.007 L409.852,253.007 L409.852,267.629 C409.852,267.906 410.077,268.132 410.355,268.132 L417.375,268.132 C417.653,268.132 417.878,267.906 417.878,267.629 L417.878,253.753 C417.878,253.475 418.103,253.25 418.381,253.25 L424.015,253.25 C424.215,253.25 424.396,253.368 424.476,253.552 L430.678,267.829 C430.758,268.013 430.94,268.132 431.14,268.132 L438.678,268.132 C439.042,268.132 439.285,267.759 439.139,267.427 L432.982,253.421 C432.863,253.149 433.009,252.847 433.288,252.747 C436.326,251.66 438.223,248.921 438.223,245.335 L438.223,236.418 C438.223,231.769 434.455,228 429.806,228 L410.355,228 C410.077,228 409.852,228.226 409.852,228.503 L409.852,234.725 L402.58,234.725 C402.259,234.725 402,234.984 402,235.304 L402,241.419 Z" id="Reserve-Stamp-Black"></path>
        </g>
    </g>
</svg>