<?xml version="1.0" encoding="utf-8"?>
<!-- Generator: Adobe Illustrator 21.0.0, SVG Export Plug-In . SVG Version: 6.00 Build 0)  -->
<svg version="1.1" id="Layer_1" xmlns="http://www.w3.org/2000/svg" xmlns:xlink="http://www.w3.org/1999/xlink" x="0px" y="0px"
	 viewBox="0 0 128 128" style="enable-background:new 0 0 128 128;" xml:space="preserve">
<style type="text/css">
	.st0{fill:none;stroke:#000000;stroke-width:4;stroke-miterlimit:10;}
	.st1{fill:#000000;stroke:#000000;stroke-miterlimit:10;}
	.st2{fill:#000000;}
</style>
<circle class="st0" cx="63.8" cy="64.5" r="57.3"/>
<g>
	<path class="st1" d="M50.8,82.8c1.4,0.9,3.2,1.6,5.2,2.2c2,0.6,4,0.9,6.1,0.9c2.4,0,4.4-0.6,6.1-1.8c1.7-1.2,2.5-3.2,2.5-5.8
		c0-2.3-0.5-4.1-1.5-5.6c-1-1.5-2.3-2.8-3.9-3.9c-1.6-1.2-3.2-2.2-5.1-3.2c-1.8-1-3.5-2.1-5.1-3.5c-1.6-1.4-2.8-3-3.9-4.9
		c-1-1.9-1.5-4.3-1.5-7.1c0-4.6,1.2-8.1,3.7-10.4c2.5-2.3,6-3.5,10.6-3.5c3,0,5.5,0.3,7.7,0.8c2.2,0.5,4.1,1.3,5.7,2.2l-2.1,6.5
		c-1.4-0.7-3-1.3-4.8-1.8c-1.8-0.5-3.7-0.7-5.5-0.7c-2.6,0-4.5,0.5-5.7,1.6c-1.2,1.1-1.8,2.8-1.8,5.1c0,1.8,0.5,3.4,1.5,4.6
		c1,1.3,2.3,2.4,3.9,3.5c1.6,1.1,3.2,2.1,5.1,3.2c1.8,1.1,3.5,2.4,5.1,3.9c1.6,1.5,2.8,3.3,3.9,5.3c1,2.1,1.5,4.7,1.5,7.8
		c0,2-0.3,4-1,5.8c-0.7,1.8-1.6,3.4-3,4.7c-1.3,1.3-3,2.4-5,3.2c-2,0.8-4.3,1.2-7,1.2c-3.2,0-5.9-0.3-8.3-0.9
		c-2.3-0.6-4.3-1.4-5.9-2.4L50.8,82.8z"/>
	<circle class="st2" cx="27.9" cy="63.5" r="6.7"/>
	<circle class="st2" cx="99.8" cy="63.5" r="6.7"/>
</g>
</svg>
