<?xml version="1.0" encoding="UTF-8"?>
<svg width="1000px" height="1000px" viewBox="0 0 1000 1000" version="1.1" xmlns="http://www.w3.org/2000/svg" xmlns:xlink="http://www.w3.org/1999/xlink">
    <!-- Generator: Sketch 50.2 (55047) - http://www.bohemiancoding.com/sketch -->
    <title>SPIKE Token Colored</title>
    <desc>Created with Sketch.</desc>
    <defs>
        <circle id="path-1" cx="500" cy="500" r="500"></circle>
    </defs>
    <g id="SPIKE-Token-Colored" stroke="none" stroke-width="1" fill="none" fill-rule="evenodd">
        <g id="SPIKE_Token">
            <g id="Oval" fill="#0D8BFF" fill-rule="nonzero">
                <circle id="path-1" cx="500" cy="500" r="500"></circle>
            </g>
            <g id="SPIKE-Clipped">
                <mask id="mask-2" fill="white">
                    <use xlink:href="#path-1"></use>
                </mask>
                <g id="path-1"></g>
                <path d="M103.171287,805.407712 L102.099852,804.01859 L103.742637,804.634129 C116.824357,809.535753 134.224855,806.602235 152.103924,796.279749 C175.71364,782.648674 185.409176,762.035747 176.042667,745.812477 C168.195999,732.22165 153.163663,731.106184 121.301166,741.916171 L84.4037908,754.434307 C79.9874759,755.982913 75.6633947,757.314753 71.4335663,758.429451 C55.5978789,732.880376 42.5858626,706.240194 32.0162235,678.57351 L32.9195166,678.150706 C40.880003,691.943994 56.400868,693.451741 85.6708929,683.438958 L121.675793,670.974741 C176.947597,651.807064 212.468492,661.272682 235.563846,701.275007 C265.824827,753.688564 243.946403,808.683429 177.822505,846.860079 C169.124172,851.882064 160.492658,856.122805 151.986794,859.561823 C134.081365,842.624641 117.942086,824.558152 103.171287,805.407712 Z M28.8298458,669.996919 C19.8936809,645.248216 12.9196579,619.778176 7.99111165,593.777441 L8.18539674,593.282065 C13.5391168,589.329665 19.2838253,585.578927 25.398176,582.048805 C84.4288062,547.967455 143.851422,556.118986 171.813738,602.121126 L172.079376,602.558141 L112.182676,637.139517 L111.920875,636.758667 C100.509615,620.158375 76.8241713,617.555749 54.5006291,630.444252 C36.2255794,640.995357 27.0730882,655.670521 29.7910418,669.732224 L28.8298458,669.996919 Z M157.686296,515.428077 L267.780257,451.865299 C321.782042,420.687354 378.586836,434.593969 409.62204,488.34852 C440.356904,541.582865 421.981682,598.663478 366.063705,630.947737 L323.733274,655.387223 L366.08131,728.736174 L302.150165,765.646838 L157.686296,515.428077 Z M249.849465,527.416714 L296.001817,607.354931 L324.918901,590.659645 C352.093993,574.970098 360.111245,551.845148 345.094211,525.834882 C329.87695,499.477812 306.115841,494.931306 279.114949,510.520279 L249.849465,527.416714 Z M587.654309,600.810943 L523.723164,637.721607 L379.259295,387.502846 L443.19044,350.592183 L587.654309,600.810943 Z M684.849005,544.695559 L620.91786,581.606223 L476.453991,331.387462 L540.385136,294.476799 L602.455544,401.985898 L605.765331,400.074991 L627.31059,244.290364 L695.945115,204.664203 L672.792,365.307569 L845.460765,451.966316 L770.380862,495.313718 L650.007701,433.25705 L644.002673,473.947637 L684.849005,544.695559 Z M1000.22161,294.410403 L1029.75511,345.563925 L857.471999,445.031628 L713.00813,194.812867 L885.291244,95.3451645 L914.824744,146.498688 L806.472775,209.055727 L835.305482,258.99544 L937.212077,200.15964 L964.242738,246.978119 L862.336143,305.813919 L891.869643,356.967441 L1000.22161,294.410403 Z" id="SPIKE" fill="#FFFFFF" fill-rule="nonzero" mask="url(#mask-2)"></path>
            </g>
        </g>
    </g>
</svg>