<svg id="Layer_1" data-name="Layer 1" xmlns="http://www.w3.org/2000/svg" width="54.27mm" height="128.74mm" viewBox="0 0 153.82 364.92">
  <defs>
    <style>
      .cls-1 {
        fill: #060606;
      }
    </style>
  </defs>
  <title>Mark_Black_Solid</title>
  <path class="cls-1" d="M21,52.28,95.86,95.21a9.86,9.86,0,0,1,5,8.56V245.63a1.24,1.24,0,0,1-.62,1.07l-81.15,46a1.23,1.23,0,0,1-1.68-.46,1.32,1.32,0,0,1-.16-.61L17.3,54.42A2.46,2.46,0,0,1,19.76,52,2.41,2.41,0,0,1,21,52.28ZM17.37,43a3.7,3.7,0,0,0-5.54,3.21l-.36,248.56A4.92,4.92,0,0,0,14,299l86.85,49.83a3.7,3.7,0,0,0,5.54-3.21V101.19a12.33,12.33,0,0,0-6.19-10.69ZM153.82,70.31V332.78a12.32,12.32,0,0,1-6.21,10.7L112.94,363.3a12.33,12.33,0,0,1-12.27,0L6.17,308.79A12.33,12.33,0,0,1,0,298.11v-269A12.33,12.33,0,0,1,6.48,18.27L37.64,1.48a12.34,12.34,0,0,1,12.13.24l98,58A12.33,12.33,0,0,1,153.82,70.31Z"/>
</svg>
