<svg xmlns="http://www.w3.org/2000/svg" xmlns:xlink="http://www.w3.org/1999/xlink" viewBox="0 0 230.23 231.45"><defs><style>.cls-1{fill:#f97756;}.cls-2{fill:url(#linear-gradient);}.cls-3{fill:url(#linear-gradient-2);}.cls-4{fill:url(#linear-gradient-3);}.cls-5{fill:url(#linear-gradient-4);}.cls-6{fill:url(#linear-gradient-5);}.cls-7{fill:url(#linear-gradient-6);}.cls-8{fill:url(#linear-gradient-7);}.cls-9{fill:url(#linear-gradient-8);}</style><linearGradient id="linear-gradient" x1="-906.15" y1="-201.97" x2="-900.06" y2="-201.97" gradientTransform="translate(28963.75 3525.3) scale(31.95 17.19)" gradientUnits="userSpaceOnUse"><stop offset="0" stop-color="#f97756"/><stop offset="0.11" stop-color="#f97f53"/><stop offset="0.7" stop-color="#f9a942"/><stop offset="1" stop-color="#f9b93b"/></linearGradient><linearGradient id="linear-gradient-2" x1="-906.78" y1="-207.92" x2="-900.95" y2="-209.54" gradientTransform="translate(29654.08 4505.17) scale(32.69 20.84)" gradientUnits="userSpaceOnUse"><stop offset="0" stop-color="#f97756"/><stop offset="0.58" stop-color="#f9a045"/><stop offset="1" stop-color="#f9b93b"/></linearGradient><linearGradient id="linear-gradient-3" x1="-876.18" y1="-205.11" x2="-882.13" y2="-204.9" gradientTransform="translate(16517.56 3948.77) scale(18.64 18.77)" gradientUnits="userSpaceOnUse"><stop offset="0" stop-color="#f97756"/><stop offset="0.49" stop-color="#f97955"/><stop offset="0.67" stop-color="#f98052"/><stop offset="0.79" stop-color="#f98b4e"/><stop offset="0.89" stop-color="#f99c47"/><stop offset="0.98" stop-color="#f9b23e"/><stop offset="1" stop-color="#f9b93b"/></linearGradient><linearGradient id="linear-gradient-4" x1="-883.64" y1="-211.37" x2="-889.58" y2="-211.59" gradientTransform="translate(19355.53 4736.96) scale(21.67 21.74)" xlink:href="#linear-gradient-3"/><linearGradient id="linear-gradient-5" x1="-868.8" y1="-123.39" x2="-874.89" y2="-123.39" gradientTransform="translate(13589.6 982.32) scale(15.52 7.55)" xlink:href="#linear-gradient-2"/><linearGradient id="linear-gradient-6" x1="-821.53" y1="-172.26" x2="-827.57" y2="-178.38" gradientTransform="translate(7220.74 2380.75) scale(8.72 12.8)" xlink:href="#linear-gradient-2"/><linearGradient id="linear-gradient-7" x1="-882.29" y1="-221.42" x2="-888.38" y2="-221.42" gradientTransform="translate(18799.05 5910.82) scale(21.08 26.21)" gradientUnits="userSpaceOnUse"><stop offset="0.23" stop-color="#f97756"/><stop offset="0.28" stop-color="#f98052"/><stop offset="0.44" stop-color="#f99948"/><stop offset="0.61" stop-color="#f9ab41"/><stop offset="0.79" stop-color="#f9b63c"/><stop offset="1" stop-color="#f9b93b"/></linearGradient><linearGradient id="linear-gradient-8" x1="-869.84" y1="-217.5" x2="-875.93" y2="-217.5" gradientTransform="translate(15373.34 5361.84) scale(17.41 24.12)" gradientUnits="userSpaceOnUse"><stop offset="0" stop-color="#f97756"/><stop offset="0.27" stop-color="#f98451"/><stop offset="0.78" stop-color="#f9a742"/><stop offset="1" stop-color="#f9b93b"/></linearGradient></defs><title>Asset 2</title><g id="Layer_2" data-name="Layer 2"><g id="Layer_1-2" data-name="Layer 1"><g id="Group"><path id="Shape" class="cls-1" d="M115.11,231.45c61.52,0,111.46-48.73,115.12-109.64h0V109.63h0C226.57,48.73,176.63,0,115.11,0A114.69,114.69,0,0,0,7.92,73.7H37.76C52.38,46.29,81.62,28,115.11,28h1.22A85.18,85.18,0,0,1,168.1,45.07l-.61.61A86.69,86.69,0,0,1,185.77,64l.6-.61a88.29,88.29,0,0,1,0,106l-.6-.61A86.71,86.71,0,0,1,167.49,187h0c-5.48,4.27-11.57,7.31-18.27,10.36a90.58,90.58,0,0,1-34.72,7.31c-43.85,0-80.39-32.28-86.48-74.31H56.64v-28H.61a103.17,103.17,0,0,0-.61,14C0,179.67,51.77,231.45,115.11,231.45Z"/><polygon class="cls-1" points="92.58 157.75 72.48 138.26 160.19 50.55 176.63 33.5 196.73 53.6 92.58 157.75"/><polygon id="Rectangle-path" class="cls-1" points="197.34 179.07 177.24 198.56 72.48 93.8 92.58 74.31 197.34 179.07"/><path class="cls-2" d="M109,28h6.09a99.69,99.69,0,0,1,14,1.22h1.22a2.26,2.26,0,0,1,1.83.6c1.22,0,1.82.61,3,.61h.61c11.57,2.44,22.54,7.92,32.28,14.62l.61.61a80.82,80.82,0,0,1,17.66,17.66h0a73.44,73.44,0,0,1,9.75,16.45c0,.61.61.61.61,1.22a.6.6,0,0,0,.61.61,97.68,97.68,0,0,1,6.7,23.75C199.17,53.6,161.4,11,112.68,0,65.17,1.22,24.36,31.67,7.92,73.7H37.76A86.38,86.38,0,0,1,109,28Z"/><path class="cls-3" d="M90.14,228.4c52.38-1.22,96.84-37.76,109-87.1a86.73,86.73,0,0,1-14,26.8l-.61-.61a87.16,87.16,0,0,1-18.27,18.28h0c-5.49,4.26-11.58,7.3-18.28,10.35a90.57,90.57,0,0,1-34.71,7.31c-43.86,0-80.4-32.28-86.49-74.31H55.43v-28H.61a102.94,102.94,0,0,0-.61,14C0,171.15,38.37,216.83,90.14,228.4Z"/><polygon class="cls-4" points="92.58 157.75 72.48 138.26 166.88 43.85 166.88 43.85 186.38 63.95 92.58 157.75"/><polygon class="cls-5" points="73.09 93.8 92.58 74.31 204.65 186.98 185.16 206.47 73.09 93.8"/><path class="cls-6" d="M8.53,73.7H37.15a88.36,88.36,0,0,1,65.78-45.07A81.49,81.49,0,0,0,90.75,28C56.64,28,26.19,46.29,8.53,73.7Z"/><path class="cls-7" d="M30.45,101.71H.61c3,30.46,26.19,64,53,78C37.15,163.84,22.54,140.69,30.45,101.71Z"/><path class="cls-8" d="M201,48.73,182.72,28,114.5,96.23,92.58,73.7,73.09,93.19v.61L95,115.72,72.48,138.26,92,157.75l21.93-21.93,51.77,51.77,19.49-20.1L134,115.72Z"/><path class="cls-9" d="M230.23,112.07v-2.44h0a112.8,112.8,0,0,0-26.19-67c-39,1.83-79.79,34.11-79.79,73.7H134L185.77,64a85.2,85.2,0,0,1,17,51.77,87,87,0,0,1-17,52.38L134,115.72h-9.74c0,39.59,40.81,71.26,79.79,73.09a114.3,114.3,0,0,0,26.19-67h0v-9.74ZM175.41,52.38a38.68,38.68,0,0,1,4.87,5.48Zm9.75,10.35h0c.61,0,.61.61,0,0Z"/></g></g></g></svg>