<svg xmlns="http://www.w3.org/2000/svg" xmlns:xlink="http://www.w3.org/1999/xlink" viewBox="0 0 114.09 114.09"><defs><style>.cls-1{fill:url(#Neues_Verlaufsfeld_2);}.cls-2{fill:#fff;}</style><linearGradient id="Neues_Verlaufsfeld_2" x1="-10.44" y1="96.01" x2="124.53" y2="18.08" gradientUnits="userSpaceOnUse"><stop offset="0" stop-color="#e71d73"/><stop offset="0.3" stop-color="#2d2e83"/><stop offset="0.64" stop-color="#00a19a"/><stop offset="0.9" stop-color="#95c11f"/><stop offset="1" stop-color="#fcea10"/></linearGradient></defs><title>unibright-logo</title><g id="Ebene_2" data-name="Ebene 2"><g id="Ebene_1-2" data-name="Ebene 1"><polygon class="cls-1" points="0 0 0 114.09 114.09 114.09 114.09 38.13 114.09 0 0 0"/><path class="cls-2" d="M84.17,33.83l-7.59-7.62H52.08V75.44H39.84V33.58H29.92v44.2l7.58,7.58H54.42L61.79,78H76.58l7.59-7.58V54.82l-2.7-2.63,2.7-2.7ZM62,36.13H74.25v11H62ZM74.29,68.07H62V57H74.29Z"/><path class="cls-2" d="M22.33,105.12a4.34,4.34,0,0,1-1-3.11V95.78h1.46v6.39a3,3,0,0,0,.6,2.07,2.44,2.44,0,0,0,1.88.64,2.44,2.44,0,0,0,1.88-.64,3,3,0,0,0,.6-2.07V95.78h1.43V102a4.38,4.38,0,0,1-.94,3.11,3.9,3.9,0,0,1-3,1A3.93,3.93,0,0,1,22.33,105.12Z"/><path class="cls-2" d="M38.08,95.78h1.38V106H38l-5.24-8v8H31.35V95.78h1.49l5.24,8Z"/><path class="cls-2" d="M41.64,106V95.78H43.1V106Z"/><path class="cls-2" d="M52.05,101.54a2.58,2.58,0,0,1,.52,1.65,2.66,2.66,0,0,1-.47,1.6,2.89,2.89,0,0,1-1.5,1,9.37,9.37,0,0,1-2.69.32,20.1,20.1,0,0,1-2.63-.17V96a15.21,15.21,0,0,1,2.95-.29,5.52,5.52,0,0,1,3.08.67,2.38,2.38,0,0,1,1,2.08,2.48,2.48,0,0,1-.44,1.47,2.25,2.25,0,0,1-1.31.83A2.54,2.54,0,0,1,52.05,101.54Zm-5.34-4.62v3.27h1.84a3,3,0,0,0,1.79-.42,1.48,1.48,0,0,0,.55-1.28,1.67,1.67,0,0,0-.25-1,1.43,1.43,0,0,0-.79-.55,4.86,4.86,0,0,0-1.46-.17A9.56,9.56,0,0,0,46.71,96.92ZM50,104.77a1.73,1.73,0,0,0,.92-.6,1.85,1.85,0,0,0,.28-1,1.58,1.58,0,0,0-.59-1.36,3.14,3.14,0,0,0-1.86-.44h-2v3.55a11.62,11.62,0,0,0,1.54.09A6.23,6.23,0,0,0,50,104.77Z"/><path class="cls-2" d="M60.29,106l-3-4.08h-.42c-.37,0-.82,0-1.32,0V106H54.11V96A15.1,15.1,0,0,1,57,95.67a5.21,5.21,0,0,1,3.1.75,2.74,2.74,0,0,1,1,2.35,2.82,2.82,0,0,1-.6,1.89,3.24,3.24,0,0,1-1.77,1L61.9,106Zm-4.74-5.27c.49,0,.94.06,1.34.06A3.78,3.78,0,0,0,59,100.3a1.76,1.76,0,0,0,.68-1.52,2.14,2.14,0,0,0-.27-1.14,1.59,1.59,0,0,0-.86-.64,4.41,4.41,0,0,0-1.49-.21,6.58,6.58,0,0,0-.8,0,7.4,7.4,0,0,0-.75.1Z"/><path class="cls-2" d="M63.28,106V95.78h1.46V106Z"/><path class="cls-2" d="M74.3,101v4.86a14.21,14.21,0,0,1-2.37.2,5.76,5.76,0,0,1-4.06-1.26,6.42,6.42,0,0,1,0-7.88,5.43,5.43,0,0,1,3.88-1.29,9,9,0,0,1,2.3.29v1.24a8.55,8.55,0,0,0-2.19-.29,4.83,4.83,0,0,0-2.1.4,2.67,2.67,0,0,0-1.28,1.29,5.29,5.29,0,0,0-.44,2.33,5.21,5.21,0,0,0,.42,2.26,2.64,2.64,0,0,0,1.26,1.27,4.81,4.81,0,0,0,2.11.41,10,10,0,0,0,1.1-.06V101Z"/><path class="cls-2" d="M76.38,106V95.78h1.46v4.32h5V95.78h1.46V106H82.87v-4.58h-5V106Z"/><path class="cls-2" d="M88.86,106V97H85.51V95.78h8.16V97H90.32v9Z"/></g></g></svg>