<svg width="96" height="96" viewBox="0 0 96 96" fill="none" xmlns="http://www.w3.org/2000/svg">
<path d="M48 95C57.2957 95 66.3827 92.2435 74.1118 87.0791C81.8409 81.9147 87.865 74.5743 91.4223 65.9861C94.9796 57.398 95.9104 47.9479 94.0969 38.8308C92.2834 29.7137 87.8071 21.3391 81.234 14.766C74.6609 8.19293 66.2863 3.71662 57.1692 1.90311C48.0521 0.0896077 38.602 1.02036 30.0139 4.57768C21.4257 8.135 14.0854 14.1591 8.92093 21.8882C3.7565 29.6173 1 38.7043 1 48C1 60.4652 5.95177 72.4198 14.766 81.234C23.5802 90.0482 35.5348 95 48 95Z" fill="#85bb65"/>
<path d="M60.9433 55.4691C60.9433 48.615 56.7721 46.3041 48.7037 45.1977C42.7406 44.336 41.595 42.9358 41.595 40.155C41.595 37.3741 43.6121 35.641 47.47 35.641C50.9852 35.641 53.0121 36.865 53.8444 39.6948C53.9327 40.0045 54.1186 40.2775 54.3743 40.4732C54.6301 40.669 54.9421 40.7772 55.2642 40.7816H58.3485C58.55 40.7858 58.7499 40.7455 58.934 40.6637C59.1181 40.5818 59.2819 40.4603 59.4138 40.3079C59.5456 40.1555 59.6422 39.9759 59.6967 39.782C59.7512 39.588 59.7623 39.3843 59.7292 39.1856C58.75 34.7108 55.7342 32.0181 51.0048 31.176V26.4564C51.0048 26.0669 50.85 25.6933 50.5746 25.4179C50.2992 25.1424 49.9256 24.9877 49.536 24.9877H46.5985C46.209 24.9877 45.8354 25.1424 45.56 25.4179C45.2845 25.6933 45.1298 26.0669 45.1298 26.4564V31.0095C39.2548 31.832 35.5437 35.7095 35.5437 40.6837C35.5437 47.1168 39.4604 49.6137 47.6462 50.7202C53.2177 51.6308 54.8039 52.8352 54.8039 55.9979C54.8039 59.1606 52.1112 61.2854 48.3121 61.2854C43.191 61.2854 41.4579 59.0431 40.8802 56.135C40.813 55.8013 40.6335 55.5007 40.3716 55.2833C40.1097 55.0659 39.7812 54.9449 39.4408 54.9404H36.0921C35.8923 54.9391 35.6946 54.9815 35.5129 55.0647C35.3312 55.1478 35.1698 55.2697 35.0402 55.4217C34.9105 55.5738 34.8157 55.7523 34.7623 55.9449C34.7089 56.1374 34.6982 56.3393 34.731 56.5364C35.5829 61.4323 38.726 65.016 45.1298 65.8777V70.5189C45.1298 70.9085 45.2845 71.2821 45.56 71.5575C45.8354 71.8329 46.209 71.9877 46.5985 71.9877H49.536C49.9256 71.9877 50.2992 71.8329 50.5746 71.5575C50.85 71.2821 51.0048 70.9085 51.0048 70.5189V65.8777C57.0756 64.9181 60.9433 60.7273 60.9433 55.4691Z" fill="white"/>
</svg>
