<svg id="Layer_1" data-name="Layer 1" xmlns="http://www.w3.org/2000/svg" viewBox="0 0 408.69 200"><defs><style>.cls-1,.cls-4{fill:#8266ab;}.cls-2{fill:#7357a3;}.cls-3{fill:#6d54a2;}.cls-4{opacity:0.39;}.cls-5{fill:#8ad4e9;}.cls-6,.cls-8{fill:#5ac6d4;}.cls-7,.cls-9{fill:#a0dae8;}.cls-8,.cls-9{opacity:0.5;}.cls-10{fill:#e6e7e8;}</style></defs><title>crypto-locally-logo-dark-bg (1)</title><polygon class="cls-1" points="0 109.59 0 109.59 44.47 94.4 44.66 124.58 44.66 183.1 0 109.59"/><polyline class="cls-2" points="44.66 183.1 44.47 94.4 89.1 109.48"/><polygon class="cls-3" points="89.1 109.47 44.56 135.08 44.54 135.08 0 109.59 44.54 83.87 89.1 109.47"/><polygon class="cls-4" points="77.5 102.75 44.66 121.62 44.65 121.62 11.83 102.76 44.65 83.87 77.5 102.75"/><polygon class="cls-5" points="89.1 39.63 44.56 65.23 44.54 65.23 0 39.63 44.54 14.03 89.1 39.63"/><polygon class="cls-6" points="89.1 39.63 89.1 90.84 44.54 116.46 44.54 65.23 44.56 65.23 89.1 39.63"/><polygon class="cls-7" points="44.54 65.23 44.54 116.46 0 90.84 0 39.63 44.54 65.23"/><polygon class="cls-8" points="16.03 67.28 16.03 81.63 28.51 88.81 28.51 74.45 28.51 74.45 16.03 67.28"/><polygon class="cls-9" points="89.11 55.53 89.11 39.63 44.57 65.23 44.57 81.13 44.67 81.07 44.67 82.81 44.53 82.89 44.53 98.8 76.53 80.41 76.53 82.19 44.57 100.56 44.57 116.46 89.11 90.86 89.11 74.96 89.02 75.01 89.02 73.23 89.08 73.19 89.08 57.29 57.16 75.64 57.16 73.9 89.11 55.53"/><polygon class="cls-8" points="75.27 47.59 89.1 39.63 44.56 14.03 44.55 14.03 44.55 14.03 30.96 21.84 30.72 21.98 30.72 21.98 13.46 31.9 0.01 39.63 0.01 39.63 0.01 39.63 13.83 47.59 13.84 47.58 44.56 65.23 58.38 57.28 27.68 39.63 29.3 38.69 41.21 45.54 54.95 37.54 43.13 30.74 44.55 29.93 75.27 47.59"/><polyline class="cls-8" points="28.57 74.45 28.57 74.45 16.09 67.28 16.09 81.63"/><path class="cls-10" d="M176.32,222.39A29,29,0,1,1,196.8,173a7.2,7.2,0,0,1-5.09,12.33,6.75,6.75,0,0,1-5.09-2.15,14,14,0,0,0-10.3-4.18,14.48,14.48,0,0,0,0,28.95,14.68,14.68,0,0,0,10.3-4.18,7.18,7.18,0,0,1,5.09-2.15,7.45,7.45,0,0,1,7.24,7.24,7.24,7.24,0,0,1-2.15,5.09A29,29,0,0,1,176.32,222.39Z" transform="translate(-45.65 -150)"/><path class="cls-10" d="M216.55,168.39a29.46,29.46,0,0,1,14.29-3.91,7.24,7.24,0,0,1,0,14.48,14.43,14.43,0,0,0-14.48,14.47v21.72a7.24,7.24,0,1,1-14.47,0V193.43a27.72,27.72,0,0,1,3.84-14.25c3-4.53,3.4-5.18,7-8.13" transform="translate(-45.65 -150)"/><path class="cls-10" d="M281.29,218.77a29.45,29.45,0,0,1-14,3.62,29,29,0,0,1-28.95-29V171.72a7.24,7.24,0,1,1,14.48,0v21.71a14.48,14.48,0,1,0,29,0V171.72a7.24,7.24,0,0,1,14.48,0v43.43a28.95,28.95,0,0,1-49.43,20.47,7.16,7.16,0,0,1-2.15-5.09,7.45,7.45,0,0,1,7.24-7.24,7.24,7.24,0,0,1,5.09,2.15,14.64,14.64,0,0,0,10.29,4.19A14.46,14.46,0,0,0,281.29,218.77Z" transform="translate(-45.65 -150)"/><path class="cls-10" d="M368.16,164.48v-7.24a7.24,7.24,0,1,1,14.47,0v7.24h10.86a7.24,7.24,0,0,1,0,14.48H382.63v21.71a7.3,7.3,0,0,0,7.24,7.24h3.62a7.24,7.24,0,1,1,0,14.48h-3.62a21.72,21.72,0,0,1-21.71-21.72V179h-5.43a7.24,7.24,0,0,1,0-14.48Z" transform="translate(-45.65 -150)"/><path class="cls-10" d="M425.39,164.48a29,29,0,1,1-29,29A29,29,0,0,1,425.39,164.48Zm0,43.43a14.48,14.48,0,1,0-14.48-14.48A14.44,14.44,0,0,0,425.39,207.91Z" transform="translate(-45.65 -150)"/><path class="cls-10" d="M331,164.89a29,29,0,0,0-28.94,28.63h0v43.65a7.24,7.24,0,0,0,14.48,0V218.89A28.7,28.7,0,0,0,331,222.8a29,29,0,1,0,0-57.91Zm0,43.43a14.48,14.48,0,1,1,14.48-14.48A14.43,14.43,0,0,1,331,208.32Z" transform="translate(-45.65 -150)"/><path class="cls-10" d="M162.52,325.42a7.58,7.58,0,1,1-15.15,0V257.26a7.58,7.58,0,0,1,15.15,0Z" transform="translate(-45.65 -150)"/><path class="cls-10" d="M197.25,272.41A30.3,30.3,0,1,1,167,302.7,30.35,30.35,0,0,1,197.25,272.41Zm0,45.44A15.15,15.15,0,1,0,182.1,302.7,15.1,15.1,0,0,0,197.25,317.85Z" transform="translate(-45.65 -150)"/><path class="cls-10" d="M261.63,333a30.3,30.3,0,1,1,21.42-51.72,7.53,7.53,0,0,1-5.32,12.9,7.08,7.08,0,0,1-5.33-2.25,14.66,14.66,0,0,0-10.77-4.37,15.15,15.15,0,0,0,0,30.29,15.3,15.3,0,0,0,10.77-4.38,7.54,7.54,0,0,1,5.33-2.25,7.79,7.79,0,0,1,7.57,7.58,7.52,7.52,0,0,1-2.25,5.32A30.27,30.27,0,0,1,261.63,333Z" transform="translate(-45.65 -150)"/><path class="cls-10" d="M369.92,325.42a7.58,7.58,0,1,1-15.15,0V257.26a7.58,7.58,0,0,1,15.15,0Z" transform="translate(-45.65 -150)"/><path class="cls-10" d="M389.5,325.42a7.58,7.58,0,1,1-15.15,0V257.26a7.58,7.58,0,0,1,15.15,0Z" transform="translate(-45.65 -150)"/><path class="cls-10" d="M438.72,323.49a30.66,30.66,0,0,1-14.67,3.79A30.35,30.35,0,0,1,393.76,297V274.26a7.57,7.57,0,0,1,15.14,0V297a15.15,15.15,0,1,0,30.3,0V274.26a7.58,7.58,0,0,1,15.15,0v45.45a30.3,30.3,0,0,1-51.72,21.42,7.56,7.56,0,0,1-2.25-5.33,7.79,7.79,0,0,1,7.58-7.57,7.48,7.48,0,0,1,5.32,2.25,15.35,15.35,0,0,0,10.77,4.37A15.11,15.11,0,0,0,438.72,323.49Z" transform="translate(-45.65 -150)"/><path class="cls-10" d="M320,272.41A30.3,30.3,0,1,0,320,333a30,30,0,0,0,15.81-4.52,7.56,7.56,0,0,0,14.48-3.06V302.7A30.35,30.35,0,0,0,320,272.41Zm0,45.44a15.15,15.15,0,1,1,15.14-15.15A15.1,15.1,0,0,1,320,317.85Z" transform="translate(-45.65 -150)"/></svg>