<svg id="zerion_logo" fill="none" viewBox="0 0 128 28" xmlns="http://www.w3.org/2000/svg">
    <path d="M44 20.368l6.983-11.596h-6.205V6.204h10.895v.387l-6.84 11.596h6.594v2.589H44v-.408zM59.505 6.204h9.543v2.568h-6.246v3.403h4.997v2.405h-4.997v3.628h6.573v2.568h-9.87V6.204zM73.401 6.204h5.243c.86 0 1.638.088 2.334.265.697.176 1.29.448 1.782.815.491.367.867.829 1.126 1.386.273.557.41 1.21.41 1.956v.082c0 .557-.075 1.046-.225 1.467-.15.421-.362.788-.635 1.1a3.895 3.895 0 01-.963.796 5.136 5.136 0 01-1.187.51l3.87 6.195h-3.522l-3.502-5.625h-1.434v5.625h-3.297V6.204zm5.16 6.705c.834 0 1.455-.177 1.864-.53.424-.353.635-.876.635-1.57v-.08c0-.748-.218-1.264-.655-1.55-.423-.299-1.038-.448-1.843-.448h-1.864v4.178h1.864zM88.94 6.204h3.338v14.572H88.94V6.204zM104.034 18.37c.614 0 1.167-.115 1.659-.346a3.653 3.653 0 001.29-.978c.341-.407.608-.91.799-1.508a6.542 6.542 0 00.286-1.997v-.163c0-.707-.095-1.352-.286-1.936a4.392 4.392 0 00-.779-1.509 3.653 3.653 0 00-1.29-.978c-.505-.23-1.078-.346-1.72-.346-.642 0-1.215.115-1.72.346-.492.218-.915.53-1.27.938-.355.42-.628.93-.819 1.528-.177.584-.266 1.243-.266 1.977v.163c0 .747.102 1.42.307 2.018.205.584.492 1.08.86 1.488.355.42.785.747 1.29.978a4.151 4.151 0 001.659.326zm-.061 2.63c-1.147 0-2.185-.183-3.113-.55-.928-.38-1.713-.904-2.355-1.57a6.69 6.69 0 01-1.516-2.343 8.065 8.065 0 01-.532-2.955v-.164c0-1.086.184-2.085.553-2.995a6.887 6.887 0 011.597-2.344 7.2 7.2 0 012.376-1.529c.914-.367 1.918-.55 3.01-.55 1.106 0 2.116.177 3.031.53.928.353 1.727.85 2.396 1.488a6.993 6.993 0 011.536 2.323c.382.897.573 1.895.573 2.996v.163c0 1.087-.184 2.092-.553 3.016a6.905 6.905 0 01-1.515 2.364 7.016 7.016 0 01-2.376 1.57c-.928.367-1.966.55-3.112.55zM115.631 6.204h3.85l5.57 9.599v-9.6H128v14.573h-3.318l-6.102-10.374v10.374h-2.949V6.204z" fill="#2962EF"></path>
    <rect width="28" height="28" rx="4.512" fill="#2962EF"></rect>
    <path fill-rule="evenodd" clip-rule="evenodd" d="M12.107 19.362l1.882-2.699-3.939.015-3.083 4.333c-.21.331-.124.724-.124.724 0 .237.224.45.474.45h13.7c.092 0 .167-.07.167-.158a.154.154 0 00-.053-.116l-2.793-2.46a.17.17 0 00-.113-.041h-6.118s-.041.007 0-.048zm3.78-10.74l-1.915 2.654 3.837.021c1.723-2.439 3.185-4.508 3.255-4.613.152-.225.114-.465.114-.465 0-.234-.225-.445-.475-.445H6.99c-.148 0-.222.168-.118.267l2.566 2.426c.03.03.074.047.118.047h2.564l3.766.015s.072-.006 0 .093z" fill="#FEFFFE"></path>
</svg>