<?xml version="1.0" encoding="UTF-8"?>
<svg xmlns="http://www.w3.org/2000/svg" width="60" height="63" viewBox="0 0 60 63" fill="none">
   <path fill-rule="evenodd" clip-rule="evenodd" d="M9.618 6.02H6.63V3.297c0-.394-.065-.65-.196-.77-.132-.121-.395-.182-.788-.182H3.97c-.393 0-.657.06-.787.181-.131.12-.198.377-.198.771v14.017c0 .394.067.652.198.772.13.12.394.18.787.18h1.675c.393 0 .656-.06.788-.18.131-.12.196-.378.196-.772v-5.022H4.99V9.993h4.628v7.681c0 1.948-1.018 2.922-3.053 2.922H3.053C1.017 20.596 0 19.622 0 17.674V2.902C0 .977 1.017.013 3.053.013h3.512c2.035 0 3.053.964 3.053 2.89V6.02zM15.92 2.41v7.485h2.889c.395 0 .656-.06.788-.181.132-.12.197-.377.197-.771V3.362c0-.394-.065-.65-.197-.771-.132-.12-.393-.181-.788-.181H15.92zm0 9.848v8.306h-2.954V.014h6.73c2.034 0 3.053.963 3.053 2.888v6.435c0 1.663-.733 2.615-2.2 2.855l3.25 8.372h-3.185l-3.085-8.306H15.92zM29.213 18.167h5.942v2.397h-8.928V.014h8.699V2.41h-5.713v6.335h4.728v2.397h-4.728v7.025zM40.736 18.167h5.941v2.397H37.75V.014h8.699V2.41h-5.713v6.335h4.728v2.397h-4.728v7.025zM56.591.013h2.725v20.55h-2.987L51.996 5.727v14.838h-2.724V.014h3.118l4.201 14.41V.014zM9.126 32.165H3.15v6.763h4.728v2.33H3.15v9.06H.164v-20.55h8.962v2.397zM10.404 50.319h2.956v-20.55h-2.956v20.55zM.164 62.48h59.152v-2.956H.164v2.955zM19.103 47.922h5.941v2.397h-8.927v-20.55h8.698v2.396h-5.712v6.336h4.728v2.396h-4.728v7.025zM29.41 47.922H34.5v2.397h-8.043v-20.55h2.954v18.153zM43.69 47.036V33.051c0-.393-.066-.65-.197-.77-.132-.12-.395-.182-.788-.182h-3.25v15.89h3.25c.393 0 .656-.06.788-.181.131-.12.196-.378.196-.772zM36.467 29.77h7.156c2.035 0 3.053.963 3.053 2.889V47.43c0 1.926-1.018 2.889-3.053 2.889h-7.156v-20.55zM57.374 46.356h-6.16c-.23 0-.378.038-.448.114-.07.077-.105.229-.105.457v1.104c0 .228.035.378.105.447.07.07.218.104.447.104h6.161c.23 0 .378-.034.448-.104.069-.07.104-.22.104-.447v-1.104c0-.228-.035-.38-.104-.457-.07-.076-.218-.114-.448-.114zm-8.102 2.17v-2.112c0-1.181.56-1.77 1.675-1.77h6.694c1.116 0 1.675.589 1.675 1.77v2.112c0 1.192-.559 1.789-1.675 1.789h-6.694c-1.116 0-1.675-.597-1.675-1.79zM49.272 38.498v-1.58h10.044v1.733l-6.733 2.511h6.733v1.58H49.272v-1.808l6.486-2.436h-6.486zM57.926 33.208v-3.444h1.39v5.176H49.272v-5.042h1.39v3.31h2.937v-2.74h1.39v2.74h2.937z" fill="#000" />
</svg>