<?xml version="1.0" encoding="utf-8"?>
<!-- Generator: Adobe Illustrator 19.2.1, SVG Export Plug-In . SVG Version: 6.00 Build 0)  -->
<svg version="1.1" id="layer" xmlns="http://www.w3.org/2000/svg" xmlns:xlink="http://www.w3.org/1999/xlink" x="0px" y="0px"
	 viewBox="0 0 652 652" style="enable-background:new 0 0 652 652;" xml:space="preserve">
<style type="text/css">
	.st0{fill:#052892;}
	.st1{fill:#1E2837;}
</style>
<g id="Page-1">
	<g id="quantstamp-dark">
		<path id="Shape" class="st0" d="M121,321.5c0-8.7-2.5-17.2-7.3-24.5l17.7-17.7L118.1,266l-17.7,17.7c-14.9-9.7-34.2-9.7-49.1,0
			L33.7,266l-13.3,13.3L38.1,297c-9.7,14.9-9.7,34.2,0,49.1l-17.7,17.7l13.3,13.3l17.7-17.7c14.9,9.7,34.2,9.7,49.1,0l17.7,17.7
			l13.3-13.3l-17.7-17.7C118.5,338.8,121,330.3,121,321.5L121,321.5z M49.6,321.5c0-10.7,6.5-20.4,16.5-24.4c10-4,21.4-1.6,28.8,6.1
			s9.5,19.2,5.1,29l-17.4-17.4l-13.3,13.3l17.4,17.4c-8.1,3.7-17.6,2.9-25.1-1.9S49.6,330.5,49.6,321.5L49.6,321.5z"/>
		<path id="Shape_1_" class="st1" d="M216.6,322.1c0,10.9-5.5,20.7-15.3,25.2l5.2,6.8l-10.7,5.4l-7.2-9.5h-0.2
			c-17.7,0-28.2-12.9-28.2-27.9c0-15,10.5-27.9,28.2-27.9S216.6,307.1,216.6,322.1L216.6,322.1z M188.4,339c10,0,15.5-7.8,15.5-17
			c0-9.2-5.4-17-15.5-17c-10.1,0-15.5,7.8-15.5,17C172.9,331.3,178.3,339,188.4,339z M236.3,349.4c-8.7,0-13.4-5.4-13.4-14.9v-22.5
			h11.7V332c0,5,1.7,7.7,6,7.7c4.9,0,7-3.2,7-8.1v-19.5h11.5v36.3h-11.5v-5.2C245.6,347.1,241.8,349.4,236.3,349.4L236.3,349.4z
			 M283.2,349.4c-10.9,0-17.1-8.2-17.1-19.1c0-10.9,6.7-19.1,17.3-19.1c5.3,0,9.4,2.5,11.4,6.2v-5.2h11.5v36.3h-11.5v-5.1
			C292.7,346.9,288.2,349.4,283.2,349.4L283.2,349.4z M286.5,339.9c5.7,0,8.7-4.3,8.7-9.6c0-5.2-2.9-9.5-8.7-9.5
			c-5.3,0-8.7,4-8.7,9.5S281.1,339.9,286.5,339.9z M315.7,312.1h11.5v5.3c2.1-4.1,6.3-6.3,11.8-6.3c8.8,0,13.3,5,13.3,14.8v22.5
			h-11.6v-18.7c0-6.1-1.7-8.9-6.4-8.9c-4.6,0-7,3-7,8.6v19h-11.5V312.1z M380.5,339.5c1.4,0,2.9-0.1,4-0.2v9.2
			c-1.7,0.3-4.4,0.6-7.7,0.6c-5.4,0-12.9-1.2-12.9-13.3v-14.5h-5.7v-9.1h5.7v-10.8h11.5v10.8h8.2v9.1h-8.2v12.1
			C375.5,338.6,377.7,339.5,380.5,339.5z M405.7,349.6c-10.6,0-17.2-5.2-17.2-12.1H400c0,2.5,2.4,4.3,6,4.3c2.5,0,4.2-1.3,4.2-3.4
			c0-1.4-0.7-2.6-2.6-3.1l-8.9-2.3c-6-1.5-9.1-5.3-9.1-10.5c0-6.8,6-11.5,15.5-11.5c10.6,0,16.2,4.4,16.2,11.3h-11.4
			c0-2.6-1.9-4-5-4c-2.5,0-4.1,1.2-4.1,3c0,1.7,1.1,2.7,3.1,3.2l8.6,2.3c5.6,1.5,9.2,4.9,9.2,10.1
			C421.6,344.5,415.7,349.6,405.7,349.6L405.7,349.6z M447.8,339.5c1.4,0,2.9-0.1,4-0.2v9.2c-1.7,0.3-4.4,0.6-7.7,0.6
			c-5.4,0-12.9-1.2-12.9-13.3v-14.5h-5.7v-9.1h5.7v-10.8h11.5v10.8h8.2v9.1h-8.2v12.1C442.8,338.6,445,339.5,447.8,339.5z
			 M472.9,349.4c-10.9,0-17.1-8.2-17.1-19.1c0-10.9,6.7-19.1,17.3-19.1c5.3,0,9.4,2.5,11.4,6.2v-5.2h11.5v36.3h-11.5v-5.1
			C482.5,346.9,478,349.4,472.9,349.4z M476.3,339.9c5.7,0,8.7-4.3,8.7-9.6c0-5.2-2.9-9.5-8.7-9.5c-5.3,0-8.7,4-8.7,9.5
			S470.9,339.9,476.3,339.9z M505.5,312.1H517v5.3c1.6-3.6,5.4-6.3,10.4-6.3c6.5,0,9.8,2.9,11.4,6.7c2-3.9,6.3-6.7,11.6-6.7
			c10.4,0,12.9,7.2,12.9,14.8v22.5h-11.6V328c0-5-1.9-7.2-5.4-7.2c-3.6,0-6.1,2-6.1,8.9v18.7h-11.6v-20.5c0-5-1.8-7.1-5.4-7.1
			c-3.7,0-6.2,2-6.2,8.9v18.7h-11.5V312.1z M572.4,312.1H584v5.2c1.9-3.5,6.4-6.2,11.8-6.2c9.9,0,16.7,7.7,16.7,19.1
			c0,11.4-7,19.1-17,19.1c-5.3,0-9.7-2.7-11.5-6.1v20.2h-11.5L572.4,312.1L572.4,312.1z M592.2,339.9c5,0,8.6-3.9,8.6-9.6
			c0-5.6-3.5-9.5-8.6-9.5c-5.2,0-8.7,3.8-8.7,9.5C583.4,336,587,339.9,592.2,339.9z M615.6,319.7c-0.9,0-1.8-0.2-2.6-0.7
			c-0.7-0.4-1.3-1-1.7-1.8c-0.4-0.8-0.6-1.6-0.6-2.5c0-0.9,0.2-1.7,0.6-2.5c0.4-0.8,1-1.3,1.7-1.8c0.8-0.4,1.7-0.7,2.6-0.7
			c1,0,1.8,0.2,2.6,0.7c0.7,0.4,1.3,1,1.7,1.8c0.4,0.7,0.6,1.6,0.6,2.5c0,0.9-0.2,1.8-0.6,2.5c-0.4,0.7-1,1.4-1.7,1.8
			C617.4,319.5,616.5,319.7,615.6,319.7L615.6,319.7z M615.6,318.9c0.8,0,1.5-0.2,2.1-0.6c0.6-0.4,1.1-0.9,1.4-1.5
			c0.3-0.6,0.5-1.3,0.5-2.1c0-0.7-0.2-1.4-0.5-2.1c-0.6-1.3-2-2.1-3.4-2c-0.7,0-1.4,0.2-2.1,0.6c-0.6,0.4-1.1,0.9-1.4,1.5
			c-0.3,0.6-0.5,1.3-0.5,2.1c0,0.8,0.2,1.5,0.5,2.1c0.3,0.6,0.8,1.1,1.4,1.5C614.1,318.7,614.8,318.9,615.6,318.9L615.6,318.9z
			 M613.8,312.1h2c0.5,0,0.9,0.2,1.3,0.5c0.3,0.3,0.5,0.8,0.5,1.3c0,0.4-0.1,0.7-0.3,1c-0.2,0.3-0.5,0.5-0.9,0.6l1.1,1.8h-0.9
			l-1-1.7h-1v1.7h-0.8V312.1L613.8,312.1z M615.8,314.9c0.3,0,0.6-0.1,0.7-0.3c0.2-0.2,0.3-0.5,0.3-0.7c0-0.3-0.1-0.6-0.3-0.8
			c-0.2-0.2-0.5-0.3-0.7-0.3h-1.1v2.1H615.8L615.8,314.9z"/>
	</g>
</g>
</svg>
