<?xml version="1.0" encoding="UTF-8"?>
<svg width="92px" height="90px" viewBox="0 0 92 90" version="1.1" xmlns="http://www.w3.org/2000/svg" xmlns:xlink="http://www.w3.org/1999/xlink">
    <!-- Generator: Sketch 55.2 (78181) - https://sketchapp.com -->
    <title>trophy</title>
    <desc>Created with Sketch.</desc>
    <defs>
        <linearGradient x1="50%" y1="0%" x2="50%" y2="100%" id="linearGradient-1">
            <stop stop-color="#73717d" offset="0%"></stop>
            <stop stop-color="#5b5967" offset="53.1355574%"></stop>
            <stop stop-color="#3F3D4B" offset="100%"></stop>
        </linearGradient>
    </defs>
    <g id="Tickers" stroke="none" stroke-width="1" fill="none" fill-rule="evenodd">
        <g id="trophy" fill="url(#linearGradient-1)">
            <path d="M91.025,7.385 C91.025,6.991 90.959,6.663 90.828,6.4 C90.697,6.006 90.434,5.744 90.04,5.612 C89.777,5.349 89.449,5.218 89.055,5.218 L75.27,5.218 L75.27,1.871 C75.27,1.477 75.073,1.083 74.679,0.689 C74.285,0.295 73.826,0.098 73.3,0.098 L18.553,0.098 C18.028,0.098 17.568,0.295 17.174,0.689 C16.911,1.083 16.78,1.477 16.78,1.871 L16.78,5.219 L2.798,5.219 C2.404,5.219 2.076,5.35 1.813,5.613 C1.55,5.744 1.354,6.007 1.222,6.4 C1.091,6.663 1.025,6.991 1.025,7.385 C1.025,7.385 0.316,30.39 2.797,37.516 C4.448,42.258 10.806,48.938 17.764,50.908 C20.521,57.473 27.939,62.658 40.018,66.466 L40.412,79.267 L23.87,83.206 C23.476,83.206 23.148,83.403 22.885,83.797 C22.622,84.191 22.491,84.519 22.491,84.782 L22.491,89.902 L69.559,89.902 L69.559,84.782 C69.559,84.519 69.428,84.191 69.165,83.797 C68.902,83.403 68.574,83.206 68.18,83.206 L51.243,79.267 L51.637,66.466 C62.973,63.997 70.456,58.811 74.088,50.908 C81.178,48.939 87.407,42.259 89.055,37.516 C91.534,30.386 91.025,7.385 91.025,7.385 Z M16.78,41.652 C13.76,40.602 10.967,38.917 10.281,35.941 C9.323,31.789 9.717,20.943 9.954,16.092 C10.02,14.742 11.133,13.687 12.485,13.687 L16.78,13.687 L16.78,41.652 Z M81.769,35.941 C81.012,38.96 78.158,40.602 75.27,41.652 L75.27,13.687 L79.578,13.687 C80.925,13.687 82.036,14.735 82.108,16.08 C82.369,20.929 82.807,31.803 81.769,35.941 Z" id="Shape"></path>
        </g>
    </g>
</svg>