<?xml version="1.0" encoding="iso-8859-1"?>
<!-- Generator: Adobe Illustrator 19.0.0, SVG Export Plug-In . SVG Version: 6.00 Build 0)  -->
<svg version="1.1" id="Capa_1" xmlns="http://www.w3.org/2000/svg" xmlns:xlink="http://www.w3.org/1999/xlink" x="0px" y="0px"
	 viewBox="0 0 512 512" style="enable-background:new 0 0 512 512;" xml:space="preserve">
<circle style="fill:#FDB62F;" cx="409.6" cy="302.933" r="59.733"/>
<rect x="247.467" y="64" style="fill:#6B962A;" width="17.067" height="162.133"/>
<path style="fill:#88B337;" d="M256,64h-17.067C205.943,64,179.2,37.257,179.2,4.267h17.067C229.257,4.267,256,31.01,256,64z"/>
<rect x="179.2" y="260.267" style="fill:#FFA83D;" width="119.467" height="34.133"/>
<rect x="196.267" y="294.4" style="fill:#FDB62F;" width="119.467" height="34.133"/>
<rect x="179.2" y="328.533" style="fill:#FFA83D;" width="119.467" height="34.133"/>
<rect x="196.267" y="362.667" style="fill:#FDB62F;" width="119.467" height="34.133"/>
<rect x="196.267" y="396.8" style="fill:#FFA83D;" width="119.467" height="34.133"/>
<rect x="213.333" y="430.933" style="fill:#FDB62F;" width="119.467" height="34.133"/>
<rect x="196.267" y="465.067" style="fill:#FFA83D;" width="119.467" height="34.133"/>
<path style="fill:#88B337;" d="M153.6,89.6h17.067c47.13,0,85.333,38.204,85.333,85.333l0,0l0,0h-17.067
	C191.804,174.933,153.6,136.73,153.6,89.6L153.6,89.6L153.6,89.6z"/>
<g>
	<path style="fill:#6B962A;" d="M332.8,4.267h-17.067C282.743,4.267,256,31.01,256,64h17.067C306.057,64,332.8,37.257,332.8,4.267z"
		/>
	<path style="fill:#6B962A;" d="M273.067,174.933H256l0,0l0,0c0-47.13,38.204-85.333,85.333-85.333H358.4l0,0l0,0
		C358.4,136.73,320.196,174.933,273.067,174.933z"/>
</g>
<rect x="25.6" y="328.533" style="fill:#FDB62F;" width="119.467" height="34.133"/>
<rect x="25.6" y="362.667" style="fill:#FFA83D;" width="119.467" height="34.133"/>
<rect x="42.667" y="396.8" style="fill:#FDB62F;" width="119.467" height="34.133"/>
<rect x="25.6" y="430.933" style="fill:#FFA83D;" width="119.467" height="34.133"/>
<g>
	<rect x="42.667" y="465.067" style="fill:#FDB62F;" width="119.467" height="34.133"/>
	<rect x="349.867" y="362.667" style="fill:#FDB62F;" width="119.467" height="34.133"/>
</g>
<rect x="366.933" y="396.8" style="fill:#FFA83D;" width="119.467" height="34.133"/>
<rect x="366.933" y="430.933" style="fill:#FDB62F;" width="119.467" height="34.133"/>
<g>
	<rect x="366.933" y="465.067" style="fill:#FFA83D;" width="119.467" height="34.133"/>
	<circle style="fill:#FFA83D;" cx="409.6" cy="302.933" r="34.133"/>
</g>
<g>
	<path style="fill:#FD7B2F;" d="M409.6,337.067V320c9.429,0,17.067-7.637,17.067-17.067h17.067
		C443.733,321.783,428.45,337.067,409.6,337.067z"/>
	<path style="fill:#FD7B2F;" d="M392.533,302.933h-17.067c0-18.85,15.283-34.133,34.133-34.133v17.067
		C400.171,285.867,392.533,293.504,392.533,302.933z"/>
</g>
<g>
	<path style="fill:#FDB62F;" d="M426.667,89.6L426.667,89.6c-2.901-17.51-16.623-31.232-34.133-34.133l0,0
		c17.51-2.901,31.232-16.623,34.133-34.133l0,0c2.901,17.51,16.623,31.232,34.133,34.133l0,0
		C443.29,58.368,429.568,72.09,426.667,89.6z"/>
	<path style="fill:#FDB62F;" d="M85.333,277.333L85.333,277.333C82.432,259.823,68.71,246.101,51.2,243.2l0,0
		c17.51-2.901,31.232-16.623,34.133-34.133l0,0c2.901,17.51,16.623,31.232,34.133,34.133l0,0
		C101.956,246.101,88.235,259.823,85.333,277.333z"/>
	<rect x="196.267" y="226.133" style="fill:#FDB62F;" width="119.467" height="34.133"/>
	<polygon style="fill:#FDB62F;" points="512,200.533 486.4,200.533 486.4,174.933 469.333,174.933 469.333,200.533 443.733,200.533 
		443.733,217.6 469.333,217.6 469.333,243.2 486.4,243.2 486.4,217.6 512,217.6 	"/>
</g>
<g>
	<rect y="490.667" style="fill:#DBDBDB;" width="512" height="17.067"/>
	<path style="fill:#DBDBDB;" d="M170.667,200.533c-28.279,0-51.2-22.921-51.2-51.2V140.8h17.067v8.533
		c0,18.85,15.283,34.133,34.133,34.133V200.533z"/>
</g>
<g>
</g>
<g>
</g>
<g>
</g>
<g>
</g>
<g>
</g>
<g>
</g>
<g>
</g>
<g>
</g>
<g>
</g>
<g>
</g>
<g>
</g>
<g>
</g>
<g>
</g>
<g>
</g>
<g>
</g>
</svg>
