<svg height="300px" width="300px" fill="#000000" xmlns="http://www.w3.org/2000/svg" xmlns:xlink="http://www.w3.org/1999/xlink" version="1.1" x="0px" y="0px" viewBox="5 5 90 90" enable-background="new 5 5 90 90" xml:space="preserve">
    <defs>
        <linearGradient x1="50%" y1="0%" x2="50%" y2="100%" id="linearGradient-1">
            <stop stop-color="#f2b86f" offset="0%"></stop>
            <stop stop-color="#eb8e0f" offset="52.4255701%"></stop>
            <stop stop-color="#b06d0b" offset="100%"></stop>
        </linearGradient>
        <linearGradient x1="50%" y1="0%" x2="50%" y2="100%" id="linearGradient-2">
            <stop stop-color="#f2b86f" offset="0%"></stop>
            <stop stop-color="#eb8e0f" offset="53.1355574%"></stop>
            <stop stop-color="#b06d0b" offset="100%"></stop>
        </linearGradient>
    </defs>
    <g id="Group" fill="url(#linearGradient-2)">
      <path d="M50,5C25.1,5,5,25.1,5,50s20.1,45,45,45s45-20.1,45-45S74.9,5,50,5z M76.6,54.9c-3.4,3.9-7.9,5.9-13.5,5.9  c-4.3,0-9.5-1.8-15.6-5.3c-4.4-2.5-7.5-4-9.4-4c-5,0-7.6,3.5-7.8,9.5H18c0.2-6,2-12,5.4-16c3.4-3.9,7.9-5.9,13.7-5.9  c4.5,0,9.3,1.6,14.4,4.6c5.2,3.1,8.9,4.7,10.9,4.7c2.1,0,3.8-0.8,5.2-2.5c1.3-1.8,2.1-4,2.1-7H82C81.8,46,80,51,76.6,54.9z"></path>
    </g>
</svg>