<?xml version="1.0" encoding="UTF-8"?>
<svg width="41px" height="41px" viewBox="0 0 41 30" version="1.1" xmlns="http://www.w3.org/2000/svg" xmlns:xlink="http://www.w3.org/1999/xlink">
    <defs>
        <linearGradient x1="50%" y1="0%" x2="50%" y2="100%" id="linearGradient-1">
            <stop stop-color="#73717d" offset="0%"></stop>
            <stop stop-color="#5b5967" offset="53.1355574%"></stop>
            <stop stop-color="#3F3D4B" offset="100%"></stop>
        </linearGradient>
    </defs>
    <g id="Tickers" stroke="none" stroke-width="1" fill="none" fill-rule="evenodd">
        <g id="Libra_logo" fill="url(#linearGradient-1)" fill-rule="nonzero">
            <path d="M38.1735427,24.8693306 C39.2532389,23.4883556 40.2006182,21.9832868 41,20.3790356 L36.2164848,17.7001354 C35.5288215,19.0024931 34.6850486,20.1921588 33.7089285,21.2356289 C32.375122,22.6282751 30.9564369,23.4398563 29.5122882,23.6471847 C26.72342,24.0468373 24.7748499,23.0783958 21.9326295,21.0269366 C18.9461154,18.8718132 15.5618845,16.4288854 10.7589684,17.1190705 C7.84884512,17.5391832 5.17395676,19.2537338 2.82403218,22.2190744 C1.74489706,23.5994361 0.798308283,25.1040832 0,26.7080054 L4.78230266,29.3869056 C5.46954757,28.0849032 6.31155381,26.8945099 7.28500872,25.8486841 C8.60911484,24.4764979 10.0156744,23.6731007 11.4828616,23.4616804 C11.8849604,23.4030196 12.2899485,23.3729519 12.695413,23.3716562 C14.8949812,23.3716562 16.6616686,24.3264577 19.0637329,26.0601044 C21.8526011,28.0747355 25.3277733,30.5817714 30.239819,29.8793103 C33.2081448,29.4482857 35.8781829,27.7637431 38.1735427,24.8693306 L38.1735427,24.8693306 Z M38.1735427,7.86955697 C39.2532389,6.48854229 40.2006182,4.9834302 41,3.37913279 L36.2164848,0.70015555 C35.5288215,2.00255068 34.6850486,3.19225067 33.7089285,4.23575077 C32.375122,5.628437 30.9564369,6.44004162 29.5122882,6.6473759 C26.72342,7.04704002 24.7748499,6.07857065 21.9326295,4.02705244 C18.9497531,1.87186708 15.5655221,-0.571131003 10.7626061,0.119073928 C7.84763257,0.546018875 5.17759442,2.25379866 2.82766983,5.21922459 C1.74726709,6.59943002 0.799454467,8.10412757 0,9.70828473 L4.78230266,12.387262 C5.46954757,11.0852221 6.31155381,9.89479456 7.28500872,8.84893867 C8.60911484,7.47671305 10.0156744,6.67329269 11.4828616,6.46186628 C11.8849604,6.40320385 12.2899485,6.37313523 12.695413,6.37183955 C14.8949812,6.37183955 16.6616686,7.3266685 19.0637329,9.06036508 C21.8526011,11.0750542 25.3253482,13.5807982 30.239819,12.8796809 C33.2081448,12.4486438 35.8781829,10.7640527 38.1735427,7.86955697 L38.1735427,7.86955697 Z" id="path815"></path>
        </g>
    </g>
</svg>