<svg id="Layer_1" data-name="Layer 1" xmlns="http://www.w3.org/2000/svg" xmlns:xlink="http://www.w3.org/1999/xlink" viewBox="-50 0 1100 220"><defs><style>.cls-1{fill:url(#linear-gradient);}.cls-2{fill:url(#linear-gradient-2);}.cls-3{fill:url(#linear-gradient-3);}.cls-4{fill:url(#linear-gradient-4);}.cls-5{fill:url(#linear-gradient-5);}.cls-6{fill:none;}.cls-12,.cls-7,.cls-8{fill:#fff;}.cls-7{opacity:0.06;}.cls-10,.cls-7,.cls-8,.cls-9{isolation:isolate;}.cls-8{opacity:0.15;}.cls-9{opacity:0.21;}.cls-10{opacity:0.1;}.cls-11{opacity:0.3;}</style><linearGradient id="linear-gradient" x1="500.38" y1="-215.33" x2="514.27" y2="-212.1" gradientTransform="matrix(55.73, 0, 0, -61.13, -27872, -12937.9)" gradientUnits="userSpaceOnUse"><stop offset="0" stop-color="#31bac6"/><stop offset="1" stop-color="#b6509e"/></linearGradient><linearGradient id="linear-gradient-2" x1="495.83" y1="-216.5" x2="514.16" y2="-213.22" gradientTransform="matrix(42.21, 0, 0, -60.24, -20902.44, -12760.76)" xlink:href="#linear-gradient"/><linearGradient id="linear-gradient-3" x1="501.19" y1="-214.95" x2="515.07" y2="-211.72" gradientTransform="matrix(55.78, 0, 0, -61.13, -27948.01, -12938.9)" xlink:href="#linear-gradient"/><linearGradient id="linear-gradient-4" x1="502.09" y1="-214.08" x2="515.97" y2="-210.84" gradientTransform="matrix(55.78, 0, 0, -61.13, -28014.25, -12938.09)" xlink:href="#linear-gradient"/><linearGradient id="linear-gradient-5" x1="517.06" y1="-211.55" x2="519.91" y2="-209.59" gradientTransform="matrix(54.82, 0, 0, -80.09, -27521.5, -16735.13)" gradientUnits="userSpaceOnUse"><stop offset="0" stop-color="#30bac6"/><stop offset="1" stop-color="#b6509e"/></linearGradient></defs><title>MediaKit</title><g id="Group_4051" data-name="Group 4051"><path id="Path_2431" data-name="Path 2431" class="cls-1" d="M478.82,203.2,404.08,21.93a15.83,15.83,0,0,1-.92-5.15,14.29,14.29,0,0,1,3.67-10.1,12.88,12.88,0,0,1,9.92-3.85,13.34,13.34,0,0,1,7.72,2.57,16.27,16.27,0,0,1,5.32,6.79l71.07,177.42L571.93,12.19a16.27,16.27,0,0,1,5.32-6.79A13.34,13.34,0,0,1,585,2.83a12.86,12.86,0,0,1,9.91,3.85,14.25,14.25,0,0,1,3.68,10.1,16.31,16.31,0,0,1-.92,5.14L522.9,203.2c-4.21,9.37-10.47,14-18.74,14h-6.61C489.29,217.16,483.05,212.57,478.82,203.2Z"/><path id="Path_2432" data-name="Path 2432" class="cls-2" d="M630.33,211.65a13.28,13.28,0,0,1-3.86-9.74V18.25a14,14,0,0,1,3.86-9.91,12.73,12.73,0,0,1,9.73-4H761.44a12.09,12.09,0,0,1,9.19,3.85,12.39,12.39,0,0,1,3.85,9.19,11.66,11.66,0,0,1-3.85,9A13,13,0,0,1,761.44,30H654V96.87h96.6a12.09,12.09,0,0,1,9.18,3.86,12.6,12.6,0,0,1,3.85,9.18,11.66,11.66,0,0,1-3.85,9,12.88,12.88,0,0,1-9.18,3.67H654V189.8H761.44a12,12,0,0,1,9.18,3.86,12.33,12.33,0,0,1,3.86,9.18,11.64,11.64,0,0,1-3.86,9,12.93,12.93,0,0,1-9.18,3.67H640.06A12,12,0,0,1,630.33,211.65Z"/><path id="Path_2433" data-name="Path 2433" class="cls-3" d="M421,198.06,346.25,16.78C342,7.42,335.78,2.83,327.51,2.83h-6.62c-8.26,0-14.5,4.59-18.73,14l-32.5,79H245.05a13.5,13.5,0,0,0-13.41,13.41v.18a13.49,13.49,0,0,0,13.41,13.41h13.22l-31,75.3a15.81,15.81,0,0,0-.92,5.14,14.19,14.19,0,0,0,3.67,10.1,12.89,12.89,0,0,0,9.92,3.86,13.45,13.45,0,0,0,7.71-2.57,16.3,16.3,0,0,0,5.33-6.8l34.15-85h23.5A13.49,13.49,0,0,0,324,109.35V109a13.48,13.48,0,0,0-13.4-13.41H297.93l26.26-65.2,71.07,177.42a16.21,16.21,0,0,0,5.33,6.79,13.28,13.28,0,0,0,7.71,2.57,12.88,12.88,0,0,0,9.92-3.85,14.21,14.21,0,0,0,3.67-10.11A12.28,12.28,0,0,0,421,198.06Z"/><path id="Path_2434" data-name="Path 2434" class="cls-4" d="M197.67,198.06,122.94,16.78C118.7,7.42,112.46,2.83,104.2,2.83H97.59c-8.27,0-14.51,4.59-18.74,14l-32.5,79H21.74a13.49,13.49,0,0,0-13.4,13.41v.18a13.49,13.49,0,0,0,13.4,13.42H35l-31,75.3A15.81,15.81,0,0,0,3,203.2a14.17,14.17,0,0,0,3.67,10.1,12.89,12.89,0,0,0,9.92,3.86,13.43,13.43,0,0,0,7.71-2.57,16.3,16.3,0,0,0,5.33-6.8l34.16-85H87.49a13.49,13.49,0,0,0,13.4-13.41V109a13.48,13.48,0,0,0-13.4-13.41H74.81l26.08-65.21L172,207.79a16.46,16.46,0,0,0,5.33,6.8,13.48,13.48,0,0,0,7.72,2.57,12.92,12.92,0,0,0,9.92-3.86,14.29,14.29,0,0,0,3.67-10.1A12.22,12.22,0,0,0,197.67,198.06Z"/></g><g id="Group_13465" data-name="Group 13465"><path id="Path_7142" data-name="Path 7142" class="cls-5" d="M973.71,74.79a73.28,73.28,0,0,0-146.54,0,5.12,5.12,0,0,0,0,.56v1.13h0V209a8.15,8.15,0,0,0,16.3,0V185.29a8.15,8.15,0,1,1,16.29,0v11.23a8.15,8.15,0,1,0,16.29,0h0V185.29a8.13,8.13,0,0,1,8.14-8.14h0a8.14,8.14,0,0,1,8.15,8.14v3.07a8.15,8.15,0,0,0,16.29,0v-3.07a8.15,8.15,0,1,1,16.29,0v11.23a8.15,8.15,0,1,0,16.29,0h0V185.29a8.14,8.14,0,0,1,8.14-8.14h0a8.14,8.14,0,0,1,8.15,8.14V209a8.15,8.15,0,0,0,16.29,0V75.35C973.74,75.16,973.72,75,973.71,74.79ZM873.41,86.52c-7.2,0-13-6.68-13-15s5.84-14.95,13-14.95,13,6.68,13,14.95-5.83,15-13,15ZM901,107.63c-6.54,0-11.84-3.9-11.84-8.7S894.48,97,901,97s11.83-2.9,11.83,1.91-5.28,8.69-11.82,8.69Zm26.44-21.11c-7.2,0-13-6.68-13-15s5.84-14.95,13-14.95,13,6.68,13,14.95-5.84,15-13,15Z"/><g id="Group_13464" data-name="Group 13464"><ellipse id="Ellipse_598" data-name="Ellipse 598" class="cls-6" cx="873.42" cy="71.57" rx="13.04" ry="14.95"/><path id="Path_7143" data-name="Path 7143" class="cls-6" d="M901,97c-6.54,0-11.84-2.9-11.84,1.9s5.3,8.7,11.84,8.7,11.83-3.89,11.83-8.7S907.57,97,901,97Z"/><ellipse id="Ellipse_599" data-name="Ellipse 599" class="cls-6" cx="927.47" cy="71.57" rx="13.04" ry="14.95"/></g><path id="Path_7146" data-name="Path 7146" class="cls-7" d="M828.24,63.82s14.18-45,73-44.59c73,.88,72.49,82.65,72.49,82.65s6.58-57.32-27.66-82.75S882.87,5,869.58,10,831.1,36.12,828.24,63.82Z"/><path id="Path_7147" data-name="Path 7147" class="cls-8" d="M837.56,38.81s23.81-25.9,56.81-26.25,56.12,10.48,67,32.74a144.4,144.4,0,0,1,12.38,48.16s6.58-48.9-27.65-74.32S882.88,5,869.59,10,846.93,26,837.56,38.81Z"/><path id="Path_7148" data-name="Path 7148" class="cls-9" d="M860.37,71.57s.92-16,13-16,13,16,13,16-2.53-14.95-13-14.95C865.91,56.63,860,68.19,860.37,71.57Z"/><path id="Path_7149" data-name="Path 7149" class="cls-9" d="M914.44,71.57s.91-16,13-16,13,16,13,16-2.53-14.95-13-14.95C920,56.63,914.09,68.19,914.44,71.57Z"/><path id="Path_7150" data-name="Path 7150" class="cls-10" d="M873.42,53.62c-5.78,0-14.74,6.49-14.74,17.95a15.82,15.82,0,0,0,14.74,16.55c5.59,0,14-5.08,14-16.55S879.2,53.62,873.42,53.62Zm.19,32.65c-8.18.24-13-8.9-13-15.56a13.13,13.13,0,0,1,12.8-13.45h.23c8.12,0,11.64,6.8,11.64,13.46S881.8,86,873.61,86.27Z"/><path id="Path_7151" data-name="Path 7151" class="cls-10" d="M928,53.62c-5.78,0-14.75,6.49-14.75,17.95A15.83,15.83,0,0,0,928,88.12c5.59,0,14-5.08,14-16.55S933.72,53.62,928,53.62Zm.19,32.65c-8.18.24-13-8.9-13-15.56a13.13,13.13,0,0,1,12.8-13.45h.23c8.12,0,11.63,6.8,11.63,13.46S936.32,86,928.14,86.27Z"/><path id="Path_7152" data-name="Path 7152" class="cls-10" d="M889.43,100.68s2,7,11.76,7c8.51-.19,11-5.62,11.32-6.36a10.77,10.77,0,0,1-11.26,9.55A11.42,11.42,0,0,1,889.43,100.68Z"/><g class="cls-11"><path class="cls-12" d="M967.11,120.91a1.16,1.16,0,0,0-1.16,1.15V157.2a1.16,1.16,0,0,0,2.31,0V122.06A1.16,1.16,0,0,0,967.11,120.91Z"/><path class="cls-12" d="M967.11,102.73a1.16,1.16,0,0,0-1.16,1.15V111a1.16,1.16,0,0,0,2.31,0v-7.11A1.16,1.16,0,0,0,967.11,102.73Z"/><path class="cls-12" d="M833.94,93.81A1.14,1.14,0,0,0,832.79,95v21.12a1.15,1.15,0,0,0,2.3,0V95A1.15,1.15,0,0,0,833.94,93.81Z"/></g></g></svg>