<svg width="255" height="60" viewBox="30 48 200 40" fill="none" xmlns="http://www.w3.org/2000/svg">
<path d="M34 56.1838C34 51.664 37.664 48 42.1838 48H66.7352C71.255 48 74.919 51.664 74.919 56.1838V80.7352C74.919 85.255 71.255 88.919 66.7352 88.919H42.1838C37.664 88.919 34 85.255 34 80.7352V56.1838Z" fill="url(#paint0_linear)"/>
<path d="M219.23 63.9482C218 62.6533 216.455 61.9901 214.532 61.9901C213.334 61.9901 212.23 62.2743 211.19 62.8428C210.149 63.4113 209.361 64.1693 208.794 65.1168C207.753 63.0323 205.956 61.9901 203.371 61.9901C201.258 61.9901 199.556 62.7796 198.294 64.3904V63.0955C198.294 62.7165 197.916 62.4954 197.601 62.6217L193.849 64.1377V79.7396C193.849 79.9607 193.943 80.1818 194.101 80.3397C194.259 80.4976 194.448 80.5924 194.7 80.5924H197.664C197.916 80.5924 198.137 80.4976 198.263 80.3397C198.42 80.1818 198.484 79.9923 198.484 79.7396V69.9489C198.484 68.4961 198.799 67.4539 199.461 66.7591C200.092 66.0958 200.88 65.7484 201.794 65.7484C202.772 65.7484 203.591 66.0958 204.222 66.7591C204.853 67.4223 205.168 68.4961 205.168 69.9489V79.7396C205.168 79.9607 205.262 80.1818 205.42 80.3397C205.578 80.4976 205.767 80.5924 206.019 80.5924H208.951C209.204 80.5924 209.424 80.4976 209.55 80.3397C209.708 80.1818 209.771 79.9923 209.771 79.7396V69.9489C209.771 68.4961 210.086 67.4539 210.749 66.7591C211.379 66.0958 212.167 65.7484 213.082 65.7484C214.091 65.7484 214.91 66.0643 215.51 66.7275C216.14 67.3907 216.424 68.433 216.424 69.9174V80.1818C216.424 80.4029 217.023 80.5292 217.275 80.5292H220.176C220.428 80.5292 220.649 80.4344 220.775 80.2765C220.933 80.1186 220.996 79.9291 220.996 79.6765V69.6647C221.059 67.1697 220.428 65.2431 219.23 63.9482ZM122.56 62.6533L121.015 63.285L120.038 63.6955L119.218 64.043L118.556 64.3272V72.823C118.556 74.1495 118.209 75.2233 117.484 75.9813C116.758 76.7393 115.813 77.1498 114.583 77.1498C112.092 77.1498 110.831 75.697 110.831 72.823V63.127C110.831 62.7165 110.421 62.4638 110.043 62.6217L105.975 64.2956V73.0441C105.975 75.5075 106.606 77.4341 107.836 78.8237C109.065 80.2134 110.768 80.9398 112.912 80.9398C115.497 80.9398 117.452 80.0555 118.713 78.3184V80.0555C118.713 80.466 119.123 80.7187 119.502 80.5608L123.317 78.9816V63.1586C123.348 62.7796 122.938 62.4954 122.56 62.6533ZM131.767 54.5997L128.109 56.1157V79.8344C128.109 80.3397 128.614 80.6555 129.055 80.466L132.713 78.9501V55.2313C132.744 54.7576 132.24 54.4102 131.767 54.5997ZM103.043 54.5997H100.615C98.3136 54.5997 96.5795 55.105 95.4444 56.1472C94.3093 57.1895 93.7418 58.7686 93.7418 60.8847V79.7712C93.7418 80.2765 94.2463 80.5924 94.6877 80.4029L98.3136 78.9185V66.0958H102.665C102.885 66.0958 103.138 66.0011 103.295 65.8432C103.453 65.6853 103.516 65.4958 103.516 65.2431V63.1586C103.516 62.9376 103.421 62.7165 103.264 62.5586C103.106 62.4006 102.917 62.3059 102.665 62.3059H98.2821V61.0742C98.2821 60.1267 98.4713 59.4634 98.8496 58.9897C99.228 58.5475 99.8586 58.3265 100.773 58.3265H103.012C103.232 58.3265 103.453 58.2317 103.611 58.0738C103.768 57.9159 103.863 57.7264 103.863 57.4737V55.3893C103.863 55.1682 103.768 54.9471 103.611 54.7892C103.484 54.6944 103.264 54.5997 103.043 54.5997ZM188.489 62.6533L186.944 63.285L185.966 63.6955L185.146 64.043L184.484 64.3272V72.823C184.484 74.1495 184.137 75.2233 183.412 75.9813C182.687 76.7393 181.741 77.1498 180.512 77.1498C178.021 77.1498 176.76 75.697 176.76 72.823V63.127C176.76 62.7165 176.35 62.4638 175.971 62.6217L171.904 64.2956V73.0441C171.904 75.5075 172.535 77.4341 173.764 78.8237C174.994 80.2134 176.696 80.9398 178.84 80.9398C181.426 80.9398 183.381 80.0555 184.642 78.3184V80.0555C184.642 80.466 185.052 80.7187 185.43 80.5608L189.245 78.9816V63.1586C189.245 62.7796 188.835 62.4954 188.489 62.6533ZM153.396 70.8017L151.031 71.686C150.621 71.8439 150.338 72.1913 150.212 72.6019C149.739 74.2758 148.54 75.697 146.806 76.3603C143.779 77.4972 140.406 75.8549 139.46 72.6967C138.703 70.1069 139.901 67.3276 142.298 66.0958C144.189 65.1484 146.302 65.3694 147.91 66.4117C148.288 66.6643 148.73 66.6959 149.14 66.5696L151.504 65.6853C151.946 65.5273 152.103 64.9589 151.756 64.6114C149.076 61.769 144.788 60.7583 140.973 62.4638C136.559 64.4219 134.321 69.4752 135.802 74.0863C137.474 79.2975 143.149 81.982 148.194 80.087C151.883 78.6974 154.184 75.2549 154.342 71.5281C154.31 70.9912 153.837 70.6438 153.396 70.8017ZM168.53 62.3375H167.048C164.841 62.3375 163.17 63.0955 162.004 64.643V63.1902C162.004 62.9376 161.909 62.7165 161.751 62.5586C161.594 62.4006 161.373 62.3059 161.121 62.3059H158.252C158.031 62.3059 157.81 62.4006 157.653 62.5586C157.495 62.7165 157.4 62.9376 157.4 63.1902V79.8344C157.4 80.3397 157.905 80.6555 158.346 80.466L162.193 78.8869V70.1069C162.193 69.0015 162.508 68.1487 163.139 67.5171C163.769 66.8854 164.621 66.5696 165.724 66.5696H168.499C168.751 66.5696 168.972 66.4748 169.098 66.3169C169.255 66.159 169.319 65.9695 169.319 65.7168V63.1586C169.319 62.906 169.255 62.6849 169.098 62.5586C168.972 62.4006 168.783 62.3375 168.53 62.3375Z" fill="#283049"/>
<path d="M53.3017 66.9835C52.4971 67.2729 51.9511 68.0833 52.0085 68.9516C52.0085 69.1252 52.066 69.3278 52.1235 69.5015L52.4683 70.4276C52.8419 71.4406 53.934 71.9905 54.9398 71.6142L56.2905 71.1222L59.7103 69.9067C60.7161 69.5304 61.2622 68.4306 60.8886 67.4176L60.5437 66.4915C60.1701 65.4785 59.0781 64.9286 58.0723 65.3049L54.2501 66.6652L53.4167 66.9546L53.3017 66.9835Z" fill="white"/>
<path d="M57.0224 77.3292C56.7907 77.4164 56.5591 77.5328 56.3274 77.5909C54.1267 78.3471 52.0418 78.2308 49.9279 77.2129C49.4067 76.9511 48.8855 76.6603 48.4222 76.3113C48.0168 75.9914 47.6114 75.6715 47.2639 75.2643C46.9164 74.8862 46.5979 74.45 46.3083 74.0137C46.0187 73.5193 45.7581 72.9667 45.5554 72.4142C44.9473 70.7273 44.8894 69.0987 45.3527 67.4701C45.4975 66.9466 45.7002 66.4521 45.9319 65.9577C46.5689 64.6199 47.4376 63.5729 48.538 62.7586C49.204 62.2933 49.9279 61.9152 50.6808 61.6244C50.9124 61.5371 51.1731 61.4499 51.4047 61.3917L52.0128 61.2172L50.3623 56.593L49.8121 56.7675C49.5515 56.8548 49.3198 56.9129 49.0592 57.0002C47.2928 57.64 45.7871 58.5125 44.513 59.6758C44.4261 59.7631 44.3392 59.8503 44.2234 59.9376C43.0941 61.0427 42.1674 62.3514 41.4725 63.8056C39.9667 67.0047 39.7351 70.2911 40.7775 73.6066C40.8354 73.752 40.8644 73.8974 40.9223 74.0428C41.6173 76.0495 42.6887 77.7363 44.1076 79.1323C45.179 80.1793 46.4241 81.0227 47.7561 81.6625C48.1905 81.8661 48.6248 82.0406 49.0592 82.2151C49.3488 82.3315 49.6094 82.4187 49.899 82.506C51.9549 83.0876 54.1556 83.1458 56.2405 82.6514C56.7907 82.535 57.3409 82.3605 57.8911 82.157C58.1517 82.0697 58.4123 81.9534 58.644 81.8661L59.1652 81.6335L57.8911 77.9981L57.5436 77.0384L57.0224 77.3292Z" fill="white"/>
<path d="M59.3186 53.1619L58.1678 53.5701L55.9812 54.3573L54.0823 55.0278L52.4135 55.6109L54.0535 60.2757L54.1398 60.2465L55.1468 59.8967L61.6491 57.5643L63.8357 56.7771L65.0441 56.3398L66.4539 55.8442L71.2011 54.124L74.5098 52.9287C74.1933 51.2085 73.2439 49.6925 71.8916 48.6138L69.5612 49.4884L59.3186 53.1619Z" fill="white"/>
<defs>
<linearGradient id="paint0_linear" x1="72.2593" y1="86.2593" x2="39.5241" y2="53.5241" gradientUnits="userSpaceOnUse">
<stop offset="0.159375" stop-color="#003CDA"/>
<stop offset="1" stop-color="#33DFCC"/>
</linearGradient>
</defs>
</svg>
